<svg width="18" height="17" viewBox="0 0 18 17" fill="none" xmlns="http://www.w3.org/2000/svg">
<g clip-path="url(#clip0)">
<path d="M14.8961 14.1773C15.8479 12.8513 16.3636 11.2558 16.3636 9.59163C16.3636 5.2809 12.9279 1.79199 8.68182 1.79199C4.43616 1.79199 1 5.28043 1 9.59163C1 11.2553 1.51551 12.8504 2.46671 14.1761C5.53142 9.89573 11.8271 9.89192 14.8961 14.1773ZM5.98118 6.39254C5.98118 4.88064 7.19272 3.65047 8.68182 3.65047C10.1709 3.65047 11.3825 4.88064 11.3825 6.39254V7.3066C11.3825 8.81861 10.1709 10.0487 8.68182 10.0487C7.19272 10.0487 5.98118 8.81861 5.98118 7.3066V6.39254Z" stroke="#C4C4C4" stroke-width="2"/>
</g>
<defs>
<clipPath id="clip0">
<rect width="18" height="16" fill="white" transform="translate(0 0.791992)"/>
</clipPath>
</defs>
</svg>
