<svg width="20" height="21" viewBox="0 0 20 21" fill="none" xmlns="http://www.w3.org/2000/svg">
<g clip-path="url(#clip0)">
<path d="M17.5 2.69482H9.4292C9.79175 3.45395 10 4.29898 10 5.19482C10 6.09067 9.79175 6.93555 9.4292 7.69482H17.5C18.17 7.69482 18.7992 7.43558 19.2701 6.96484C19.7409 6.49396 20 5.86484 20 5.19482C20 3.8165 18.8784 2.69482 17.5 2.69482Z" fill="#9BD6AE"/>
<path d="M8.33328 5.19504C8.33328 7.49622 6.4679 9.3616 4.16672 9.3616C1.86554 9.3616 0 7.49622 0 5.19504C0 2.89386 1.86554 1.02832 4.16672 1.02832C6.4679 1.02832 8.33328 2.89386 8.33328 5.19504Z" fill="#9BD6AE"/>
<path d="M10 15.1948C10 14.299 10.2083 13.4539 10.5708 12.6948H2.5C1.12167 12.6948 0 13.8165 0 15.1948C0 15.8648 0.259094 16.494 0.72998 16.9648C1.20087 17.4356 1.82999 17.6948 2.5 17.6948H10.5708C10.2083 16.9355 10 16.0907 10 15.1948Z" fill="#9BD6AE"/>
<path d="M19.9998 15.195C19.9998 17.4962 18.1342 19.3616 15.8331 19.3616C13.5319 19.3616 11.6665 17.4962 11.6665 15.195C11.6665 12.8939 13.5319 11.0283 15.8331 11.0283C18.1342 11.0283 19.9998 12.8939 19.9998 15.195Z" fill="#9BD6AE"/>
</g>
<defs>
<clipPath id="clip0">
<rect width="20" height="20" fill="white" transform="translate(0 0.208008)"/>
</clipPath>
</defs>
</svg>
