<svg width="49" height="11" viewBox="0 0 49 11" fill="none" xmlns="http://www.w3.org/2000/svg">
<path d="M6.6582 2.43457L2.58398 6.08496L6.6582 9.65332H4.09473L0.792969 6.75488C0.587891 6.58626 0.485352 6.36296 0.485352 6.08496C0.485352 5.95736 0.510417 5.83659 0.560547 5.72266C0.615234 5.60872 0.688151 5.51074 0.779297 5.42871L4.12207 2.43457H6.6582ZM20.8906 8.50488C20.8906 8.6735 20.8701 8.85124 20.8291 9.03809C20.7926 9.22493 20.7334 9.41178 20.6514 9.59863C20.5693 9.78092 20.4622 9.95638 20.3301 10.125C20.2025 10.2936 20.0452 10.444 19.8584 10.5762C19.6761 10.7038 19.4642 10.8063 19.2227 10.8838C18.9811 10.9613 18.7077 11 18.4023 11H15.1963C15.0277 11 14.8499 10.9818 14.6631 10.9453C14.4762 10.9043 14.2894 10.8428 14.1025 10.7607C13.9202 10.6787 13.7448 10.5739 13.5762 10.4463C13.4076 10.3141 13.2572 10.1569 13.125 9.97461C12.9974 9.78776 12.8949 9.57357 12.8174 9.33203C12.7399 9.08594 12.7012 8.81022 12.7012 8.50488V0.486328H14.4785V8.50488C14.4785 8.72363 14.5469 8.89909 14.6836 9.03125C14.8203 9.15885 14.9912 9.22266 15.1963 9.22266H18.4023C18.6257 9.22266 18.7988 9.15658 18.9219 9.02441C19.0495 8.89225 19.1133 8.71908 19.1133 8.50488V6.09863C19.1133 5.87533 19.0472 5.70215 18.915 5.5791C18.7829 5.4515 18.612 5.3877 18.4023 5.3877H15.1963V3.61035H18.4023C18.571 3.61035 18.7487 3.63086 18.9355 3.67188C19.1224 3.70833 19.307 3.76758 19.4893 3.84961C19.6761 3.93164 19.8538 4.03874 20.0225 4.1709C20.1911 4.2985 20.3392 4.45573 20.4668 4.64258C20.5944 4.82487 20.6969 5.03678 20.7744 5.27832C20.8519 5.51986 20.8906 5.79329 20.8906 6.09863V8.50488ZM30.0371 8.55273C30.0371 8.79883 29.9938 9.06543 29.9072 9.35254C29.8206 9.63509 29.6794 9.89941 29.4834 10.1455C29.292 10.387 29.0391 10.5898 28.7246 10.7539C28.4147 10.918 28.0365 11 27.5898 11H24.3838C24.1377 11 23.8711 10.9567 23.584 10.8701C23.3014 10.7835 23.0371 10.6445 22.791 10.4531C22.5495 10.2572 22.3467 10.0042 22.1826 9.69434C22.0186 9.37988 21.9365 8.99935 21.9365 8.55273C21.9365 8.30664 21.9798 8.04004 22.0664 7.75293C22.153 7.46582 22.292 7.2015 22.4834 6.95996C22.6794 6.71387 22.9323 6.50879 23.2422 6.34473C23.5566 6.18066 23.9372 6.09863 24.3838 6.09863H27.5898V7.79395H24.3838C24.1423 7.79395 23.9554 7.86914 23.8232 8.01953C23.6911 8.16536 23.625 8.34766 23.625 8.56641C23.625 8.79883 23.7002 8.98112 23.8506 9.11328C24.0055 9.24089 24.1878 9.30469 24.3975 9.30469H27.5898C27.8314 9.30469 28.0182 9.23177 28.1504 9.08594C28.2826 8.9401 28.3486 8.75781 28.3486 8.53906V6.05762C28.3486 5.8252 28.2757 5.64062 28.1299 5.50391C27.9886 5.36719 27.8086 5.29883 27.5898 5.29883H23.6865V3.61035H27.5898C27.8359 3.61035 28.1003 3.65365 28.3828 3.74023C28.6699 3.82682 28.9342 3.9681 29.1758 4.16406C29.4219 4.35547 29.627 4.6084 29.791 4.92285C29.9551 5.23275 30.0371 5.611 30.0371 6.05762V8.55273ZM38.7119 11H33.8926C33.6465 11 33.3776 10.9567 33.0859 10.8701C32.7943 10.7835 32.5231 10.6423 32.2725 10.4463C32.0264 10.2458 31.819 9.98828 31.6504 9.67383C31.4863 9.35482 31.4043 8.96517 31.4043 8.50488V6.09863C31.4043 5.93001 31.4225 5.75228 31.459 5.56543C31.5 5.37858 31.5615 5.19401 31.6436 5.01172C31.7256 4.82487 31.8304 4.64714 31.958 4.47852C32.0902 4.3099 32.2474 4.16178 32.4297 4.03418C32.6165 3.90658 32.8307 3.80404 33.0723 3.72656C33.3138 3.64909 33.5872 3.61035 33.8926 3.61035H38.7119V5.3877H33.8926C33.6602 5.3877 33.4824 5.44694 33.3594 5.56543C33.2409 5.68392 33.1816 5.86621 33.1816 6.1123V8.50488C33.1816 8.7373 33.2432 8.91504 33.3662 9.03809C33.4893 9.16113 33.6693 9.22266 33.9062 9.22266H38.7119V11ZM48.8633 11H46.2998L42.7178 7.54102C42.5173 7.35872 42.4238 7.13086 42.4375 6.85742C42.4466 6.72982 42.4785 6.61133 42.5332 6.50195C42.5924 6.38802 42.6722 6.29232 42.7725 6.21484L46.0195 3.59668H48.8633L44.6797 6.9668L48.8633 11ZM41.9863 11H40.209V0.486328H41.9863V11Z" fill="#C4C4C4"/>
</svg>
