<svg width="20" height="21" viewBox="0 0 20 21" fill="none" xmlns="http://www.w3.org/2000/svg">
<g clip-path="url(#clip0)">
<path d="M7.23486 18.4038C7.70435 19.4652 8.76684 20.208 10.0001 20.208C11.2334 20.208 12.2959 19.4652 12.7654 18.4038H7.23486Z" fill="#9BD6AE"/>
<path d="M9.99976 2.11881C10.8136 2.11881 11.595 2.26241 12.3202 2.5253V2.43598C12.3202 1.20747 11.3208 0.208008 10.0923 0.208008H9.90765C8.67915 0.208008 7.67969 1.20747 7.67969 2.43598V2.52417C8.40447 2.26206 9.18568 2.11881 9.99976 2.11881Z" fill="#9BD6AE"/>
<path d="M17.3233 17.2298H2.6766C2.3995 17.2298 2.14568 17.043 2.08805 16.7719C2.031 16.5035 2.15331 16.2386 2.40146 16.124C2.46034 16.0858 2.90357 15.7759 3.34731 14.8382C4.16229 13.1162 4.33335 10.6905 4.33335 8.95885C4.33335 5.83437 6.87532 3.29248 9.99976 3.29248C13.1168 3.29248 15.6541 5.82212 15.6661 8.93636C15.6664 8.94383 15.6666 8.95134 15.6666 8.95885C15.6666 10.6905 15.8376 13.1162 16.6526 14.8382C17.0963 15.7759 17.5395 16.0858 17.5985 16.124C17.8466 16.2386 17.969 16.5035 17.9119 16.7719C17.8542 17.0429 17.6005 17.2298 17.3233 17.2298ZM17.605 16.1281H17.6054H17.605Z" fill="#9BD6AE"/>
</g>
<defs>
<clipPath id="clip0">
<rect width="20" height="20" fill="white" transform="translate(0 0.208008)"/>
</clipPath>
</defs>
</svg>
