<svg width="11" height="17" viewBox="0 0 11 17" fill="none" xmlns="http://www.w3.org/2000/svg">
<path fill-rule="evenodd" clip-rule="evenodd" d="M4.07566 0C5.09271 0 6.10602 0 7.12306 0C7.06324 0.664119 6.99967 1.33185 6.94358 1.99597C8.12889 2.07898 9.28429 2.44713 10.3238 2.99214C9.87507 4.08217 9.42263 5.17219 8.9702 6.26221C8.09524 5.54395 6.94358 5.14692 5.79567 5.16136C5.50775 5.16858 5.20862 5.22272 4.96932 5.38153C4.81227 5.4862 4.69636 5.64862 4.66271 5.82909C4.63653 5.97346 4.64401 6.13588 4.72627 6.26582C4.81975 6.41019 4.98427 6.49682 5.1488 6.55096C5.48532 6.66645 5.84802 6.67367 6.1995 6.70977C7.02585 6.80722 7.85593 6.94437 8.63741 7.22951C9.24316 7.45329 9.82272 7.78896 10.2378 8.27983C10.6304 8.731 10.8585 9.30127 10.9445 9.88599C11.0454 10.5609 11.0155 11.2611 10.7986 11.918C10.6304 12.445 10.3425 12.9359 9.96855 13.351C9.19455 14.2172 8.05785 14.7369 6.89124 14.8705C6.92863 15.5815 6.9735 16.289 7.01463 17C6.04993 17 5.08897 17 4.12801 17C4.1654 16.2962 4.21401 15.5924 4.24766 14.8885C3.47366 14.8633 2.70714 14.6972 1.98548 14.4338C1.28626 14.1775 0.620697 13.8382 0 13.4412C0.456175 12.3079 0.91235 11.1745 1.37226 10.0376C1.89201 10.4599 2.4454 10.8533 3.05114 11.1529C3.70175 11.4741 4.4234 11.6798 5.15627 11.687C5.50401 11.6907 5.86297 11.6726 6.19202 11.5571C6.39393 11.4849 6.59211 11.3586 6.68184 11.1601C6.77532 10.9507 6.76784 10.6873 6.62576 10.4996C6.5248 10.3732 6.38271 10.2866 6.23315 10.2253C6.03123 10.1459 5.82184 10.1025 5.60871 10.0701C4.82349 9.94735 4.03453 9.84628 3.27549 9.60807C2.66601 9.41677 2.07148 9.14968 1.5854 8.73822C1.27879 8.48195 1.02452 8.16794 0.845046 7.81423C0.575828 7.28726 0.474871 6.69172 0.482349 6.10701C0.482349 5.45372 0.620697 4.7896 0.95722 4.21571C1.24887 3.70318 1.69383 3.2845 2.19488 2.96327C2.80062 2.57707 3.4774 2.31359 4.1654 2.10064C4.13549 1.40042 4.10558 0.700212 4.07566 0Z" fill="#99D7AF"/>
</svg>
