<svg width="26" height="26" viewBox="0 0 26 26" fill="none" xmlns="http://www.w3.org/2000/svg">
<path opacity="0.2" d="M25.6084 16.145C23.8721 23.1094 16.818 27.3474 9.85281 25.6111C2.89091 23.8747 -1.3475 16.8206 0.389218 9.85668C2.12472 2.89152 9.17844 -1.34729 16.1416 0.389023C23.1063 2.12534 27.3443 9.18027 25.608 16.145H25.6084Z" fill="#F7931A"/>
<path d="M16.543 10.5415C16.4399 9.35947 15.424 8.9543 14.1379 8.82986L14.1527 7.19164L13.1552 7.18277L13.1408 8.77781C12.879 8.77541 12.611 8.77815 12.3447 8.78105L12.3594 7.17546L11.3628 7.16639L11.3475 8.80414C11.1316 8.80659 10.9196 8.80868 10.7128 8.80694L10.7127 8.80186L9.33741 8.78892L9.32801 9.85393C9.32801 9.85393 10.0645 9.84657 10.0521 9.86002C10.4561 9.8638 10.5857 10.0994 10.6218 10.3022L10.605 12.1684C10.6328 12.1688 10.6692 12.1703 10.7103 12.1763L10.6052 12.1755L10.581 14.79C10.5621 14.9169 10.4856 15.1189 10.2034 15.1169C10.216 15.1283 9.47851 15.1101 9.47851 15.1101L9.26965 16.2995L10.5676 16.3111C10.8091 16.3136 11.0466 16.3198 11.2796 16.3235L11.2651 17.9806L12.2612 17.9898L12.2763 16.3504C12.5495 16.3586 12.8141 16.3632 13.0725 16.3653L13.0573 17.9971L14.0545 18.006L14.0698 16.3521C15.7471 16.2711 16.9245 15.8593 17.084 14.2867C17.2132 13.0202 16.6223 12.4491 15.6726 12.2116C16.2533 11.9219 16.6195 11.4065 16.5428 10.5415L16.543 10.5415Z" fill="#F7931A"/>
<path d="M15.1156 14.0717C15.1047 15.3099 12.9862 15.1501 12.31 15.1444L12.3302 12.9491C13.0062 12.9554 15.1269 12.7803 15.1159 14.0716L15.1156 14.0717Z" fill="#352109"/>
<path d="M14.6797 10.9703C14.6692 12.0968 12.9022 11.9494 12.339 11.9444L12.3571 9.95337C12.9203 9.95837 14.6905 9.79532 14.6797 10.9703Z" fill="#352109"/>
</svg>
