<svg width="15" height="16" viewBox="0 0 15 16" fill="none" xmlns="http://www.w3.org/2000/svg">
<path d="M7.41237 1.77979C7.40888 1.77979 7.40192 1.77979 7.39147 1.77979C3.86658 1.77979 1 4.64636 1 8.17125C1 9.60976 1.49112 11.0065 2.38975 12.1315L1.45977 14.2945C1.38314 14.4721 1.46673 14.6776 1.64089 14.7508C1.70358 14.7787 1.77325 14.7856 1.83942 14.7752L5.24937 14.1761C5.93205 14.4234 6.64957 14.5488 7.37405 14.5453C10.8989 14.5453 13.7655 11.6787 13.7655 8.15383C13.7725 4.6394 10.9268 1.78327 7.41237 1.77979Z" stroke="#C4C4C4" stroke-width="2"/>
<line x1="5.79199" y1="6.73828" x2="7.58366" y2="6.73828" stroke="#C4C4C4" stroke-width="2" stroke-linecap="round"/>
<line x1="5.79199" y1="10" x2="9.75033" y2="10" stroke="#C4C4C4" stroke-width="2" stroke-linecap="round"/>
</svg>
