<svg width="29" height="30" viewBox="0 0 29 30" fill="none" xmlns="http://www.w3.org/2000/svg">
<g clip-path="url(#clip0)">
<path d="M22.375 4.20801H7.9375C7.59773 4.20801 7.32227 4.48347 7.32227 4.82324V7.53027H6.625C6.28523 7.53027 6.00977 7.80573 6.00977 8.14551C6.00977 8.48528 6.28523 8.76074 6.625 8.76074H7.32227V10.8115H6.625C6.28523 10.8115 6.00977 11.087 6.00977 11.4268C6.00977 11.7665 6.28523 12.042 6.625 12.042H7.32227V14.0928H6.625C6.28523 14.0928 6.00977 14.3682 6.00977 14.708C6.00977 15.0478 6.28523 15.3232 6.625 15.3232H7.32227V17.374H6.625C6.28523 17.374 6.00977 17.6495 6.00977 17.9893C6.00977 18.329 6.28523 18.6045 6.625 18.6045H7.32227V20.6553H6.625C6.28523 20.6553 6.00977 20.9307 6.00977 21.2705C6.00977 21.6103 6.28523 21.8857 6.625 21.8857H7.32227V24.5928C7.32227 24.9325 7.59773 25.208 7.9375 25.208H22.375C22.7148 25.208 22.9902 24.9325 22.9902 24.5928V4.82324C22.9902 4.48347 22.7148 4.20801 22.375 4.20801ZM18.4375 19.5889C18.0977 19.5889 17.8223 19.3134 17.8223 18.9736C17.8223 17.3406 16.8251 15.6514 15.1562 15.6514C13.4874 15.6514 12.4902 17.3406 12.4902 18.9736C12.4902 19.3134 12.2148 19.5889 11.875 19.5889C11.5352 19.5889 11.2598 19.3134 11.2598 18.9736C11.2598 17.4105 11.9734 15.791 13.2802 14.9641C12.6472 14.4295 12.2441 13.6307 12.2441 12.7393C12.2441 11.1335 13.5505 9.82715 15.1562 9.82715C16.762 9.82715 18.0684 11.1335 18.0684 12.7393C18.0684 13.6307 17.6653 14.4295 17.0323 14.9641C18.3391 15.791 19.0527 17.4103 19.0527 18.9736C19.0527 19.3134 18.7773 19.5889 18.4375 19.5889Z" fill="#9BD6AE"/>
<path d="M15.1562 14.4209C16.085 14.4209 16.8379 13.668 16.8379 12.7393C16.8379 11.8105 16.085 11.0576 15.1562 11.0576C14.2275 11.0576 13.4746 11.8105 13.4746 12.7393C13.4746 13.668 14.2275 14.4209 15.1562 14.4209Z" fill="#9BD6AE"/>
</g>
<defs>
<clipPath id="clip0">
<rect width="21" height="21" fill="white" transform="translate(4 4.20801)"/>
</clipPath>
</defs>
</svg>
