<svg width="20" height="21" viewBox="0 0 20 21" fill="none" xmlns="http://www.w3.org/2000/svg">
<path d="M19.9199 12.4736C19.9199 12.8369 19.8555 13.2295 19.7266 13.6514C19.5977 14.0732 19.3867 14.4658 19.0938 14.8291C18.8008 15.1924 18.4199 15.4971 17.9512 15.7432C17.4824 15.9893 16.9141 16.1123 16.2461 16.1123H8.00195C7.62695 16.1123 7.22852 16.0479 6.80664 15.9189C6.38477 15.79 5.99219 15.5791 5.62891 15.2861C5.26562 14.9932 4.96094 14.6182 4.71484 14.1611C4.48047 13.7041 4.36328 13.1416 4.36328 12.4736C4.36328 12.1104 4.42773 11.7119 4.55664 11.2783C4.68555 10.8447 4.89062 10.4463 5.17188 10.083C5.46484 9.71973 5.83984 9.41504 6.29688 9.16895C6.76562 8.92285 7.33398 8.7998 8.00195 8.7998H11.6758V11.999H8.00195C7.9668 11.999 7.92578 12.0049 7.87891 12.0166C7.83203 12.0166 7.78516 12.0342 7.73828 12.0693C7.69141 12.0928 7.65039 12.1396 7.61523 12.21C7.58008 12.2686 7.5625 12.3564 7.5625 12.4736C7.5625 12.6377 7.60938 12.749 7.70312 12.8076C7.79688 12.8662 7.9082 12.8955 8.03711 12.8955H12.2734C12.3672 12.8955 12.4434 12.8662 12.502 12.8076C12.5723 12.7373 12.6074 12.6143 12.6074 12.4385V8.3252C12.6074 8.21973 12.584 8.12012 12.5371 8.02637C12.502 7.9209 12.3555 7.86816 12.0977 7.86816H6.19141V4.65137H12.1328C12.4961 4.65137 12.8945 4.71582 13.3281 4.84473C13.7617 4.97363 14.1602 5.18457 14.5234 5.47754C14.8867 5.77051 15.1914 6.15137 15.4375 6.62012C15.6836 7.08887 15.8066 7.65723 15.8066 8.3252V12.4736C15.8066 12.5439 15.8008 12.6143 15.7891 12.6846C15.7773 12.7549 15.7715 12.8252 15.7715 12.8955H16.2461C16.375 12.8955 16.4805 12.8779 16.5625 12.8428C16.6562 12.8076 16.7031 12.6729 16.7031 12.4385V6.26855C16.7031 5.88184 16.6387 5.53613 16.5098 5.23145C16.3809 4.91504 16.2051 4.65137 15.9824 4.44043C15.7598 4.21777 15.4961 4.04785 15.1914 3.93066C14.8867 3.81348 14.5527 3.75488 14.1895 3.75488H5.94531C5.55859 3.75488 5.20703 3.81934 4.89062 3.94824C4.58594 4.07715 4.32227 4.25879 4.09961 4.49316C3.88867 4.71582 3.72461 4.97949 3.60742 5.28418C3.49023 5.58887 3.43164 5.91699 3.43164 6.26855V14.5127C3.43164 14.8877 3.49609 15.2334 3.625 15.5498C3.75391 15.8545 3.92969 16.1182 4.15234 16.3408C4.38672 16.5635 4.65625 16.7393 4.96094 16.8682C5.26562 16.9854 5.59375 17.0439 5.94531 17.0439H8.00195V20.2432H5.94531C5.37109 20.2432 4.75 20.1436 4.08203 19.9443C3.41406 19.7451 2.79297 19.417 2.21875 18.96C1.64453 18.5029 1.16406 17.9111 0.777344 17.1846C0.402344 16.458 0.214844 15.5674 0.214844 14.5127V6.26855C0.214844 5.69434 0.314453 5.07324 0.513672 4.40527C0.712891 3.7373 1.04102 3.12207 1.49805 2.55957C1.95508 1.98535 2.54688 1.51074 3.27344 1.13574C4 0.749023 4.89062 0.555664 5.94531 0.555664H14.1895C14.7637 0.555664 15.3848 0.655273 16.0527 0.854492C16.7207 1.05371 17.3418 1.38184 17.916 1.83887C18.4902 2.28418 18.9648 2.87012 19.3398 3.59668C19.7266 4.32324 19.9199 5.21387 19.9199 6.26855V12.4736Z" fill="#9BD6AE"/>
</svg>
