<svg width="26" height="26" viewBox="0 0 26 26" fill="none" xmlns="http://www.w3.org/2000/svg">
<path d="M25.8629 12.9314C25.8629 20.0733 20.0733 25.863 12.9315 25.863C5.78959 25.863 0 20.0733 0 12.9314C0 5.7896 5.78959 0 12.9315 0C20.0733 0 25.8629 5.7896 25.8629 12.9314Z" fill="#4261CE"/>
<g opacity="0.8">
<path d="M12.8902 6.93115L12.8103 7.20264V15.0804L12.8902 15.1602L16.5469 12.9987L12.8902 6.93115Z" fill="white"/>
<path d="M12.8902 6.93115L9.2334 12.9987L12.8902 15.1602V11.3365V6.93115Z" fill="white"/>
<path d="M12.8902 16.3499L12.8451 16.4048V19.211L12.8902 19.3425L16.5491 14.1895L12.8902 16.3499Z" fill="white"/>
<path d="M12.8902 19.3425V16.3499L9.2334 14.1895L12.8902 19.3425Z" fill="white"/>
<path d="M12.8902 15.1603L16.5469 12.9988L12.8902 11.3367V15.1603Z" fill="white"/>
<path d="M9.2334 12.9985L12.8901 15.16V11.3364L9.2334 12.9985Z" fill="white"/>
</g>
</svg>
