<svg width="23" height="13" viewBox="0 0 23 13" fill="none" xmlns="http://www.w3.org/2000/svg">
<mask id="path-1-outside-1" maskUnits="userSpaceOnUse" x="7.36279" y="0.324219" width="9" height="12" fill="black">
<rect fill="white" x="7.36279" y="0.324219" width="9" height="12"/>
<path d="M9.45744 8.26535C9.35165 8.10466 9.33334 7.90116 9.40859 7.72396C9.48384 7.54673 9.64269 7.41869 9.83164 7.38364L10.2646 7.30287C10.4862 7.26156 10.7115 7.35433 10.8402 7.54007C11.003 7.77458 11.2786 7.89375 11.6594 7.89375C12.2456 7.89375 12.2456 7.65982 12.2456 7.58316C12.2456 7.47164 12.2039 7.39062 12.1144 7.32818C12.0231 7.26422 11.8566 7.20742 11.6198 7.15916C10.6671 6.96444 10.0536 6.71182 9.79559 6.408C9.53378 6.10007 9.40652 5.75571 9.40652 5.35527C9.40652 4.92036 9.54971 4.52924 9.83208 4.19215C10.1055 3.86578 10.5232 3.65411 11.0737 3.56175V2.89946C11.0737 2.58167 11.3305 2.32422 11.6472 2.32422C11.9641 2.32422 12.2209 2.58167 12.2209 2.89946V3.57378C12.7135 3.66829 13.098 3.86786 13.3903 4.1812C13.525 4.32575 13.5762 4.52935 13.5259 4.72055C13.4756 4.91193 13.3309 5.06378 13.1426 5.12287L12.8455 5.21607C12.6301 5.28371 12.3948 5.21818 12.245 5.04884C12.0956 4.87985 11.8738 4.79404 11.5857 4.79404C11.3538 4.79404 11.0772 4.84942 11.0772 5.11342C11.0772 5.18793 11.1058 5.25531 11.1598 5.30829C11.2163 5.36364 11.3812 5.42218 11.6501 5.48233C12.2704 5.6184 12.7239 5.74244 12.9953 5.85091C13.2704 5.96087 13.5023 6.14927 13.6847 6.41106C13.8669 6.67229 13.9595 6.9856 13.9595 7.34196C13.9595 7.84084 13.78 8.26484 13.4259 8.60211C13.1236 8.89004 12.7188 9.08207 12.2209 9.17487V10.1003C12.2209 10.418 11.9641 10.6755 11.6472 10.6755C11.3305 10.6755 11.0737 10.418 11.0737 10.1003V9.20571C10.3471 9.10713 9.8031 8.79135 9.45744 8.26535Z"/>
</mask>
<path d="M9.45744 8.26535L10.711 7.44158L10.7103 7.44053L9.45744 8.26535ZM9.40859 7.72396L10.7892 8.3103L10.7893 8.3102L9.40859 7.72396ZM9.83164 7.38364L10.1053 8.85847L10.1067 8.8582L9.83164 7.38364ZM10.2646 7.30287L9.98973 5.82828L9.98958 5.82831L10.2646 7.30287ZM10.8402 7.54007L9.60726 8.39442L9.60809 8.39561L10.8402 7.54007ZM12.1144 7.32818L11.2539 8.55678L11.256 8.55827L12.1144 7.32818ZM11.6198 7.15916L11.3194 8.62878L11.3203 8.62896L11.6198 7.15916ZM9.79559 6.408L10.9389 5.43698L10.9384 5.43638L9.79559 6.408ZM9.83208 4.19215L10.982 5.15537L10.982 5.15535L9.83208 4.19215ZM11.0737 3.56175L11.3219 5.04107C12.0444 4.91983 12.5737 4.29438 12.5737 3.56175H11.0737ZM12.2209 3.57378H10.7209C10.7209 4.29322 11.2317 4.91135 11.9383 5.04691L12.2209 3.57378ZM13.3903 4.1812L14.4878 3.15874L14.4872 3.15807L13.3903 4.1812ZM13.5259 4.72055L14.9765 5.10236L14.9766 5.10193L13.5259 4.72055ZM13.1426 5.12287L13.5915 6.55413L13.5918 6.55406L13.1426 5.12287ZM12.8455 5.21607L12.3966 3.78481L12.396 3.785L12.8455 5.21607ZM12.245 5.04884L13.3687 4.0552L13.3686 4.05508L12.245 5.04884ZM11.1598 5.30829L10.1089 6.37866L10.1105 6.38021L11.1598 5.30829ZM11.6501 5.48233L11.3226 6.94616L11.3286 6.94749L11.6501 5.48233ZM12.9953 5.85091L12.4385 7.24374L12.4385 7.24375L12.9953 5.85091ZM13.6847 6.41106L12.4539 7.26841L12.4545 7.26927L13.6847 6.41106ZM13.4259 8.60211L12.3914 7.51589L12.3914 7.51591L13.4259 8.60211ZM12.2209 9.17487L11.946 7.70028C11.2359 7.83266 10.7209 8.45246 10.7209 9.17487H12.2209ZM11.0737 9.20571H12.5737C12.5737 8.45522 12.019 7.82023 11.2753 7.71933L11.0737 9.20571ZM10.7103 7.44053C10.8811 7.69992 10.9099 8.02617 10.7892 8.3103L8.02793 7.13763C7.75676 7.77616 7.82223 8.50939 8.20457 9.09016L10.7103 7.44053ZM10.7893 8.3102C10.6691 8.59325 10.414 8.80119 10.1053 8.85847L9.55803 5.9088C8.87135 6.0362 8.29858 6.5002 8.02789 7.13773L10.7893 8.3102ZM10.1067 8.8582L10.5397 8.77744L9.98958 5.82831L9.5566 5.90907L10.1067 8.8582ZM10.5395 8.77747C10.1788 8.84471 9.81432 8.69323 9.60726 8.39441L12.0731 6.68573C11.6086 6.01543 10.7936 5.67842 9.98973 5.82828L10.5395 8.77747ZM9.60809 8.39561C10.1399 9.16154 10.9664 9.39375 11.6594 9.39375V6.39375C11.6201 6.39375 11.6683 6.38699 11.7628 6.4278C11.8702 6.47418 11.9864 6.56079 12.0723 6.68454L9.60809 8.39561ZM11.6594 9.39375C12.0873 9.39375 12.7044 9.32022 13.1932 8.86626C13.7572 8.34241 13.7456 7.69052 13.7456 7.58316H10.7456C10.7456 7.59411 10.7409 7.44201 10.792 7.25953C10.8492 7.05528 10.9646 6.84177 11.1515 6.66814C11.4937 6.35031 11.8176 6.39375 11.6594 6.39375V9.39375ZM13.7456 7.58316C13.7456 7.33635 13.6981 7.04394 13.5474 6.75098C13.3958 6.4564 13.1827 6.24452 12.9729 6.09809L11.256 8.55827C11.1357 8.47428 10.9881 8.33413 10.8798 8.12355C10.7723 7.91459 10.7456 7.71845 10.7456 7.58316H13.7456ZM12.975 6.09959C12.6104 5.84421 12.1754 5.74156 11.9193 5.68937L11.3203 8.62896C11.3572 8.63649 11.3855 8.64315 11.4061 8.64852C11.4163 8.65117 11.4239 8.65333 11.4293 8.65491C11.4346 8.65651 11.4371 8.65734 11.4369 8.65728C11.4368 8.65724 11.4332 8.65601 11.4266 8.6534C11.4201 8.65081 11.4094 8.64637 11.3952 8.63974C11.3696 8.62772 11.3181 8.60178 11.2539 8.55678L12.975 6.09959ZM11.9202 5.68955C11.4976 5.60317 11.2053 5.51446 11.0183 5.43749C10.8064 5.35023 10.843 5.32411 10.9389 5.43698L8.6523 7.37902C9.0062 7.79571 9.47852 8.04781 9.87603 8.2115C10.2985 8.38547 10.7893 8.52043 11.3194 8.62878L11.9202 5.68955ZM10.9384 5.43638C10.9236 5.41902 10.9162 5.40763 10.9131 5.40233C10.9101 5.39725 10.9096 5.39555 10.9099 5.39634C10.9102 5.39715 10.9097 5.39622 10.9089 5.39181C10.9081 5.38716 10.9065 5.37561 10.9065 5.35527H7.90652C7.90652 6.11531 8.16274 6.80323 8.65281 7.37963L10.9384 5.43638ZM10.9065 5.35527C10.9065 5.27713 10.9228 5.22595 10.982 5.15537L8.6822 3.22893C8.17659 3.83252 7.90652 4.5636 7.90652 5.35527H10.9065ZM10.982 5.15535C10.9618 5.17947 11.011 5.09323 11.3219 5.04107L10.8254 2.08243C10.0354 2.21499 9.24915 2.55209 8.68219 3.22894L10.982 5.15535ZM12.5737 3.56175V2.89946H9.57367V3.56175H12.5737ZM12.5737 2.89946C12.5737 3.40613 12.1629 3.82422 11.6472 3.82422V0.824219C10.4981 0.824219 9.57367 1.75721 9.57367 2.89946H12.5737ZM11.6472 3.82422C11.132 3.82422 10.7209 3.40638 10.7209 2.89946H13.7209C13.7209 1.75697 12.7963 0.824219 11.6472 0.824219V3.82422ZM10.7209 2.89946V3.57378H13.7209V2.89946H10.7209ZM11.9383 5.04691C12.1742 5.09218 12.2537 5.16173 12.2934 5.20434L14.4872 3.15807C13.9424 2.57398 13.2528 2.2444 12.5036 2.10065L11.9383 5.04691ZM12.2928 5.20366C12.0767 4.97173 11.9947 4.64544 12.0752 4.33916L14.9766 5.10193C15.1577 4.41325 14.9732 3.67976 14.4878 3.15874L12.2928 5.20366ZM12.0754 4.33873C12.1557 4.03342 12.3879 3.78761 12.6935 3.69169L13.5918 6.55406C14.274 6.33995 14.7954 5.79044 14.9765 5.10236L12.0754 4.33873ZM12.6938 3.69161L12.3966 3.78481L13.2944 6.64733L13.5915 6.55413L12.6938 3.69161ZM12.396 3.785C12.7463 3.67496 13.127 3.78182 13.3687 4.0552L11.1213 6.04247C11.6626 6.65455 12.5139 6.89246 13.2949 6.64715L12.396 3.785ZM13.3686 4.05508C12.8601 3.48017 12.1769 3.29404 11.5857 3.29404V6.29404C11.5833 6.29404 11.5215 6.2939 11.4265 6.25717C11.3243 6.21766 11.2137 6.14693 11.1215 6.04259L13.3686 4.05508ZM11.5857 3.29404C11.3981 3.29404 11.001 3.30881 10.5983 3.50107C10.3769 3.60674 10.107 3.78857 9.89421 4.09336C9.67238 4.41105 9.57722 4.77025 9.57722 5.11342H12.5772C12.5772 5.32458 12.5166 5.57786 12.3539 5.81092C12.2002 6.03108 12.0139 6.14956 11.8907 6.20839C11.7717 6.26518 11.6792 6.2826 11.6442 6.28817C11.623 6.29155 11.6077 6.29289 11.5993 6.29346C11.5908 6.29404 11.5862 6.29404 11.5857 6.29404V3.29404ZM9.57722 5.11342C9.57722 5.59806 9.77305 6.04893 10.1089 6.37866L12.2106 4.23793C12.4385 4.46169 12.5772 4.7778 12.5772 5.11342H9.57722ZM10.1105 6.38021C10.3924 6.65615 10.7255 6.77231 10.8235 6.80709C10.9852 6.8645 11.1587 6.90948 11.3226 6.94614L11.9775 4.01851C11.9284 4.00751 11.8909 3.99813 11.8637 3.99069C11.8357 3.98302 11.8248 3.97912 11.8271 3.97993C11.8287 3.9805 11.8364 3.98325 11.8488 3.98849C11.861 3.99358 11.8818 4.00275 11.9089 4.01666C11.9352 4.03022 11.9749 4.05214 12.0223 4.08396C12.0685 4.11493 12.1356 4.1645 12.209 4.23637L10.1105 6.38021ZM11.3286 6.94749C11.9403 7.08167 12.2902 7.18445 12.4385 7.24374L13.5521 4.45808C13.1577 4.30043 12.6004 4.15513 11.9715 4.01717L11.3286 6.94749ZM12.4385 7.24375C12.4374 7.24331 12.4354 7.24239 12.433 7.24097C12.4306 7.23956 12.4292 7.23845 12.4289 7.23825C12.4278 7.23734 12.4372 7.24451 12.4539 7.26841L14.9155 5.5537C14.5789 5.0705 14.1202 4.68517 13.5521 4.45807L12.4385 7.24375ZM12.4545 7.26927C12.4513 7.26474 12.4506 7.26151 12.4518 7.26565C12.4534 7.27095 12.4595 7.29419 12.4595 7.34196H15.4595C15.4595 6.7162 15.2931 6.09493 14.9149 5.55284L12.4545 7.26927ZM12.4595 7.34196C12.4595 7.4082 12.4484 7.43795 12.4442 7.44777C12.4403 7.45699 12.4297 7.47944 12.3914 7.51589L14.4604 9.68833C15.1186 9.06143 15.4595 8.24182 15.4595 7.34196H12.4595ZM12.3914 7.51591C12.3412 7.56373 12.2211 7.64901 11.946 7.70028L12.4958 10.6495C13.2164 10.5151 13.906 10.2163 14.4604 9.68831L12.3914 7.51591ZM10.7209 9.17487V10.1003H13.7209V9.17487H10.7209ZM10.7209 10.1003C10.7209 9.59333 11.132 9.17549 11.6472 9.17549V12.1755C12.7963 12.1755 13.7209 11.2427 13.7209 10.1003H10.7209ZM11.6472 9.17549C12.1629 9.17549 12.5737 9.59358 12.5737 10.1003H9.57367C9.57367 11.2425 10.4981 12.1755 11.6472 12.1755V9.17549ZM12.5737 10.1003V9.20571H9.57367V10.1003H12.5737ZM11.2753 7.71933C10.8986 7.66821 10.7773 7.54244 10.711 7.44158L8.20388 9.08911C8.82892 10.0403 9.79557 10.546 10.872 10.6921L11.2753 7.71933Z" fill="#C4C4C4" mask="url(#path-1-outside-1)"/>
<mask id="path-3-outside-2" maskUnits="userSpaceOnUse" x="0" y="3" width="8" height="10" fill="black">
<rect fill="white" y="3" width="8" height="10"/>
<path d="M3.05329 10.5104C3.30749 10.8361 3.6757 10.9946 4.17905 10.9946C4.25901 10.9946 4.34275 10.9903 4.42871 10.9817C4.02092 10.8445 3.74881 10.6284 3.61996 10.3397C3.48991 10.048 3.51395 9.69851 3.69195 9.30098C3.8846 8.87029 4.16545 8.48313 4.3887 8.19374L4.60155 7.91807L5.63573 8.43371L5.07135 5L2 6.62084L2.95146 7.09545L2.87979 7.41985C2.55687 8.88171 2.61679 9.95036 3.05329 10.5104Z"/>
</mask>
<path d="M3.05329 10.5104L1.87024 11.4325L1.87079 11.4332L3.05329 10.5104ZM2.87979 7.41985L1.41511 7.09629L1.4151 7.09631L2.87979 7.41985ZM2.95146 7.09545L4.41614 7.41902C4.56458 6.74709 4.23679 6.06035 3.62102 5.75319L2.95146 7.09545ZM2 6.62084L1.29991 5.29423C0.802448 5.55676 0.493666 6.07554 0.500098 6.63799C0.50653 7.20044 0.827093 7.71202 1.33043 7.9631L2 6.62084ZM5.07135 5L6.55149 4.75672C6.47325 4.28069 6.17084 3.87135 5.73882 3.65669C5.3068 3.44203 4.79791 3.44824 4.37127 3.6734L5.07135 5ZM5.63573 8.43371L4.96642 9.7761C5.47052 10.0274 6.07293 9.97518 6.52621 9.64079C6.9795 9.3064 7.20723 8.74625 7.11587 8.19042L5.63573 8.43371ZM4.60155 7.91807L5.27086 6.57568C4.62975 6.25602 3.85208 6.43433 3.41427 7.00136L4.60155 7.91807ZM4.3887 8.19374L3.20142 7.27703L3.20107 7.27749L4.3887 8.19374ZM3.69195 9.30098L5.06098 9.91398L5.06121 9.91345L3.69195 9.30098ZM3.61996 10.3397L2.24998 10.9505L2.25018 10.951L3.61996 10.3397ZM4.42871 10.9817L4.57648 12.4744C5.28001 12.4048 5.83941 11.8534 5.91914 11.1509C5.99887 10.4485 5.57729 9.78569 4.90727 9.56013L4.42871 10.9817ZM4.17905 9.49458C4.08262 9.49458 4.07502 9.47929 4.11553 9.49672C4.13594 9.5055 4.16072 9.51934 4.18556 9.53863C4.21024 9.55779 4.2268 9.57597 4.2358 9.5875L1.87079 11.4332C2.47142 12.2028 3.32516 12.4946 4.17905 12.4946V9.49458ZM4.23635 9.5882C4.27687 9.64019 4.19935 9.5747 4.1794 9.21926C4.16036 8.87989 4.20131 8.39154 4.34448 7.7434L1.4151 7.09631C1.23536 7.91002 1.14481 8.68693 1.18412 9.38735C1.22252 10.0717 1.39321 10.8205 1.87024 11.4325L4.23635 9.5882ZM4.34448 7.74342L4.41614 7.41902L1.48677 6.77189L1.41511 7.09629L4.34448 7.74342ZM3.62102 5.75319L2.66957 5.27857L1.33043 7.9631L2.28189 8.43772L3.62102 5.75319ZM2.70009 7.94744L5.77144 6.3266L4.37127 3.6734L1.29991 5.29423L2.70009 7.94744ZM3.59121 5.24328L4.15559 8.67699L7.11587 8.19042L6.55149 4.75672L3.59121 5.24328ZM6.30504 7.09131L5.27086 6.57568L3.93224 9.26047L4.96642 9.7761L6.30504 7.09131ZM3.41427 7.00136L3.20142 7.27703L5.57599 9.11046L5.78883 8.83479L3.41427 7.00136ZM3.20107 7.27749C2.9637 7.58516 2.59127 8.08806 2.32269 8.68851L5.06121 9.91345C5.17793 9.65252 5.36719 9.3811 5.57634 9.11L3.20107 7.27749ZM2.32292 8.68799C2.03638 9.32792 1.89002 10.1432 2.24998 10.9505L4.98994 9.72882C5.0104 9.7747 5.02388 9.82124 5.03114 9.86505C5.03831 9.90831 5.03833 9.94227 5.03686 9.96354C5.0341 10.0034 5.02699 9.98987 5.06098 9.91398L2.32292 8.68799ZM2.25018 10.951C2.60476 11.7455 3.29389 12.1824 3.95015 12.4034L4.90727 9.56013C4.82955 9.53397 4.82315 9.51949 4.85244 9.54274C4.86811 9.55518 4.89207 9.57699 4.91829 9.61003C4.94484 9.64348 4.96969 9.68343 4.98974 9.72836L2.25018 10.951ZM4.28093 9.48904C4.23982 9.49311 4.20556 9.49458 4.17905 9.49458V12.4946C4.31247 12.4946 4.44569 12.4874 4.57648 12.4744L4.28093 9.48904Z" fill="#C4C4C4" mask="url(#path-3-outside-2)"/>
<mask id="path-5-outside-3" maskUnits="userSpaceOnUse" x="15" y="0" width="8" height="10" fill="black">
<rect fill="white" x="15" width="8" height="10"/>
<path d="M19.5822 2.48407C19.3282 2.15833 18.9601 2 18.4566 2C18.3766 2 18.2929 2.00418 18.207 2.01262C18.6148 2.15007 18.8868 2.36596 19.0156 2.65469C19.1458 2.94658 19.1216 3.29589 18.9438 3.69331C18.751 4.12418 18.4701 4.51156 18.2469 4.80065L18.0342 5.07636L17 4.56073L17.5643 7.99469L20.6357 6.37353L19.6841 5.89927L19.7559 5.57455C20.079 4.11273 20.019 3.04407 19.5822 2.48407Z"/>
</mask>
<path d="M19.5822 2.48407L18.3993 3.40646L18.3994 3.40661L19.5822 2.48407ZM19.7559 5.57455L18.2913 5.25082L18.2913 5.25083L19.7559 5.57455ZM19.6841 5.89927L18.2195 5.57555C18.0709 6.24772 18.3989 6.93473 19.0151 7.24179L19.6841 5.89927ZM20.6357 6.37353L21.3359 7.70008C21.8334 7.43747 22.1422 6.91857 22.1356 6.35604C22.1291 5.79351 21.8083 5.28195 21.3048 5.03102L20.6357 6.37353ZM17.5643 7.99469L16.0842 8.23794C16.1624 8.71399 16.4649 9.12336 16.8969 9.33802C17.329 9.55268 17.8379 9.54644 18.2645 9.32124L17.5643 7.99469ZM17 4.56073L17.6693 3.21833C17.1652 2.967 16.5628 3.01925 16.1095 3.35364C15.6563 3.68802 15.4285 4.24816 15.5199 4.80398L17 4.56073ZM18.0342 5.07636L17.3649 6.41876C18.0062 6.73851 18.7841 6.55999 19.2218 5.99261L18.0342 5.07636ZM18.2469 4.80065L17.0597 3.88382L17.0592 3.88441L18.2469 4.80065ZM18.9438 3.69331L20.313 4.30605L20.313 4.30592L18.9438 3.69331ZM19.0156 2.65469L20.3855 2.04365L20.3855 2.04352L19.0156 2.65469ZM18.207 2.01262L18.0604 0.519792C17.3567 0.588864 16.7968 1.14003 16.7166 1.84259C16.6365 2.54514 17.0579 3.20826 17.7279 3.43408L18.207 2.01262ZM18.4566 3.5C18.5534 3.5 18.561 3.51534 18.5203 3.49785C18.4998 3.48903 18.4749 3.4751 18.4499 3.4557C18.4251 3.43641 18.4084 3.4181 18.3993 3.40646L20.7651 1.56168C20.1643 0.791219 19.3101 0.5 18.4566 0.5V3.5ZM18.3994 3.40661C18.3589 3.35463 18.4364 3.42003 18.4564 3.77529C18.4754 4.11453 18.4345 4.60276 18.2913 5.25082L21.2206 5.89827C21.4004 5.08451 21.491 4.30751 21.4516 3.60696C21.4132 2.92244 21.2423 2.17352 20.7649 1.56153L18.3994 3.40661ZM18.2913 5.25083L18.2195 5.57555L21.1488 6.22299L21.2206 5.89827L18.2913 5.25083ZM19.0151 7.24179L19.9667 7.71604L21.3048 5.03102L20.3532 4.55676L19.0151 7.24179ZM19.9355 5.04698L16.8642 6.66814L18.2645 9.32124L21.3359 7.70008L19.9355 5.04698ZM19.0445 7.75144L18.4801 4.31748L15.5199 4.80398L16.0842 8.23794L19.0445 7.75144ZM16.3307 5.90312L17.3649 6.41876L18.7035 3.73397L17.6693 3.21833L16.3307 5.90312ZM19.2218 5.99261L19.4345 5.7169L17.0592 3.88441L16.8465 4.16012L19.2218 5.99261ZM19.4341 5.71749C19.6721 5.40923 20.0443 4.90638 20.313 4.30605L17.5747 3.08057C17.4577 3.34198 17.2682 3.6139 17.0597 3.88382L19.4341 5.71749ZM20.313 4.30592C20.5991 3.66658 20.7458 2.85138 20.3855 2.04365L17.6457 3.26573C17.6253 3.21993 17.6118 3.1734 17.6045 3.12954C17.5974 3.08624 17.5973 3.05224 17.5988 3.03092C17.6016 2.99105 17.6087 3.00457 17.5746 3.08069L20.313 4.30592ZM20.3855 2.04352C20.0309 1.24874 19.3417 0.812128 18.686 0.591159L17.7279 3.43408C17.8061 3.4604 17.8126 3.47496 17.7832 3.4517C17.7676 3.43924 17.7436 3.4174 17.7173 3.3843C17.6907 3.35078 17.6658 3.31079 17.6458 3.26586L20.3855 2.04352ZM18.3535 3.50544C18.3936 3.5015 18.4284 3.5 18.4566 3.5V0.5C18.3248 0.5 18.1922 0.506861 18.0604 0.519792L18.3535 3.50544Z" fill="#C4C4C4" mask="url(#path-5-outside-3)"/>
</svg>
