<svg width="18" height="19" viewBox="0 0 18 19" fill="none" xmlns="http://www.w3.org/2000/svg">
<g clip-path="url(#clip0)">
<path d="M17.9423 8.17116C17.904 8.07965 17.8493 7.9964 17.7795 7.92665L15.5303 5.67738C15.237 5.38488 14.763 5.38488 14.4698 5.67738C14.1765 5.97062 14.1765 6.44537 14.4698 6.73787L15.4395 7.70762H11.25C10.8353 7.70762 10.5 8.04361 10.5 8.45761C10.5 8.87161 10.8353 9.2076 11.25 9.2076H15.4395L14.4697 10.1774C14.1765 10.4706 14.1765 10.9453 14.4697 11.2378C14.616 11.3848 14.808 11.4576 15 11.4576C15.192 11.4576 15.384 11.3849 15.5303 11.2378L17.7795 8.98858C17.8493 8.91957 17.904 8.83632 17.9423 8.74407C18.018 8.56115 18.018 8.35415 17.9423 8.17116Z" fill="black"/>
<path d="M12.7509 10.708C12.3362 10.708 12.001 11.044 12.001 11.458V15.208H9.00097V3.208C9.00097 2.87725 8.78346 2.58475 8.46621 2.48951L5.86145 1.70802H12.001V5.45803C12.001 5.87203 12.3362 6.20802 12.7509 6.20802C13.1657 6.20802 13.5009 5.87203 13.5009 5.45803V0.958031C13.5009 0.543996 13.1657 0.208008 12.7509 0.208008H0.750964C0.723964 0.208008 0.699953 0.219258 0.673726 0.222246C0.638464 0.226008 0.606226 0.231984 0.572476 0.240246C0.493726 0.260496 0.422465 0.291258 0.355738 0.333234C0.33925 0.343746 0.319 0.344484 0.30325 0.356473C0.297203 0.361008 0.294953 0.36927 0.288941 0.37377C0.207203 0.438246 0.138965 0.516996 0.0894648 0.610758C0.0789531 0.631008 0.0767031 0.65277 0.0684765 0.673758C0.0444648 0.730746 0.0182383 0.786258 0.00923828 0.849258C0.00547656 0.871758 0.0122266 0.892746 0.0114883 0.914508C0.01075 0.92952 0.000976562 0.94302 0.000976562 0.957996V15.958C0.000976562 16.3158 0.253715 16.6233 0.603976 16.693L8.10396 18.193C8.15272 18.2035 8.20222 18.208 8.25095 18.208C8.42269 18.208 8.59144 18.1488 8.72644 18.0378C8.89969 17.8953 9.00094 17.683 9.00094 17.458V16.708H12.7509C13.1657 16.708 13.5009 16.372 13.5009 15.958V11.458C13.5009 11.044 13.1657 10.708 12.7509 10.708Z" fill="black"/>
</g>
<defs>
<clipPath id="clip0">
<rect width="18" height="18" fill="white" transform="translate(0 0.208008)"/>
</clipPath>
</defs>
</svg>
