<svg width="25" height="25" viewBox="0 0 25 25" fill="none" xmlns="http://www.w3.org/2000/svg">
<g clip-path="url(#clip0)">
<path d="M9.50017 24.8181L3.25017 17.5264C3.11794 17.3728 3.08791 17.1562 3.17234 16.97C3.2573 16.7854 3.44192 16.6668 3.64539 16.6668L7.29837 16.6668C7.46013 10.8471 10.3409 8.0395 12.7686 6.70488C14.8789 5.54419 16.9683 5.28379 17.8259 5.22529C17.9572 5.21411 18.0909 5.2085 18.2272 5.2085L18.2287 5.2085C18.2287 5.2085 18.2292 5.2085 18.2298 5.2085L18.2303 5.2085C18.2307 5.2085 18.2307 5.2085 18.2307 5.2085L18.2323 5.2085L18.2327 5.2085C18.2327 5.2085 18.2332 5.2085 18.2338 5.2085L18.2343 5.2085C18.2347 5.2085 18.2353 5.2085 18.2353 5.2085C18.2358 5.2085 18.2358 5.2085 18.2358 5.2085L18.2373 5.2085C18.2378 5.2085 18.2383 5.2085 18.2388 5.2085C18.2388 5.2085 18.2393 5.2085 18.2403 5.2085L18.2408 5.2085L18.2418 5.2085L18.2423 5.2085C18.2428 5.2085 18.2433 5.2085 18.2438 5.2085L18.2453 5.20899C18.2453 5.20899 18.2453 5.20899 18.2458 5.20899C18.2469 5.20899 18.2473 5.20899 18.2473 5.20899C18.2478 5.20899 18.2484 5.20899 18.2489 5.20899L18.2504 5.20899L18.2519 5.20899L18.2524 5.20899L18.2539 5.20899C18.2544 5.20899 18.2549 5.20899 18.2554 5.20899C18.2554 5.20899 18.2564 5.20898 18.2569 5.20947C18.2569 5.20947 18.2574 5.20947 18.2584 5.20947L18.2589 5.20947C18.2594 5.20947 18.2599 5.20947 18.2604 5.20947L18.2619 5.20947C18.2624 5.20947 18.263 5.20947 18.2635 5.20947C18.265 5.20898 18.2655 5.2105 18.2655 5.20996L18.267 5.20996C18.2675 5.20996 18.2681 5.20996 18.2685 5.20996L18.2701 5.20996C18.2711 5.20996 18.2721 5.21045 18.2721 5.21045L18.2736 5.21045C18.2741 5.21045 18.2746 5.21045 18.2751 5.21045L18.2756 5.21045L18.2766 5.21045L18.2771 5.21045L18.2782 5.21094L18.2786 5.21094C18.2791 5.21094 18.2797 5.21094 18.2797 5.21094C18.2802 5.21094 18.2802 5.21094 18.2802 5.21094L18.2817 5.21094L18.2822 5.21094C18.2826 5.21143 18.2826 5.21143 18.2832 5.21143C18.2832 5.21143 18.2837 5.21143 18.2842 5.21143L18.2847 5.21143C18.2852 5.21143 18.2852 5.21143 18.2852 5.21143L18.2862 5.21143C18.2877 5.21191 18.2877 5.21191 18.2877 5.21191C18.2882 5.21191 18.2888 5.21191 18.2892 5.21191L18.2897 5.21191L18.2908 5.21191L18.2912 5.21191C18.2917 5.2124 18.2923 5.2124 18.2923 5.2124C18.2933 5.2124 18.2938 5.2124 18.2938 5.2124C18.5506 5.24497 18.749 5.46416 18.749 5.72915C18.749 6.0165 18.5166 6.24946 18.2292 6.25L18.2287 6.25C18.2022 6.25 18.1376 6.25049 18.039 6.25508C13.708 6.48242 12.7254 14.4836 12.5377 16.6666L16.1449 16.6666C16.3483 16.6666 16.5329 16.7852 16.6179 16.9698C16.7023 17.1554 16.6728 17.3716 16.5401 17.5262L10.2901 24.8179C10.1914 24.9333 10.047 25 9.89485 25C9.74329 25.0001 9.59885 24.9335 9.50017 24.8181Z" fill="#9BD6AE"/>
<path d="M14.8446 21.5719C14.7592 21.3862 14.7892 21.1701 14.9225 21.0149L15.8156 19.9733C15.9143 19.8583 16.0587 19.7917 16.2108 19.7917L19.7911 19.7917L19.7911 2.08335L9.37432 2.08335L9.37432 7.90405C9.37432 8.03017 9.32852 8.15176 9.24565 8.24634C8.88452 8.66035 8.54985 9.10796 8.25078 9.57641C8.12666 9.77173 7.88813 9.86123 7.66587 9.79663C7.4436 9.73203 7.29102 9.52807 7.29102 9.29663L7.29102 2.08335C7.29102 0.934326 8.22534 4.08407e-08 9.37432 9.1064e-08L19.791 5.4639e-07C20.9399 5.96614e-07 21.8743 0.934327 21.8743 2.08335L21.8743 19.7917C21.8743 20.9407 20.94 21.875 19.791 21.875L15.3176 21.875C15.1142 21.875 14.9295 21.7565 14.8446 21.5719Z" fill="#9BD6AE"/>
</g>
<defs>
<clipPath id="clip0">
<rect width="25" height="25" fill="white" transform="matrix(-4.37114e-08 1 1 4.37114e-08 0 0)"/>
</clipPath>
</defs>
</svg>
