<svg width="24" height="24" viewBox="0 0 24 24" fill="none" xmlns="http://www.w3.org/2000/svg">
<path d="M16.1777 1.88142L15.237 0H8.76393L7.82324 1.88142H16.1777Z" fill="#D83232"/>
<path d="M2.29102 4.75985V5.6951H21.7101V4.75985C21.7101 4.05405 21.23 3.46057 20.5787 3.2876H3.42244C2.77111 3.46057 2.29102 4.05405 2.29102 4.75985Z" fill="#D83232"/>
<path d="M20.2885 9.77354H19.7873L20.034 7.10156H3.96742L4.21413 9.77354H3.71289C2.48519 9.77354 1.48633 10.7724 1.48633 12.0001C1.48633 13.2278 2.48519 14.2267 3.71289 14.2267H4.62527L5.52766 24.0001H18.4737L19.3761 14.2267H20.2885C21.5162 14.2267 22.5151 13.2278 22.5151 12.0001C22.5151 10.7724 21.5162 9.77354 20.2885 9.77354ZM3.71289 12.8204C3.26059 12.8204 2.89258 12.4524 2.89258 12.0001C2.89258 11.5478 3.26059 11.1798 3.71289 11.1798H4.34392L4.49542 12.8204H3.71289ZM9.46731 20.8383H8.06106V9.63493H9.46731V20.8383ZM12.7038 20.8383H11.2975V9.63493H12.7038V20.8383ZM15.9403 20.8383H14.534V9.63493H15.9403V20.8383ZM20.2885 12.8204H19.5059L19.6574 11.1798H20.2885C20.7407 11.1798 21.1088 11.5478 21.1088 12.0001C21.1088 12.4524 20.7407 12.8204 20.2885 12.8204Z" fill="#D83232"/>
</svg>
