<svg width="20" height="16" viewBox="0 0 20 16" fill="none" xmlns="http://www.w3.org/2000/svg">
<path d="M6.68421 7H4C2.34315 7 1 8.34315 1 10V12C1 13.6569 2.34315 15 4 15H16C17.6569 15 19 13.6569 19 12V10C19 8.34315 17.6569 7 16 7H13.3158" stroke="black" stroke-linecap="round" stroke-linejoin="round"/>
<path d="M10.5 1C10.5 0.723858 10.2761 0.5 10 0.5C9.72386 0.5 9.5 0.723858 9.5 1L10.5 1ZM9.64645 13.3536C9.84171 13.5488 10.1583 13.5488 10.3536 13.3536L13.5355 10.1716C13.7308 9.97631 13.7308 9.65973 13.5355 9.46447C13.3403 9.2692 13.0237 9.2692 12.8284 9.46447L10 12.2929L7.17157 9.46447C6.97631 9.2692 6.65973 9.2692 6.46447 9.46447C6.2692 9.65973 6.2692 9.97631 6.46447 10.1716L9.64645 13.3536ZM9.5 1L9.5 13L10.5 13L10.5 1L9.5 1Z" fill="black"/>
</svg>
