<svg width="27" height="27" viewBox="0 0 27 27" fill="none" xmlns="http://www.w3.org/2000/svg">
<path d="M9.86518 7.00049H9.83303C4.41013 7.00049 0 11.4106 0 16.8335C0 19.0466 0.755562 21.1954 2.13808 22.9262L0.707335 26.2539C0.589446 26.5272 0.718052 26.8434 0.985982 26.9559C1.08244 26.9988 1.18961 27.0095 1.29142 26.9934M9.86518 7.00049L9.86468 7.50049C9.86476 7.50049 9.86484 7.50049 9.86492 7.50049M9.86518 7.00049C15.272 7.00585 19.65 11.3999 19.6393 16.8067L6.53749 26.0717L1.29142 26.9934M9.86518 7.00049V7.50049H9.86515H9.86512H9.86508H9.86505H9.86502H9.86499H9.86495H9.86492M9.86492 7.50049H9.86489H9.86486H9.86483H9.86479H9.86476H9.86473H9.86469H9.86466H9.86463H9.86459H9.86456H9.86453H9.86449H9.86446H9.86442H9.86439H9.86436H9.86432H9.86429H9.86425H9.86422H9.86418H9.86415H9.86411H9.86407H9.86404H9.864H9.86397H9.86393H9.8639H9.86386H9.86382H9.86379H9.86375H9.86371H9.86368H9.86364H9.8636H9.86357H9.86353H9.86349H9.86345H9.86342H9.86338H9.86334H9.8633H9.86327H9.86323H9.86319H9.86315H9.86311H9.86307H9.86303H9.863H9.86296H9.86292H9.86288H9.86284H9.8628H9.86276H9.86272H9.86268H9.86264H9.8626H9.86256H9.86252H9.86248H9.86244H9.8624H9.86236H9.86232H9.86227H9.86223H9.86219H9.86215H9.86211H9.86207H9.86202H9.86198H9.86194H9.8619H9.86186H9.86181H9.86177H9.86173H9.86168H9.86164H9.8616H9.86156H9.86151H9.86147H9.86142H9.86138H9.86134H9.86129H9.86125H9.86121H9.86116H9.86112H9.86107H9.86103H9.86098H9.86094H9.86089H9.86085H9.8608H9.86076H9.86071H9.86067H9.86062H9.86057H9.86053H9.86048H9.86043H9.86039H9.86034H9.8603H9.86025H9.8602H9.86015H9.86011H9.86006H9.86001H9.85996H9.85992H9.85987H9.85982H9.85977H9.85972H9.85968H9.85963H9.85958H9.85953H9.85948H9.85943H9.85938H9.85934H9.85929H9.85924H9.85919H9.85914H9.85909H9.85904H9.85899H9.85894H9.85889H9.85884H9.85879H9.85874H9.85869H9.85863H9.85858H9.85853H9.85848H9.85843H9.85838H9.85833H9.85828H9.85822H9.85817H9.85812H9.85807H9.85802H9.85796H9.85791H9.85786H9.85781H9.85775H9.8577H9.85765H9.85759H9.85754H9.85749H9.85743H9.85738H9.85732H9.85727H9.85722H9.85716H9.85711H9.85705H9.857H9.85694H9.85689H9.85683H9.85678H9.85672H9.85667H9.85661H9.85656H9.8565H9.85645H9.85639H9.85633H9.85628H9.85622H9.85616H9.85611H9.85605H9.85599H9.85594H9.85588H9.85582H9.85577H9.85571H9.85565H9.85559H9.85553H9.85548H9.85542H9.85536H9.8553H9.85524H9.85518H9.85513H9.85507H9.85501H9.85495H9.85489H9.85483H9.85477H9.85471H9.85465H9.85459H9.85453H9.85447H9.85441H9.85435H9.85429H9.85423H9.85417H9.85411H9.85405H9.85399H9.85393H9.85387H9.8538H9.85374H9.85368H9.85362H9.85356H9.8535H9.85343H9.85337H9.85331H9.85325H9.85318H9.85312H9.85306H9.85299H9.85293H9.85287H9.85281H9.85274H9.85268H9.85261H9.85255H9.85249H9.85242H9.85236H9.85229H9.85223H9.85217H9.8521H9.85204H9.85197H9.85191H9.85184H9.85178H9.85171H9.85164H9.85158H9.85151H9.85145H9.85138H9.85131H9.85125H9.85118H9.85112H9.85105H9.85098H9.85091H9.85085H9.85078H9.85071H9.85065H9.85058H9.85051H9.85044H9.85038H9.85031H9.85024H9.85017H9.8501H9.85003H9.84997H9.8499H9.84983H9.84976H9.84969H9.84962H9.84955H9.84948H9.84941H9.84934H9.84927H9.8492H9.84913H9.84906H9.84899H9.84892H9.84885H9.84878H9.84871H9.84864H9.84857H9.8485H9.84842H9.84835H9.84828H9.84821H9.84814H9.84807H9.84799H9.84792H9.84785H9.84778H9.8477H9.84763H9.84756H9.84749H9.84741H9.84734H9.84727H9.84719H9.84712H9.84705H9.84697H9.8469H9.84682H9.84675H9.84668H9.8466H9.84653H9.84645H9.84638H9.8463H9.84623H9.84615H9.84608H9.846H9.84593H9.84585H9.84577H9.8457H9.84562H9.84555H9.84547H9.84539H9.84532H9.84524H9.84516H9.84509H9.84501H9.84493H9.84486H9.84478H9.8447H9.84462H9.84455H9.84447H9.84439H9.84431H9.84423H9.84416H9.84408H9.844H9.84392H9.84384H9.84376H9.84368H9.84361H9.84352H9.84345H9.84337H9.84329H9.84321H9.84313H9.84305H9.84297H9.84289H9.84281H9.84273H9.84264H9.84256H9.84248H9.8424H9.84232H9.84224H9.84216H9.84208H9.842H9.84191H9.84183H9.84175H9.84167H9.84159H9.8415H9.84142H9.84134H9.84126H9.84117H9.84109H9.84101H9.84092H9.84084H9.84076H9.84067H9.84059H9.84051H9.84042H9.84034H9.84025H9.84017H9.84008H9.84H9.83992H9.83983H9.83975H9.83966H9.83957H9.83949H9.8394H9.83932H9.83923H9.83915H9.83906H9.83898H9.83889H9.8388H9.83872H9.83863H9.83854H9.83846H9.83837H9.83828H9.8382H9.83811H9.83802H9.83793H9.83785H9.83776H9.83767H9.83758H9.83749H9.83741H9.83732H9.83723H9.83714H9.83705H9.83696H9.83687H9.83678H9.8367H9.83661H9.83652H9.83643H9.83634H9.83625H9.83616H9.83607H9.83598H9.83589H9.8358H9.83571H9.83562H9.83552H9.83543H9.83534H9.83525H9.83516H9.83507H9.83498H9.83489H9.83479H9.8347H9.83461H9.83452H9.83442H9.83433H9.83424H9.83415H9.83405H9.83396H9.83387H9.83378H9.83368H9.83359H9.8335H9.8334H9.83331H9.83321H9.83312H9.83303C4.68627 7.50049 0.5 11.6868 0.5 16.8335C0.5 18.9327 1.21672 20.9716 2.52875 22.6142L2.71581 22.8484L2.59742 23.1237L1.16668 26.4514L1.16644 26.452C1.16261 26.4608 1.16239 26.4699 1.16621 26.4795C1.1702 26.4895 1.17584 26.4933 1.1796 26.4949L1.1891 26.4989L1.18905 26.499C1.18854 26.4987 1.19023 26.4996 1.19474 26.5001C1.19889 26.5006 1.20449 26.5007 1.21106 26.4999M9.86492 7.50049C14.9951 7.5057 19.1494 11.6751 19.1393 16.8057V16.8067C19.1393 21.9535 14.953 26.1397 9.80623 26.1397L9.80383 26.1397C8.74874 26.1448 7.7033 25.9622 6.70778 25.6016L6.58236 25.5562L6.45097 25.5793L1.21106 26.4999M1.21106 26.4999L1.2049 26.5009L1.29142 26.9934M1.21106 26.4999C1.21184 26.4998 1.21263 26.4996 1.21344 26.4995L1.29142 26.9934" stroke="#9BD6AE"/>
<path d="M24.4772 12.8795L24.3588 12.6041L24.5459 12.3699C25.5763 11.0799 26.1392 9.47869 26.1392 7.83023C26.1392 3.78801 22.8511 0.5 18.8089 0.5H18.8088H18.8088H18.8087H18.8086H18.8085H18.8085H18.8084H18.8083H18.8082H18.8082H18.8081H18.808H18.808H18.8079H18.8078H18.8077H18.8077H18.8076H18.8075H18.8074H18.8074H18.8073H18.8072H18.8071H18.8071H18.807H18.8069H18.8069H18.8068H18.8067H18.8066H18.8066H18.8065H18.8064H18.8064H18.8063H18.8062H18.8061H18.8061H18.806H18.8059H18.8059H18.8058H18.8057H18.8056H18.8056H18.8055H18.8054H18.8054H18.8053H18.8052H18.8052H18.8051H18.805H18.8049H18.8049H18.8048H18.8047H18.8047H18.8046H18.8045H18.8045H18.8044H18.8043H18.8043H18.8042H18.8041H18.804H18.804H18.8039H18.8038H18.8038H18.8037H18.8036H18.8036H18.8035H18.8034H18.8034H18.8033H18.8032H18.8032H18.8031H18.803H18.803H18.8029H18.8028H18.8028H18.8027H18.8026H18.8026H18.8025H18.8024H18.8024H18.8023H18.8022H18.8022H18.8021H18.802H18.802H18.8019H18.8018H18.8018H18.8017H18.8016H18.8016H18.8015H18.8015H18.8014H18.8013H18.8013H18.8012H18.8011H18.8011H18.801H18.8009H18.8009H18.8008H18.8007H18.8007H18.8006H18.8006H18.8005H18.8004H18.8004H18.8003H18.8002H18.8002H18.8001H18.8001H18.8H18.7999H18.7999H18.7998H18.7997H18.7997H18.7996H18.7996H18.7995H18.7994H18.7994H18.7993H18.7993H18.7992H18.7991H18.7991H18.799H18.7989H18.7989H18.7988H18.7988H18.7987H18.7986H18.7986H18.7985H18.7985H18.7984H18.7983H18.7983H18.7982H18.7982H18.7981H18.7981H18.798H18.7979H18.7979H18.7978H18.7978H18.7977H18.7976H18.7976H18.7975H18.7975H18.7974H18.7973H18.7973H18.7972H18.7972H18.7971H18.7971H18.797H18.7969H18.7969H18.7968H18.7968H18.7967H18.7967H18.7966H18.7965H18.7965H18.7964H18.7964H18.7963H18.7963H18.7962H18.7962H18.7961H18.796H18.796H18.7959H18.7959H18.7958H18.7958H18.7957H18.7957H18.7956H18.7955H18.7955H18.7954H18.7954H18.7953H18.7953H18.7952H18.7952H18.7951H18.7951H18.795H18.7949H18.7949H18.7948H18.7948H18.7947H18.7947H18.7946H18.7946H18.7945H18.7945H18.7944H18.7944H18.7943H18.7943H18.7942H18.7941H18.7941H18.794H18.794H18.7939H18.7939H18.7938H18.7938H18.7937H18.7937H18.7936H18.7936H18.7935H18.7935H18.7934H18.7934H18.7933H18.7933H18.7932H18.7932H18.7931H18.7931H18.793H18.793H18.7929H18.7929H18.7928H18.7928H18.7927H18.7927H18.7926H18.7926H18.7925H18.7925H18.7924H18.7924H18.7923H18.7923H18.7922H18.7922H18.7921H18.7921H18.792H18.792H18.7919H18.7919H18.7918H18.7918H18.7917H18.7917H18.7917H18.7916H18.7916H18.7915H18.7915H18.7914H18.7914H18.7913H18.7913H18.7912H18.7912H18.7911H18.7911H18.791H18.791H18.7909H18.7909H18.7909H18.7908H18.7908H18.7907H18.7907H18.7906H18.7906H18.7905H18.7905H18.7904H18.7904H18.7904H18.7903H18.7903H18.7902H18.7902H18.7901H18.7901H18.79H18.79H18.79H18.7899H18.7899H18.7898H18.7898H18.7897H18.7897H18.7897H18.7896H18.7896H18.7895H18.7895H18.7894H18.7894H18.7894H18.7893H18.7893H18.7892H18.7892H18.7891H18.7891H18.7891H18.789H18.789H18.7889H18.7889H18.7889H18.7888H18.7888H18.7887H18.7887H18.7886H18.7886H18.7886H18.7885H18.7885H18.7884H18.7884H18.7884H18.7883H18.7883H18.7882H18.7882H18.7882H18.7881H18.7881H18.788H18.788H18.788H18.7879H18.7879H18.7879H18.7878H18.7878H18.7877H18.7877H18.7877H18.7876H18.7876H18.7875H18.7875H18.7875H18.7874H18.7874H18.7874H18.7873H18.7873H18.7872H18.7872H18.7872H18.7871H18.7871H18.7871H18.787H18.787H18.7869H18.7869H18.7869H18.7868H18.7868H18.7868H18.7867H18.7867H18.7867H18.7866H18.7866H18.7866H18.7865H18.7865H18.7864H18.7864H18.7864H18.7863H18.7863H18.7863H18.7862H18.7862H18.7862H18.7861H18.7861H18.7861H18.786H18.786H18.786H18.7859H18.7859H18.7859H18.7858H18.7858H18.7858H18.7857H18.7857H18.7857H18.7856H18.7856H18.7856H18.7855H18.7855H18.7855H18.7854H18.7854H18.7854H18.7853H18.7853H18.7853H18.7852H18.7852H18.7852H18.7851H18.7851H18.7851H18.7851H18.785H18.785H18.785H18.7849H18.7849H18.7849H18.7848H18.7848H18.7848H18.7847H18.7847H18.7847H18.7847H18.7846H18.7846H18.7846H18.7845H18.7845H18.7845H18.7845H18.7844H18.7844H18.7844H18.7843H18.7843H18.7843H18.7843H18.7842H18.7842H18.7842H18.7841H18.7841H18.7841H18.7841H18.784H18.784H18.784H18.7839H18.7839H18.7839H18.7839H18.7838H18.7838H18.7838H18.7838H18.7837H18.7837H18.7837H18.7836H18.7836H18.7836H18.7836C14.7547 0.504121 11.492 3.77856 11.5 7.8079V7.8089C11.5 11.8511 14.788 15.1391 18.8303 15.1391L18.8327 15.1391C19.6607 15.1431 20.4813 14.9998 21.2629 14.7167L21.3884 14.6713L21.5197 14.6944L25.5629 15.4047L24.4772 12.8795Z" fill="#1B1B1B" stroke="#9BD6AE"/>
<line x1="6.5" y1="15.5005" x2="10.5" y2="15.5005" stroke="#9BD6AE" stroke-linecap="round"/>
<line x1="6.5" y1="17.5005" x2="13.5" y2="17.5005" stroke="#9BD6AE" stroke-linecap="round"/>
</svg>
