<svg width="21" height="22" viewBox="0 0 21 22" fill="none" xmlns="http://www.w3.org/2000/svg">
<g clip-path="url(#clip0)">
<path d="M10.5 21.208C11.8591 21.208 12.9609 20.1062 12.9609 18.7471C12.9609 17.3879 11.8591 16.2861 10.5 16.2861C9.14086 16.2861 8.03906 17.3879 8.03906 18.7471C8.03906 20.1062 9.14086 21.208 10.5 21.208Z" fill="#9BD6AE"/>
<path d="M10.5 0.208008C6.97188 0.208008 4.10156 3.07832 4.10156 6.60645V7.22168H9.02344V6.60645C9.02344 5.79224 9.6858 5.12988 10.5 5.12988C11.3142 5.12988 11.9766 5.79224 11.9766 6.60645C11.9766 7.04031 11.7861 7.45096 11.454 7.73319L8.03906 10.6366V15.0557H12.9609V12.9123L14.6416 11.4834C16.0758 10.2647 16.8984 8.48713 16.8984 6.60645C16.8984 3.07832 14.0281 0.208008 10.5 0.208008V0.208008Z" fill="#9BD6AE"/>
</g>
<defs>
<clipPath id="clip0">
<rect width="21" height="21" fill="white" transform="translate(0 0.208008)"/>
</clipPath>
</defs>
</svg>
