<svg width="23" height="23" viewBox="0 0 23 23" fill="none" xmlns="http://www.w3.org/2000/svg">
<g clip-path="url(#clip0)">
<path d="M3.35891 13.2868L3.35892 13.2868C4.2585 12.3872 5.30373 11.689 6.44067 11.213C7.51965 11.8826 8.79207 12.2697 10.1523 12.2697C10.8151 12.2697 11.457 12.1775 12.0657 12.0055C11.8122 12.7035 11.6738 13.4563 11.6738 14.2404C11.6738 17.8605 14.6182 20.8049 18.2383 20.8049C18.7616 20.8049 19.2711 20.7431 19.7598 20.6265V22.3264C19.7598 22.4224 19.6819 22.5002 19.5859 22.5002H0.71875C0.622759 22.5002 0.544922 22.4224 0.544922 22.3264V20.0802C0.544922 17.513 1.54359 15.102 3.35891 13.2868Z" stroke="#9BD6AE"/>
<path d="M14.5 14.5C14.5 12.2948 16.2948 10.5 18.5 10.5C20.7052 10.5 22.5 12.2948 22.5 14.5C22.5 16.7052 20.7052 18.5 18.5 18.5C16.2948 18.5 14.5 16.7052 14.5 14.5Z" stroke="#9BD6AE"/>
<line x1="16.5" y1="14.5" x2="20.5" y2="14.5" stroke="#9BD6AE" stroke-linecap="round"/>
<line x1="18.5" y1="12.5" x2="18.5" y2="16.5" stroke="#9BD6AE" stroke-linecap="round"/>
<path d="M10.1523 9.92188C7.55515 9.92188 5.44141 7.80813 5.44141 5.21094C5.44141 2.61374 7.55515 0.5 10.1523 0.5C12.7495 0.5 14.8633 2.61374 14.8633 5.21094C14.8633 7.80813 12.7495 9.92188 10.1523 9.92188Z" stroke="#9BD6AE"/>
</g>
<defs>
<clipPath id="clip0">
<rect width="23" height="23" fill="white"/>
</clipPath>
</defs>
</svg>
