<svg width="33" height="23" viewBox="0 0 33 23" fill="none" xmlns="http://www.w3.org/2000/svg">
<g clip-path="url(#clip0)">
<path d="M27.6965 9.96801L27.6964 9.96801C27.486 9.97014 27.3139 9.80148 27.3118 9.59094C27.3096 9.38046 27.4783 9.20834 27.6888 9.20623L29.8977 9.18405C30.1082 9.18194 30.2803 9.35063 30.2824 9.56112C30.2845 9.77161 30.1158 9.94372 29.9053 9.94584L27.6965 9.96801Z" stroke="#9BD6AE" stroke-width="0.8"/>
<path d="M26.8881 12.6395L28.0036 13.7328C28.1542 13.8803 28.1566 14.1211 28.0091 14.2716C27.8615 14.4221 27.6208 14.4245 27.4703 14.277L26.3548 13.1837C26.2042 13.0361 26.2018 12.7954 26.3493 12.6449C26.4969 12.4944 26.7376 12.4919 26.8881 12.6395Z" stroke="#9BD6AE" stroke-width="0.8"/>
<path d="M27.3762 4.90269C27.5237 4.75217 27.7645 4.74975 27.915 4.89728C28.0655 5.04481 28.0679 5.28553 27.9204 5.43606L26.827 6.55158C26.6795 6.7021 26.4388 6.70452 26.2883 6.55698C26.1377 6.40945 26.1353 6.16873 26.2829 6.01821L27.3762 4.90269Z" stroke="#9BD6AE" stroke-width="0.8"/>
<path d="M9.7091 18.5602L9.30275 18.5643L9.31325 18.9705L9.34314 20.1275C9.34794 20.7671 8.83233 21.2921 8.19247 21.2985L8.19246 21.2985C7.55046 21.305 7.02462 20.7853 7.01907 20.1501L7.01912 20.1501L7.01895 20.1432L6.90222 15.617L9.22581 15.5936L9.27275 17.4091L9.28293 17.8027L9.67664 17.7987L11.2038 17.7834L11.2049 17.7834C11.8591 17.7751 12.3801 17.2417 12.3723 16.591C12.3723 16.5907 12.3723 16.5905 12.3723 16.5902L12.364 15.6999C12.6202 15.7267 12.8744 15.7598 13.127 15.8001L13.1346 16.583L13.1346 16.5834C13.1462 17.6544 12.2875 18.5344 11.2115 18.5451L11.2115 18.5451L9.7091 18.5602Z" stroke="#9BD6AE" stroke-width="0.8"/>
<path d="M4.84046 6.26503C4.84047 6.26503 4.84048 6.26503 4.8405 6.26503L9.90713 6.21468L9.97753 13.2239L4.91088 13.2748C4.91087 13.2748 4.91087 13.2748 4.91087 13.2748C3.83519 13.2856 2.95897 12.4227 2.94821 11.3512L2.91686 8.22769C2.90606 7.15201 3.76896 6.27581 4.84046 6.26503ZM5.25658 9.76669C5.26313 10.419 5.79699 10.9422 6.44928 10.9357L8.01102 10.92C8.66332 10.9135 9.18657 10.3796 9.18002 9.7273C9.17347 9.07501 8.63961 8.55176 7.98731 8.5583L6.42557 8.57398C5.77328 8.58053 5.25003 9.11439 5.25658 9.76669Z" stroke="#9BD6AE" stroke-width="0.8"/>
<path d="M19.696 3.45709L19.8198 15.7337C17.567 14.3394 14.9481 13.5607 12.3405 13.3294L12.2675 6.06151C14.8742 5.77368 17.4754 4.89806 19.696 3.45709Z" stroke="#9BD6AE" stroke-width="0.8"/>
<path d="M24.5173 16.9002L24.5173 16.9003C24.5238 17.5431 24.0101 18.0672 23.3672 18.0737C22.7266 18.0801 22.2002 17.5641 22.1938 16.9236L22.1938 16.9236L22.0457 2.21944C22.0396 1.57925 22.5557 1.05222 23.1968 1.04469C23.8323 1.03938 24.3634 1.55296 24.3708 2.19671C24.3708 2.19677 24.3708 2.19683 24.3708 2.19689L24.5173 16.9002Z" stroke="#9BD6AE" stroke-width="0.8"/>
</g>
<defs>
<clipPath id="clip0">
<rect width="33.0001" height="22.6656" fill="white"/>
</clipPath>
</defs>
</svg>
