<svg width="25" height="26" viewBox="0 0 25 26" fill="none" xmlns="http://www.w3.org/2000/svg">
<g clip-path="url(#clip0)">
<path d="M15.4998 0.389942L21.7498 7.68159C21.8821 7.83521 21.9121 8.05186 21.8277 8.23804C21.7427 8.42266 21.5581 8.54116 21.3546 8.54116L17.7016 8.54116C17.5399 14.3609 14.6591 17.1685 12.2314 18.5031C10.1211 19.6638 8.03166 19.9242 7.17409 19.9827C7.04284 19.9939 6.9091 19.9995 6.77277 19.9995L6.77126 19.9995C6.77126 19.9995 6.77077 19.9995 6.77023 19.9995L6.76974 19.9995C6.76926 19.9995 6.76926 19.9995 6.76926 19.9995L6.76774 19.9995L6.76725 19.9995C6.76725 19.9995 6.76676 19.9995 6.76623 19.9995L6.76574 19.9995C6.76525 19.9995 6.76471 19.9995 6.76471 19.9995C6.76423 19.9995 6.76423 19.9995 6.76423 19.9995L6.76271 19.9995C6.76222 19.9995 6.76169 19.9995 6.7612 19.9995C6.7612 19.9995 6.76071 19.9995 6.75968 19.9995L6.7592 19.9995L6.75817 19.9995L6.75768 19.9995C6.75719 19.9995 6.75666 19.9995 6.75617 19.9995L6.75465 19.999C6.75465 19.999 6.75466 19.999 6.75417 19.999C6.75314 19.999 6.75265 19.999 6.75265 19.999C6.75217 19.999 6.75163 19.999 6.75114 19.999L6.74963 19.999L6.74811 19.999L6.74762 19.999L6.74611 19.999C6.74562 19.999 6.74508 19.999 6.7446 19.999C6.7446 19.999 6.74357 19.999 6.74308 19.9985C6.74308 19.9985 6.74259 19.9985 6.74157 19.9985L6.74108 19.9985C6.74059 19.9985 6.74006 19.9985 6.73957 19.9985L6.73805 19.9985C6.73757 19.9985 6.73703 19.9985 6.73654 19.9985C6.73503 19.999 6.73449 19.9975 6.73449 19.998L6.73298 19.998C6.73249 19.998 6.73195 19.998 6.73146 19.998L6.72995 19.998C6.72892 19.998 6.7279 19.9976 6.7279 19.9976L6.72639 19.9976C6.7259 19.9976 6.72536 19.9976 6.72487 19.9976L6.72438 19.9976L6.72336 19.9976L6.72287 19.9976L6.72184 19.9971L6.72135 19.9971C6.72087 19.9971 6.72033 19.9971 6.72033 19.9971C6.71984 19.9971 6.71984 19.9971 6.71984 19.9971L6.71833 19.9971L6.71784 19.9971C6.71735 19.9966 6.71735 19.9966 6.71681 19.9966C6.71681 19.9966 6.71633 19.9966 6.71579 19.9966L6.7153 19.9966C6.71481 19.9966 6.71481 19.9966 6.71481 19.9966L6.71379 19.9966C6.71227 19.9961 6.71227 19.9961 6.71227 19.9961C6.71179 19.9961 6.71125 19.9961 6.71076 19.9961L6.71027 19.9961L6.70925 19.9961L6.70876 19.9961C6.70827 19.9956 6.70773 19.9956 6.70773 19.9956C6.70671 19.9956 6.70622 19.9956 6.70622 19.9956C6.44938 19.963 6.25099 19.7438 6.25099 19.4789C6.25099 19.1915 6.48341 18.9585 6.77082 18.958L6.77131 18.958C6.79777 18.958 6.86237 18.9575 6.961 18.9529C11.292 18.7256 12.2746 10.7244 12.4623 8.54136L8.85515 8.54136C8.65168 8.54136 8.46706 8.42285 8.3821 8.23823C8.29767 8.05259 8.32717 7.83643 8.45993 7.68179L14.7099 0.390138C14.8086 0.27466 14.953 0.208057 15.1051 0.208057C15.2567 0.207863 15.4011 0.274513 15.4998 0.389942Z" fill="white"/>
<path d="M10.1549 3.63614C10.2403 3.82178 10.2103 4.03794 10.077 4.19307L9.18388 5.23472C9.0852 5.34966 8.94077 5.41631 8.78867 5.41631L5.20845 5.41631L5.20844 23.1247L15.6252 23.1247L15.6252 17.304C15.6252 17.1778 15.671 17.0563 15.7539 16.9617C16.115 16.5477 16.4497 16.1001 16.7487 15.6316C16.8729 15.4363 17.1114 15.3468 17.3336 15.4114C17.5559 15.476 17.7085 15.6799 17.7085 15.9114L17.7085 23.1247C17.7085 24.2737 16.7742 25.208 15.6252 25.208L5.20854 25.208C4.05957 25.208 3.12519 24.2737 3.12519 23.1247L3.12519 5.41631C3.12519 4.26734 4.05952 3.33296 5.20854 3.33296L9.68193 3.33296C9.88535 3.33301 10.07 3.45152 10.1549 3.63614Z" fill="white"/>
</g>
<defs>
<clipPath id="clip0">
<rect width="25" height="25" fill="white" transform="matrix(4.37114e-08 -1 -1 -4.37114e-08 25 25.208)"/>
</clipPath>
</defs>
</svg>
