<svg width="118" height="141" viewBox="0 0 118 141" fill="none" xmlns="http://www.w3.org/2000/svg">
<path fill-rule="evenodd" clip-rule="evenodd" d="M58.9824 5L118 38.9912V107.009L58.9824 141L0 107.009V38.9912L58.9824 5Z" fill="#1A1A1A"/>
<path fill-rule="evenodd" clip-rule="evenodd" d="M83.8391 32.0177C81.3113 35.0664 78.5728 37.9749 75.6237 40.6732C72.9554 43.1262 70.1116 45.3689 67.0923 47.4014C66.987 47.4714 70.6031 44.8082 72.4288 43.2663C74.8162 41.2339 77.1333 39.0262 79.275 36.7134C80.7495 35.1014 82.189 33.4544 83.5582 31.7724C83.6284 31.8425 83.7338 31.9126 83.8391 32.0177ZM82.8912 31.2117C80.3633 34.4707 77.6249 37.5544 74.6055 40.4279C72.0075 42.9159 69.1988 45.2638 66.2497 47.3663C66.1444 47.4364 69.6903 44.7031 71.4809 43.1262C73.8331 41.0236 76.045 38.7809 78.1515 36.398C79.6963 34.6459 81.1708 32.8237 82.5752 30.9664C82.7156 31.0365 82.8209 31.1416 82.8912 31.2117ZM81.9783 30.4057C79.4505 33.8749 76.6769 37.1689 73.6576 40.2527C71.1298 42.8108 68.3913 45.2287 65.4773 47.4014C65.372 47.4714 68.8477 44.633 70.6031 43.021C72.8852 40.8834 75.0619 38.5356 77.0982 36.1177C78.7132 34.1903 80.2229 32.1929 81.6975 30.1604C81.7677 30.2305 81.873 30.3356 81.9783 30.4057ZM80.9953 29.5647C78.4675 33.2792 75.6939 36.7835 72.6043 40.0775C70.1467 42.7057 67.4785 45.1937 64.5996 47.4364C64.4943 47.5065 67.8998 44.5979 69.6201 42.9159C71.8671 40.7082 73.9736 38.3253 75.9397 35.8373C77.6249 33.7348 79.1696 31.5271 80.6793 29.2844C80.8197 29.3895 80.89 29.4946 80.9953 29.5647ZM80.0474 28.7237C77.5195 32.6835 74.746 36.433 71.6213 39.9373C69.2339 42.6356 66.6008 45.1937 63.8272 47.5065C63.7219 47.5766 67.0572 44.5629 68.7073 42.8458C70.884 40.5681 72.9203 38.1501 74.8162 35.6271C76.5365 33.3143 78.1866 30.9314 79.6963 28.4434C79.8367 28.5485 79.942 28.6536 80.0474 28.7237ZM79.0643 27.8827C76.5716 32.0878 73.798 36.1177 70.6031 39.8672C68.286 42.6356 65.7231 45.2638 63.0197 47.6466C62.9144 47.7518 66.1795 44.633 67.7945 42.8809C69.901 40.5681 71.9022 38.08 73.7278 35.4869C75.5183 32.9638 77.2036 30.3356 78.7483 27.6023C78.8537 27.6724 78.959 27.7775 79.0643 27.8827ZM78.0462 26.9716C75.5886 31.457 72.815 35.7322 69.585 39.7621C67.338 42.6005 64.8804 45.2638 62.2122 47.7167C62.1069 47.8219 65.3018 44.633 66.8465 42.8108C68.9179 40.4279 70.8138 37.9048 72.5692 35.2766C74.43 32.5083 76.1152 29.6348 77.6951 26.6562C77.8355 26.7964 77.9408 26.9015 78.0462 26.9716ZM77.028 26.0605C76.9227 26.2707 76.8174 26.481 76.712 26.6912C74.3598 31.2468 71.6915 35.6271 68.602 39.692C66.4252 42.5655 64.0378 45.3338 61.4398 47.8569C61.3345 47.962 64.424 44.668 65.9688 42.8458C67.97 40.4279 69.7957 37.8347 71.516 35.1715C73.4469 32.1579 75.1673 29.004 76.7472 25.7801C76.8174 25.8502 76.9227 25.9553 77.028 26.0605ZM75.9748 25.1143C75.7641 25.5699 75.5535 26.0254 75.3428 26.481C73.131 31.1066 70.568 35.5219 67.5487 39.692C65.4422 42.6356 63.125 45.439 60.5972 48.0321C60.4919 48.1372 63.5112 44.7732 64.9858 42.8809C66.9167 40.3929 68.7073 37.7647 70.3223 35.0664C72.2884 31.7724 74.0438 28.3382 75.6237 24.7989C75.7641 24.9041 75.8694 25.0092 75.9748 25.1143ZM74.9215 24.1682C74.6055 24.869 74.3247 25.5699 74.0087 26.2707C71.9022 30.9314 69.4797 35.4519 66.5657 39.692C64.5294 42.6706 62.2824 45.5441 59.8248 48.2073C59.7195 48.3125 62.6335 44.8783 64.0729 42.951C65.9337 40.4279 67.654 37.7296 69.1988 34.9963C71.1649 31.4921 72.9203 27.8126 74.4651 24.063C74.5002 23.993 74.5353 23.9229 74.5704 23.8177C74.6757 23.9229 74.7811 24.028 74.9215 24.1682ZM73.798 23.1519C73.4118 24.1331 73.0256 25.1494 72.6043 26.1305C70.6383 30.8613 68.286 35.4168 65.5124 39.727C63.5463 42.7757 61.4047 45.6843 58.9822 48.4176C58.8769 48.5227 61.7207 45.0185 63.0899 43.0561C64.8804 40.4629 66.5306 37.7647 68.0051 34.9613C69.901 31.422 71.5511 27.6724 72.9905 23.8878C73.131 23.5374 73.2714 23.1519 73.4118 22.8015C73.5523 22.9066 73.6927 23.0118 73.798 23.1519ZM72.6746 22.1007C72.2181 23.3972 71.7617 24.6938 71.2351 25.9904C69.3744 30.7562 67.1625 35.3818 64.5294 39.7621C62.6686 42.8458 60.5621 45.8244 58.2449 48.6278C58.1747 48.733 60.8781 45.1586 62.2122 43.1612C63.9325 40.533 65.5124 37.7647 66.9167 34.9262C68.7073 31.3168 70.2521 27.5673 71.5862 23.7126C71.8319 23.0468 72.0426 22.381 72.2533 21.6801C72.3937 21.8554 72.5341 21.9605 72.6746 22.1007ZM71.4809 20.9793C70.9893 22.6263 70.4276 24.2733 69.8659 25.8852C68.1455 30.6861 66.039 35.3818 63.5112 39.8322C61.7207 42.986 59.7195 45.9997 57.4725 48.8381C57.4023 48.9432 60.0355 45.2988 61.2994 43.2663C62.9495 40.6031 64.4591 37.7997 65.7933 34.9262C67.4785 31.2818 68.953 27.4622 70.1818 23.6075C70.4978 22.5913 70.8138 21.6101 71.0947 20.5588C71.2 20.734 71.3404 20.8742 71.4809 20.9793ZM70.2521 19.8229C69.7254 21.8203 69.1286 23.8177 68.4615 25.8152C66.8465 30.6861 64.9156 35.4168 62.458 39.9373C60.7376 43.1262 58.8067 46.2099 56.6299 49.1184C56.5597 49.2236 59.0875 45.5091 60.3163 43.4415C61.8962 40.7433 63.3357 37.9048 64.5996 34.9963C66.2146 31.3168 67.5487 27.4622 68.7073 23.5724C69.0935 22.2058 69.4797 20.8391 69.8308 19.4374C69.9712 19.5776 70.1116 19.6827 70.2521 19.8229ZM68.9882 18.6314C68.4264 21.0494 67.8296 23.4323 67.0923 25.8152C65.6177 30.7211 63.7921 35.4869 61.4749 40.0775C59.8599 43.3014 57.9992 46.4552 55.8926 49.3988C55.8224 49.5039 58.2449 45.7193 59.4035 43.6518C60.9132 40.8834 62.2824 38.01 63.441 35.1014C64.9507 31.3869 66.1795 27.4972 67.2327 23.5724C67.6891 21.8203 68.1104 20.0331 68.4966 18.2109C68.7073 18.3511 68.8477 18.4913 68.9882 18.6314ZM13.8325 54.0945C16.5359 55.1808 19.3446 55.9868 22.1533 56.5825C26.261 57.4586 30.474 57.9141 34.687 57.8791C34.9679 57.8791 34.1253 57.9141 33.4231 57.9141C31.2113 57.9141 29.0346 57.844 26.8578 57.6338C22.6097 57.2133 18.3967 56.4073 14.3592 55.1808C14.1485 55.1107 13.9379 55.0406 13.7623 55.0056C13.7623 54.6902 13.7974 54.3748 13.8325 54.0945ZM21.6266 58.7201C26.5419 59.3508 32.6507 59.491 37.8468 58.8953C39.3214 58.7201 40.7959 58.5098 42.2354 58.2295C42.4109 58.1944 38.6894 58.615 36.6531 58.7551C32.9667 58.9654 27.56 59.0705 20.7138 58.0543L21.6266 58.7201ZM23.4874 60.1218C26.5419 60.332 32.1241 60.3671 37.1447 59.7013C38.4437 59.5261 41.463 58.9654 41.6737 58.8953C41.8492 58.8603 38.233 59.3859 36.1967 59.5261C29.6314 60.0167 24.7162 59.7013 22.715 59.5261L23.4874 60.1218ZM25.1024 61.3132C27.5249 61.3483 32.5454 61.138 36.8287 60.4372C38.3032 60.1919 39.7427 59.9115 41.1821 59.5611C41.3577 59.5261 37.7415 60.1568 35.7052 60.332C33.2827 60.5773 28.192 60.8577 25.2779 60.8226C24.9971 60.8226 24.6811 60.8226 24.4002 60.7876L25.1024 61.3132ZM26.5067 62.3645C28.0164 62.2944 32.5805 61.944 36.3723 61.2081C37.8117 60.9278 39.2512 60.5773 40.6906 60.1919C40.8662 60.1568 37.25 60.8577 35.2488 61.138C34.0902 61.2782 29.4559 61.8038 25.8748 61.8739L26.5067 62.3645ZM27.7355 63.3106C28.9995 63.1705 33.1072 62.6448 35.9158 62.0491C37.3553 61.7337 38.7948 61.3483 40.1991 60.9278C40.3746 60.8927 36.7936 61.6987 34.7924 62.0141C33.6689 62.1893 28.7888 62.75 27.1387 62.8901L27.7355 63.3106ZM28.859 64.1517C29.7016 64.0115 33.5636 63.3457 35.4945 62.8551C36.934 62.5047 38.3383 62.0842 39.7778 61.6286C39.9533 61.5585 36.3723 62.4696 34.4062 62.8551C33.2827 63.0654 29.4559 63.591 28.3324 63.7662L28.859 64.1517ZM29.8772 64.8876C31.6677 64.5371 33.388 64.1517 35.1084 63.6611C36.5478 63.2756 37.9522 62.8201 39.3565 62.3295C39.532 62.2594 35.9861 63.2756 34.02 63.6961C32.9316 63.9064 30.0527 64.397 29.3857 64.5021L29.8772 64.8876ZM30.79 65.5884C32.1241 65.273 33.4582 64.9226 34.7573 64.5021C36.1616 64.0816 37.5308 63.591 38.9001 63.0654C39.0756 62.9953 35.5648 64.0816 33.5987 64.5722C32.5103 64.8175 31.422 65.0628 30.2985 65.238L30.79 65.5884ZM31.6326 66.2192C32.5103 65.9739 33.3529 65.6935 34.1955 65.4132C35.635 64.9226 37.0393 64.397 38.4437 63.8363C38.549 63.8013 35.1084 64.9577 33.1072 65.4833C32.4752 65.6585 31.8433 65.7987 31.2113 65.9388L31.6326 66.2192ZM32.405 66.7799C32.9667 66.6046 33.4934 66.3944 34.0551 66.2192C35.4594 65.7286 36.8287 65.1679 38.1628 64.5722C38.3383 64.5021 34.8626 65.7636 32.9316 66.3243C32.6508 66.3944 32.3699 66.4995 32.089 66.5696L32.405 66.7799ZM33.1072 67.3055C33.3178 67.2354 33.5285 67.1653 33.7391 67.0602C35.1084 66.5346 36.4776 65.9388 37.8117 65.3081C37.9873 65.238 34.7222 66.5346 32.8965 67.1303L33.1072 67.3055ZM13.5166 56.4073C14.5347 57.038 16.0093 57.9842 16.1848 58.0893C18.5371 59.5611 20.8192 61.0679 23.1012 62.6098C25.3833 64.1867 27.6653 65.7636 29.9123 67.3756C27.4547 65.7636 24.962 64.1517 22.4693 62.6098C20.8543 61.6286 14.1134 57.6688 13.4112 57.2833C13.4112 57.003 13.4815 56.6876 13.5166 56.4073ZM33.7742 67.7961L34.1955 67.6209C35.319 67.1303 36.4074 66.6046 37.4957 66.079C37.6362 66.0089 35.3541 66.9901 34.02 67.5158L33.6338 67.6559L33.7742 67.7961ZM34.3711 68.2516L34.7222 68.0764C35.5297 67.691 36.3372 67.2705 37.1447 66.8149C37.2851 66.7448 35.635 67.5158 34.6168 67.9713L34.2306 68.1465L34.3711 68.2516ZM13.2708 58.0192C14.2187 58.5799 15.588 59.3859 15.7986 59.5261C18.1158 60.8927 20.433 62.3295 22.6799 63.7662C25.0322 65.273 27.3142 66.8149 29.5963 68.3568C27.1036 66.7799 24.5758 65.273 22.048 63.8013C20.433 62.8551 13.7623 59.1756 13.1655 58.8603C13.2006 58.5799 13.2357 58.2996 13.2708 58.0192ZM34.9328 68.6722L35.2839 68.4969C35.8105 68.2166 36.302 67.9363 36.8287 67.6209C36.9691 67.5508 35.8807 68.0764 35.1786 68.4269L34.8275 68.6021L34.9328 68.6722ZM13.0602 59.5611C13.8325 59.9816 14.9911 60.6124 15.1667 60.7175C17.5892 62.0842 19.9765 63.4859 22.3288 64.8876C24.7162 66.3243 27.0334 67.7961 29.3505 69.3029C26.7876 67.7961 24.2247 66.3594 21.6618 64.9226C20.0117 64.0115 13.4463 60.6124 12.9197 60.3671C12.9197 60.3671 12.9197 60.3671 12.9197 60.332C12.9899 60.1218 13.025 59.8414 13.0602 59.5611ZM107.643 70.2841C106.695 70.0739 105.361 69.7935 105.01 69.6884C102.552 69.1277 100.094 68.532 97.707 67.8662C95.0036 67.1653 92.3705 66.3944 89.7022 65.6235C92.5811 66.3243 95.46 67.0252 98.3038 67.6559C99.8486 68.0063 106.028 69.3029 107.573 69.6183C107.643 69.6183 107.713 69.6534 107.748 69.6534C107.713 69.8636 107.678 70.0739 107.643 70.2841ZM12.8144 61.103C13.5166 61.4534 14.5347 61.979 14.7103 62.0842C17.1679 63.3807 19.5904 64.7124 21.9777 66.079C24.4002 67.4457 26.7525 68.8824 29.1399 70.2841C26.5419 68.8474 23.9438 67.4457 21.3458 66.1141C19.6606 65.273 13.1655 62.1192 12.7091 61.909V61.8739C12.7442 61.6286 12.7793 61.3833 12.8144 61.103ZM12.6037 62.6448C13.1304 62.8901 13.973 63.3107 14.1134 63.3807C16.6763 64.6423 19.2042 65.9388 21.6618 67.2705C24.1194 68.6021 26.5067 69.9337 28.9292 71.3003C26.2961 69.9337 23.6629 68.6021 21.0298 67.3405C19.3446 66.5346 12.8846 63.591 12.4633 63.4158V63.3807C12.4984 63.1354 12.5335 62.8901 12.6037 62.6448ZM107.397 71.7209C106.87 71.5807 106.098 71.4055 105.993 71.3704C103.184 70.6696 100.445 69.8986 97.707 69.0927C95.0387 68.3217 92.4056 67.4807 89.7724 66.6397C92.6162 67.4106 95.46 68.1816 98.3038 68.8824C99.8135 69.2679 106.87 70.8097 107.537 70.9499C107.467 71.2303 107.432 71.4756 107.397 71.7209ZM12.358 64.1166C12.9548 64.397 13.8325 64.7824 14.0432 64.8876C16.5359 66.0089 18.9935 67.2354 21.3809 68.4269C23.8736 69.6884 26.2961 70.9499 28.7537 72.2815C26.0854 70.985 23.4172 69.7234 20.7489 68.532C19.0286 67.761 12.6037 65.0277 12.2175 64.8876V64.8525C12.2878 64.6072 12.3229 64.3619 12.358 64.1166ZM107.116 73.1576C106.625 73.0174 105.887 72.8072 105.712 72.7721C102.973 72.0012 100.27 71.1952 97.6017 70.3192C94.9685 69.4781 92.3354 68.6021 89.7373 67.6559C92.5811 68.532 95.3898 69.338 98.2336 70.1089C100.024 70.5995 106.73 72.2815 107.257 72.3867C107.221 72.667 107.186 72.9123 107.116 73.1576ZM12.1122 65.5884C12.6388 65.7987 13.4815 66.1491 13.6921 66.2542C16.2199 67.3405 18.6775 68.4619 21.1351 69.6183C23.6629 70.8098 26.1206 72.0362 28.5782 73.2627C25.8748 72.0362 23.1714 70.8448 20.5032 69.7234C18.7477 68.9875 12.3229 66.4645 12.0069 66.3243V66.2893C12.042 66.079 12.0771 65.8337 12.1122 65.5884ZM11.8665 67.0602C12.4282 67.2705 13.2708 67.6209 13.5517 67.726C16.0444 68.7072 18.502 69.7585 20.9245 70.8448C23.4874 71.9662 25.9801 73.1226 28.4728 74.314C25.7344 73.1576 23.031 72.0362 20.2925 70.985C18.5371 70.2841 12.0771 67.9363 11.7611 67.8311V67.7961C11.7962 67.5508 11.8314 67.3055 11.8665 67.0602ZM106.87 74.5943C106.379 74.4542 105.677 74.2439 105.501 74.1738C102.798 73.3328 100.129 72.4567 97.4963 71.5456C94.8632 70.6345 92.2652 69.6884 89.7022 68.7072C92.5109 69.6533 95.3196 70.5294 98.1283 71.4055C99.9188 71.9662 106.554 73.7884 106.976 73.8935C106.941 74.1037 106.905 74.349 106.87 74.5943ZM11.6207 68.532C12.042 68.6722 12.7442 68.9525 12.9548 69.0226C15.588 69.9687 18.186 71.02 20.7489 72.0362C23.3119 73.0875 25.8748 74.1738 28.4026 75.2952C25.6641 74.2089 22.8906 73.1576 20.1521 72.1764C18.3616 71.5456 11.8665 69.373 11.5505 69.2679V69.2328C11.5505 68.9875 11.5856 68.7773 11.6207 68.532ZM106.625 76.0311C106.168 75.8909 105.431 75.6106 105.185 75.5405C102.552 74.6644 99.9539 73.7183 97.391 72.7371C94.793 71.7559 92.23 70.7397 89.6671 69.6884C92.4407 70.7046 95.2143 71.6508 98.023 72.5969C99.8135 73.1926 106.414 75.1901 106.73 75.2952C106.695 75.5405 106.66 75.7858 106.625 76.0311ZM11.3749 69.9687C11.8314 70.1089 12.5686 70.3892 12.8144 70.4593C15.4475 71.3354 18.0456 72.2815 20.6085 73.2627C23.2065 74.2439 25.7695 75.2602 28.3324 76.3114C25.5588 75.2952 22.7852 74.349 19.9765 73.4029C18.186 72.8072 11.5856 70.8097 11.2696 70.7046C11.3047 70.4593 11.3398 70.214 11.3749 69.9687ZM11.1292 71.4055C11.6207 71.5456 12.3229 71.7559 12.4984 71.826C15.2018 72.667 17.87 73.5431 20.5032 74.4542C23.1363 75.3653 25.7344 76.3114 28.2973 77.2926C25.4886 76.3465 22.6799 75.4704 19.8712 74.5943C18.0807 74.0337 11.4452 72.2114 11.0239 72.1063C11.0239 71.8961 11.0941 71.6508 11.1292 71.4055ZM106.379 77.4678C105.958 77.3277 105.255 77.0473 105.045 76.9772C102.412 76.0311 99.8135 74.9798 97.2506 73.9636C94.6877 72.9123 92.1247 71.826 89.5969 70.7046C92.3354 71.7909 95.109 72.8422 97.8474 73.8234C99.638 74.4542 106.133 76.6268 106.449 76.7319V76.767C106.449 77.0123 106.414 77.2225 106.379 77.4678ZM10.8834 72.8422C11.3749 72.9824 12.1122 73.1926 12.2878 73.2277C15.0262 73.9986 17.7296 74.8046 20.3979 75.6807C23.031 76.5217 25.6641 77.3977 28.2622 78.3439C25.4184 77.4678 22.6097 76.6618 19.7659 75.8909C17.9754 75.4003 11.2696 73.7183 10.743 73.6132C10.7781 73.3328 10.8132 73.0875 10.8834 72.8422ZM83.0316 77.2926L82.6805 77.4678C82.1539 77.7482 81.6624 78.0285 81.1357 78.3439C80.9953 78.414 82.0837 77.8883 82.7858 77.5379L83.1369 77.3627L83.0316 77.2926ZM106.133 78.9396C105.571 78.7294 104.729 78.3789 104.448 78.2738C101.955 77.2926 99.4975 76.2413 97.075 75.155C94.5121 74.0337 92.0194 72.8773 89.5267 71.6858C92.2652 72.8422 94.9685 73.9636 97.707 75.0149C99.4624 75.7157 105.922 78.0635 106.238 78.1687V78.2037C106.203 78.449 106.168 78.6943 106.133 78.9396ZM83.6284 77.7131L83.2774 77.8883C82.4698 78.2738 81.6624 78.6943 80.8549 79.1499C80.7144 79.22 82.3645 78.449 83.3827 77.9935L83.7689 77.8183L83.6284 77.7131ZM10.6026 74.279C11.1292 74.4191 11.9016 74.5943 12.0069 74.6294C14.8156 75.3302 17.5541 76.1012 20.2925 76.9072C22.9608 77.6781 25.5939 78.5191 28.2271 79.3601C25.3833 78.5892 22.5395 77.8183 19.6957 77.1174C18.186 76.7319 11.1292 75.1901 10.4621 75.0499C10.5323 74.7696 10.5674 74.5243 10.6026 74.279ZM84.2253 78.1687L83.804 78.3439C82.6805 78.8345 81.5921 79.3601 80.5038 79.8858C80.3633 79.9558 82.6454 78.9747 83.9795 78.449L84.3657 78.3088L84.2253 78.1687ZM10.3568 75.7157C11.3047 75.926 12.6388 76.2063 12.9899 76.3114C15.4475 76.8721 17.87 77.4678 20.2925 78.1336C22.9959 78.8345 25.629 79.6054 28.2973 80.3764C25.4184 79.6755 22.5395 78.9747 19.6957 78.3439C18.1509 77.9935 11.9718 76.6969 10.427 76.3815C10.3568 76.3815 10.2866 76.3465 10.2515 76.3465C10.2866 76.1362 10.3217 75.926 10.3568 75.7157ZM105.887 80.3764C105.361 80.1661 104.518 79.8157 104.307 79.7105C101.78 78.6242 99.322 77.5029 96.8644 76.3465C94.3366 75.155 91.879 73.9285 89.4214 72.702C92.1247 73.9285 94.8281 75.12 97.4963 76.2413C99.2518 76.9772 105.677 79.5003 105.993 79.6405V79.6755C105.958 79.9208 105.922 80.1661 105.887 80.3764ZM84.8923 78.6943C84.6817 78.7644 84.471 78.8345 84.2604 78.9396C82.8912 79.4653 81.5219 80.061 80.1878 80.6917C80.0123 80.7618 83.2774 79.4653 85.103 78.8695L84.8923 78.6943ZM85.5945 79.22C85.0328 79.3952 84.5061 79.6054 83.9444 79.7806C82.5401 80.2712 81.1708 80.8319 79.8367 81.4276C79.6612 81.4977 83.1369 80.2362 85.0679 79.6755C85.3488 79.6054 85.6296 79.5003 85.9105 79.4302L85.5945 79.22ZM105.642 81.8832C105.045 81.6028 104.167 81.2174 103.956 81.1122C101.464 79.9909 99.006 78.7644 96.6186 77.573C94.1259 76.3114 91.7034 75.0499 89.2458 73.7183C91.9141 75.0149 94.5823 76.2764 97.2506 77.4678C98.9709 78.2388 105.396 80.9721 105.782 81.1122V81.1473C105.712 81.3926 105.677 81.6379 105.642 81.8832ZM86.3669 79.7806C85.4892 80.0259 84.6466 80.3063 83.804 80.5866C82.3645 81.0772 80.9602 81.6028 79.5558 82.1635C79.4505 82.1986 82.8912 81.0422 84.8923 80.5165C85.5243 80.3413 86.1563 80.2011 86.7882 80.061L86.3669 79.7806ZM13.6921 55.6013C16.0795 56.2671 18.7829 56.8979 19.3446 57.003L19.801 57.3184C22.2937 57.7389 26.0854 58.0543 28.4377 58.2295C29.8421 58.3346 31.2815 58.3697 32.6859 58.3697C34.6168 58.3697 36.4776 58.2996 38.3383 58.1244C39.8129 57.9842 41.2875 57.809 42.762 57.5637C44.5526 57.2833 46.3431 56.8979 48.0985 56.4774C51.5743 55.6013 55.0149 54.4099 58.3151 52.9381C61.7207 51.4312 65.0209 49.609 68.1455 47.5065C71.3404 45.3689 74.3598 42.986 77.2036 40.3929C79.8718 37.9749 82.3645 35.3818 84.6817 32.6485C84.7519 32.6835 84.787 32.7536 84.8572 32.7886C83.5231 34.3305 82.1539 35.8373 80.7495 37.3091C78.643 39.4817 76.3961 41.5843 74.0087 43.5467C71.3755 45.7193 68.5669 47.7518 65.6528 49.5389C62.8793 51.256 59.9301 52.7979 56.8406 54.0594C54.067 55.2158 50.9072 57.1782 48.8007 59.3158C47.5368 60.5773 46.1676 61.7337 44.7632 62.8551C43.394 63.9414 41.9545 64.9927 40.48 65.9739C39.0054 66.9551 37.4957 67.8662 35.9158 68.7072C35.8456 68.7422 35.7403 68.7773 35.7052 68.8123C35.7403 68.7773 35.7754 68.7773 35.7754 68.7773C43.0078 74.5243 50.4157 80.4114 51.5041 81.2875C51.5743 81.3575 51.6445 81.3926 51.6445 81.3926C51.9254 81.6729 52.0307 82.4789 52.0307 82.514C51.5392 82.1285 35.8807 69.9337 22.9257 61.3483C21.3458 60.297 14.4996 56.0919 13.657 55.5663V55.4611L13.6921 55.6013ZM87.2095 80.4114C85.8754 80.7268 84.5413 81.0772 83.2422 81.4977C81.8379 81.9182 80.4687 82.4088 79.0994 82.9345C78.9239 83.0045 82.4347 81.9182 84.4008 81.4276C85.4892 81.1823 86.5776 80.937 87.701 80.7618L87.2095 80.4114ZM105.396 83.355C104.869 83.1097 104.027 82.6892 103.886 82.6191C101.323 81.3575 98.7954 80.061 96.3378 78.7294C93.8801 77.3977 91.4928 76.0661 89.0703 74.6995C91.7034 76.0661 94.3366 77.3977 96.9697 78.6593C98.6549 79.4653 105.115 82.4088 105.536 82.584V82.6191C105.501 82.8644 105.431 83.1097 105.396 83.355ZM88.1223 81.1122C86.3318 81.4627 84.6115 81.8481 82.8912 82.3387C81.4517 82.7242 80.0474 83.1798 78.643 83.6704C78.4675 83.7404 82.0134 82.7242 83.9795 82.3037C85.0679 82.0934 87.9468 81.6028 88.6139 81.4977L88.1223 81.1122ZM89.1405 81.8481C88.2979 81.9883 84.4359 82.6541 82.505 83.1447C81.0655 83.4951 79.6612 83.9156 78.2217 84.3712C78.0462 84.4413 81.6272 83.5302 83.5933 83.1447C84.7168 82.9345 88.5436 82.4088 89.6671 82.2336L89.1405 81.8481ZM105.185 84.8968C104.483 84.5464 103.465 84.0208 103.289 83.9156C100.832 82.6191 98.4092 81.2875 96.0218 79.9208C93.5993 78.5541 91.247 77.1174 88.8596 75.7157C91.4577 77.1524 94.0557 78.5541 96.6537 79.8858C98.3389 80.7618 104.834 83.9156 105.29 84.1259V84.1609C105.255 84.3712 105.22 84.6165 105.185 84.8968ZM90.264 82.6892C89.0001 82.8293 84.8923 83.355 82.0837 83.9507C80.6442 84.2661 79.2048 84.6515 77.8004 85.0721C77.6249 85.1071 81.2059 84.3011 83.2071 83.9857C84.3306 83.8105 89.2107 83.2498 90.8608 83.1097L90.264 82.6892ZM91.4928 83.6353C89.9831 83.7054 85.419 84.0558 81.6273 84.7917C80.1878 85.0721 78.7483 85.4225 77.3089 85.8079C77.1333 85.843 80.7495 85.1421 82.7507 84.8618C83.9093 84.7216 88.5436 84.196 92.1247 84.1259L91.4928 83.6353ZM104.939 86.4387C104.167 86.0182 103.008 85.3874 102.833 85.2823C100.41 83.9156 98.023 82.5139 95.6707 81.1122C93.2833 79.6755 90.9661 78.2037 88.649 76.6969C91.2119 78.2037 93.7748 79.6405 96.3378 81.0772C97.9879 81.9883 104.553 85.3874 105.08 85.6327C105.08 85.6327 105.08 85.6327 105.08 85.6678C105.01 85.878 104.974 86.1584 104.939 86.4387ZM92.8971 84.6866C90.4746 84.6515 85.4541 84.8618 81.1708 85.5626C79.6963 85.8079 78.2568 86.0883 76.8174 86.4387C76.6418 86.4738 80.258 85.843 82.2943 85.6678C84.7168 85.4225 89.8075 85.1421 92.7216 85.1772C93.0024 85.1772 93.3184 85.1772 93.5993 85.2122L92.8971 84.6866ZM94.5121 85.878C91.4577 85.6678 85.8754 85.6327 80.8549 86.2985C79.5558 86.4738 76.5365 87.0344 76.3259 87.1045C76.1503 87.1396 79.7665 86.6139 81.8028 86.4738C88.3681 85.9832 93.2833 86.2985 95.2845 86.4738L94.5121 85.878ZM96.3729 87.2797C91.4577 86.649 85.3488 86.5088 80.1527 87.1045C78.6781 87.2797 77.2036 87.49 75.7641 87.7703C75.5886 87.8054 79.3101 87.3849 81.3464 87.2447C85.0328 87.0344 90.4395 86.9293 97.2857 87.9455L96.3729 87.2797ZM104.729 87.9806C103.781 87.4199 102.412 86.6139 102.201 86.4738C99.8837 85.1071 97.5666 83.6704 95.3196 82.2336C92.9673 80.7268 90.6853 79.1849 88.4032 77.643C90.931 79.22 93.4237 80.7268 95.9516 82.1986C97.5666 83.1447 104.237 86.8242 104.834 87.1396C104.799 87.4199 104.764 87.7002 104.729 87.9806ZM104.483 89.5925C103.465 88.9618 101.99 88.0156 101.815 87.9105C99.4624 86.4387 97.1804 84.9319 94.8983 83.39C92.6162 81.8131 90.3342 80.2362 88.0872 78.6242C90.5448 80.2362 93.0375 81.8481 95.5303 83.39C97.1452 84.3712 103.886 88.331 104.588 88.7165C104.553 88.9968 104.518 89.2772 104.483 89.5925ZM104.167 91.9053C101.464 90.819 98.6549 90.013 95.8462 89.4173C91.7385 88.5413 87.5255 88.0857 83.3125 88.1208C83.0316 88.1208 83.8742 88.0857 84.5764 88.0857C86.7882 88.0857 88.9649 88.1558 91.1417 88.3661C95.3898 88.7866 99.6029 89.5925 103.64 90.819C103.851 90.8891 104.062 90.9592 104.237 90.9942C104.237 91.3096 104.202 91.59 104.167 91.9053ZM104.307 90.3635C101.92 89.6977 99.2167 89.0669 98.6549 88.9618L98.1985 88.6464C95.7058 88.2259 91.9141 87.9105 89.5618 87.7353C88.1223 87.6302 86.718 87.5951 85.3136 87.5951C83.3827 87.5951 81.5219 87.6652 79.6612 87.8404C78.1866 87.9806 76.712 88.1558 75.2375 88.4011C73.4469 88.6814 71.6564 89.0669 69.901 89.4874C66.4252 90.3635 62.9846 91.5549 59.6844 93.0267C56.2788 94.5335 52.9786 96.3557 49.854 98.4583C46.6591 100.596 43.6397 102.979 40.7959 105.572C38.1277 107.99 35.635 110.583 33.3178 113.316C33.2476 113.281 33.2125 113.211 33.1423 113.176C34.4764 111.634 35.8456 110.127 37.25 108.656C39.3565 106.483 41.6034 104.38 43.9908 102.418C46.624 100.245 49.4327 98.213 52.3467 96.4258C55.1203 94.7087 58.0694 93.1669 61.1589 91.9053C63.9325 90.7489 67.0923 88.7866 69.1988 86.649C70.4627 85.3874 71.832 84.231 73.2363 83.1097C74.6055 82.0234 76.045 80.9721 77.5195 79.9909C78.9941 79.0097 80.5038 78.0986 82.0837 77.2576C82.1539 77.2225 82.2592 77.1875 82.2943 77.1524C82.2592 77.1875 82.2241 77.1875 82.2241 77.1875C74.9917 71.4405 67.5838 65.5534 66.4954 64.6773C66.4252 64.6072 66.355 64.5722 66.355 64.5722C66.0741 64.2918 65.9688 63.4859 65.9688 63.4508C66.4603 63.8363 82.1188 76.0311 95.0738 84.6165C96.6537 85.6678 103.5 89.8729 104.343 90.3985V90.4336V90.4686L104.307 90.3635ZM34.1604 113.982C36.6882 110.933 39.4267 108.025 42.3758 105.327C45.0441 102.874 47.8879 100.631 50.9072 98.5985C51.0126 98.5284 47.3964 101.157 45.5707 102.733C43.1833 104.766 40.8662 106.974 38.7245 109.286C37.25 110.863 35.8105 112.51 34.4764 114.227C34.336 114.157 34.2657 114.052 34.1604 113.982ZM35.1084 114.788C37.6362 111.529 40.3746 108.445 43.394 105.572C45.992 103.084 48.8007 100.736 51.7498 98.6335C51.8552 98.5634 48.3092 101.297 46.5186 102.874C44.1664 104.976 41.9545 107.219 39.848 109.602C38.3032 111.354 36.8287 113.176 35.4243 115.033C35.2839 114.963 35.1786 114.858 35.1084 114.788ZM36.0212 115.594C38.549 112.125 41.3226 108.831 44.3419 105.747C46.8697 103.189 49.6082 100.771 52.5222 98.5985C52.6627 98.4933 49.1518 101.332 47.3964 102.979C45.1143 105.116 42.9376 107.464 40.9013 109.882C39.2863 111.809 37.7766 113.807 36.302 115.839C36.2318 115.769 36.1265 115.664 36.0212 115.594ZM37.0042 116.4C39.532 112.686 42.3056 109.181 45.3952 105.887C47.8528 103.259 50.521 100.771 53.3999 98.5284C53.5053 98.4583 50.0997 101.367 48.3794 103.049C46.1325 105.257 44.0259 107.639 42.0599 110.127C40.3746 112.23 38.8299 114.438 37.3202 116.68C37.1798 116.575 37.0744 116.505 37.0042 116.4ZM37.9522 117.241C40.48 113.281 43.2535 109.532 46.3782 106.027C48.7656 103.329 51.3987 100.771 54.1723 98.4583C54.2776 98.3882 50.9423 101.402 49.2922 103.119C47.1155 105.397 45.0792 107.815 43.1833 110.338C41.463 112.651 39.8129 115.033 38.3032 117.521C38.1628 117.451 38.0575 117.346 37.9522 117.241ZM38.9352 118.117C41.4279 113.912 44.2015 109.882 47.3964 106.133C49.7135 103.364 52.2765 100.736 54.9798 98.3532C55.0851 98.248 51.82 101.367 50.2051 103.119C48.0985 105.432 46.0973 107.92 44.2717 110.513C42.4812 113.036 40.7959 115.664 39.2512 118.397C39.1458 118.327 39.0405 118.222 38.9352 118.117ZM39.9533 118.993C42.4109 114.508 45.1845 110.233 48.4145 106.203C50.6615 103.364 53.1542 100.701 55.7873 98.248C55.8926 98.1429 52.6978 101.332 51.153 103.154C49.0816 105.537 47.1857 108.06 45.4303 110.688C43.5695 113.456 41.8843 116.33 40.3044 119.309C40.164 119.203 40.0587 119.098 39.9533 118.993ZM40.9715 119.939C41.0768 119.729 41.1821 119.519 41.2875 119.309C43.6397 114.753 46.308 110.373 49.3976 106.308C51.5743 103.434 53.9617 100.666 56.5597 98.1429C56.665 98.0378 53.5755 101.332 52.0307 103.154C50.0295 105.572 48.2039 108.165 46.4835 110.828C44.5526 113.842 42.8322 116.996 41.2524 120.22C41.1821 120.115 41.0768 120.009 40.9715 119.939ZM42.0247 120.85C42.2354 120.395 42.446 119.974 42.6567 119.519C44.8685 114.893 47.4315 110.478 50.4508 106.308C52.5573 103.364 54.8745 100.561 57.4023 97.9677C57.5076 97.8626 54.4883 101.227 53.0137 103.119C51.0828 105.607 49.2922 108.235 47.6772 110.933C45.7112 114.227 43.9557 117.662 42.3758 121.201C42.2354 121.061 42.1301 120.956 42.0247 120.85ZM43.078 121.832C43.394 121.131 43.6749 120.43 43.9908 119.729C46.0973 115.068 48.5198 110.548 51.4338 106.308C53.4701 103.329 55.7171 100.456 58.1747 97.7925C58.28 97.6874 55.366 101.122 53.9266 103.049C52.0658 105.572 50.3455 108.27 48.8007 111.004C46.8346 114.508 45.0792 118.187 43.5344 121.937C43.4993 122.007 43.4642 122.077 43.4291 122.182C43.3238 122.077 43.2184 121.937 43.078 121.832ZM44.2015 122.848C44.5877 121.867 44.9739 120.85 45.3952 119.869C47.3613 115.139 49.7135 110.583 52.4871 106.273C54.4532 103.224 56.5948 100.316 59.0173 97.5822C59.1226 97.4771 56.2788 100.981 54.9096 102.944C53.1191 105.537 51.469 108.235 49.9944 111.039C48.0985 114.578 46.4484 118.327 45.009 122.112C44.8685 122.462 44.7281 122.848 44.5877 123.198C44.4472 123.093 44.3068 122.953 44.2015 122.848ZM45.325 123.899C45.7814 122.603 46.2378 121.306 46.7644 120.009C48.6252 115.244 50.837 110.618 53.4701 106.203C55.3309 103.119 57.4374 100.14 59.7546 97.3369C59.8248 97.2318 57.1214 100.806 55.7873 102.804C54.067 105.432 52.4871 108.2 51.0828 111.039C49.2922 114.648 47.7475 118.397 46.4133 122.252C46.1676 122.918 45.9569 123.584 45.7463 124.285C45.6058 124.144 45.4654 124.039 45.325 123.899ZM46.5186 125.021C47.0102 123.374 47.5719 121.762 48.1336 120.115C49.854 115.314 51.9605 110.618 54.4883 106.168C56.2788 103.014 58.28 100 60.527 97.1617C60.5972 97.0566 57.9641 100.701 56.7001 102.733C55.05 105.397 53.5404 108.2 52.2062 111.074C50.521 114.718 49.0465 118.538 47.8177 122.392C47.5017 123.409 47.1857 124.39 46.9048 125.441C46.7644 125.266 46.6591 125.126 46.5186 125.021ZM47.7123 126.177C48.239 124.18 48.8358 122.182 49.5029 120.185C51.1179 115.314 53.0488 110.583 55.5065 106.063C57.2268 102.874 59.1577 99.7899 61.3345 96.8814C61.4047 96.7763 58.8769 100.491 57.6481 102.558C56.0682 105.257 54.6287 108.095 53.3648 111.004C51.7498 114.683 50.4157 118.538 49.2571 122.427C48.8709 123.794 48.4847 125.161 48.1336 126.562C48.0283 126.422 47.8528 126.282 47.7123 126.177ZM49.0114 127.368C49.5731 124.95 50.1699 122.568 50.9072 120.185C52.3818 115.279 54.2074 110.513 56.5246 105.922C58.1396 102.698 60.0004 99.5446 62.1069 96.601C62.1771 96.4959 59.7546 100.281 58.596 102.348C57.0863 105.116 55.7171 107.99 54.5585 110.898C53.0488 114.613 51.82 118.503 50.7668 122.427C50.3104 124.179 49.8891 125.967 49.5029 127.789C49.2922 127.649 49.1518 127.509 49.0114 127.368Z" fill="#9BD6AE"/>
<circle cx="100" cy="23" r="18" fill="#9BD6AE"/>
</svg>
