<svg width="162" height="183" viewBox="0 0 162 183" fill="none" xmlns="http://www.w3.org/2000/svg">
<path fill-rule="evenodd" clip-rule="evenodd" d="M122.259 23.0959C118.06 28.1845 113.511 33.0392 108.613 37.5429C104.181 41.6372 99.4572 45.3806 94.442 48.773C94.2671 48.89 100.274 44.4448 103.306 41.8712C107.271 38.4788 111.12 34.7939 114.678 30.9335C117.127 28.243 119.518 25.494 121.792 22.6864C121.909 22.8034 122.084 22.9204 122.259 23.0959ZM120.684 21.7506C116.485 27.1902 111.937 32.3373 106.922 37.1335C102.606 41.2863 97.941 45.2051 93.0424 48.7145C92.8675 48.8315 98.7574 44.2693 101.731 41.6372C105.639 38.1278 109.313 34.3845 112.812 30.4071C115.377 27.4826 117.827 24.4411 120.159 21.3412C120.393 21.4582 120.568 21.6336 120.684 21.7506ZM119.168 20.4053C114.969 26.1959 110.362 31.6939 105.347 36.841C101.148 41.1108 96.5997 45.1466 91.7595 48.773C91.5845 48.89 97.3578 44.1523 100.274 41.4618C104.064 37.8939 107.68 33.975 111.062 29.9392C113.745 26.7223 116.252 23.3883 118.701 19.9959C118.818 20.1129 118.993 20.2884 119.168 20.4053ZM117.535 19.0016C113.336 25.2015 108.729 31.0505 103.598 36.5486C99.5155 40.9354 95.0835 45.0882 90.3016 48.8315C90.1266 48.9485 95.7833 44.0938 98.6407 41.2863C102.373 37.6014 105.872 33.6241 109.138 29.4713C111.937 25.9619 114.503 22.277 117.01 18.5336C117.244 18.7091 117.36 18.8846 117.535 19.0016ZM115.961 17.5978C111.762 24.2072 107.155 30.4656 101.965 36.3146C97.9993 40.8184 93.6256 45.0882 89.0186 48.9485C88.8437 49.0655 94.3837 44.0353 97.1245 41.1693C100.74 37.3675 104.122 33.3316 107.272 29.1204C110.129 25.26 112.87 21.2827 115.377 17.1299C115.611 17.3054 115.786 17.4808 115.961 17.5978ZM114.328 16.194C110.187 23.2129 105.58 29.9392 100.274 36.1977C96.4247 40.8184 92.1677 45.2051 87.6773 49.1824C87.5024 49.3579 92.9258 44.1523 95.6083 41.2278C99.1073 37.3675 102.431 33.2147 105.464 28.8864C108.438 24.6751 111.237 20.2883 113.803 15.7261C113.978 15.8431 114.153 16.0186 114.328 16.194ZM112.637 14.6733C108.554 22.16 103.947 29.2958 98.5824 36.0222C94.8502 40.7599 90.7681 45.2051 86.3361 49.2994C86.1611 49.4749 91.4679 44.1523 94.0338 41.1108C97.4744 37.1335 100.623 32.9222 103.539 28.5355C106.63 23.9147 109.429 19.1185 112.053 14.1469C112.287 14.3809 112.462 14.5563 112.637 14.6733ZM110.945 13.1526C110.77 13.5035 110.596 13.8544 110.421 14.2054C106.513 21.8091 102.081 29.1204 96.9496 35.9052C93.334 40.7014 89.3685 45.3221 85.0531 49.5334C84.8782 49.7089 90.01 44.2108 92.5759 41.1693C95.8999 37.1335 98.9323 32.8052 101.79 28.36C104.997 23.3298 107.855 18.0657 110.479 12.6846C110.596 12.8016 110.77 12.9771 110.945 13.1526ZM109.196 11.5733C108.846 12.3337 108.496 13.0941 108.146 13.8544C104.472 21.5751 100.215 28.9449 95.2001 35.9052C91.7011 40.8184 87.8523 45.4976 83.6535 49.8258C83.4786 50.0013 88.4938 44.3863 90.943 41.2278C94.1504 37.075 97.1245 32.6882 99.8071 28.1845C103.073 22.6864 105.989 16.9544 108.613 11.0469C108.846 11.2224 109.021 11.3979 109.196 11.5733ZM107.446 9.99409C106.922 11.1639 106.455 12.3337 105.93 13.5035C102.431 21.2827 98.4075 28.8279 93.5673 35.9052C90.1849 40.8769 86.4527 45.673 82.3706 50.1183C82.1956 50.2938 87.0359 44.5617 89.4268 41.3448C92.5176 37.1335 95.375 32.6298 97.9409 28.0675C101.207 22.2185 104.122 16.0771 106.688 9.81863C106.747 9.70165 106.805 9.58466 106.863 9.40919C107.038 9.58466 107.213 9.76013 107.446 9.99409ZM105.58 8.29788C104.939 9.93561 104.297 11.6318 103.598 13.2695C100.332 21.1657 96.4247 28.7694 91.8178 35.9637C88.5521 41.0523 84.9948 45.907 80.971 50.4692C80.7961 50.6447 85.5196 44.7957 87.794 41.5202C90.7681 37.192 93.5089 32.6883 95.9582 28.009C99.1073 22.1015 101.848 15.8431 104.239 9.52617C104.472 8.94127 104.706 8.29788 104.939 7.71298C105.172 7.88845 105.405 8.06392 105.58 8.29788ZM103.714 6.54318C102.956 8.70731 102.198 10.8714 101.323 13.0356C98.2325 20.9902 94.5586 28.7109 90.1849 36.0222C87.0942 41.1693 83.5952 46.141 79.7464 50.8202C79.6297 50.9956 84.1201 45.0297 86.3361 41.6957C89.1936 37.309 91.8178 32.6882 94.1504 27.9506C97.1245 21.9261 99.6904 15.6676 101.906 9.23373C102.315 8.12241 102.665 7.0111 103.014 5.8413C103.248 6.13375 103.481 6.30922 103.714 6.54318ZM101.731 4.6715C100.915 7.42053 99.982 10.1696 99.049 12.8601C96.1915 20.8733 92.6925 28.7109 88.4938 36.1392C85.5197 41.4033 82.1956 46.4334 78.4634 51.1711C78.3468 51.3466 82.7205 45.2636 84.8199 41.8712C87.5607 37.4259 90.0683 32.7467 92.2843 27.9506C95.0835 21.8676 97.5327 15.4922 99.5738 9.05825C100.099 7.36204 100.623 5.72432 101.09 3.96962C101.265 4.26207 101.498 4.49603 101.731 4.6715ZM99.6904 2.74133C98.8157 6.07526 97.8243 9.4092 96.7163 12.7431C94.0338 20.8733 90.8264 28.7694 86.7443 36.3146C83.8868 41.6372 80.6794 46.7844 77.0638 51.639C76.9472 51.8145 81.146 45.6146 83.187 42.1636C85.8112 37.6599 88.2022 32.9222 90.3016 28.0675C92.9841 21.9261 95.2001 15.4922 97.1245 8.99977C97.766 6.71865 98.4075 4.43754 98.9906 2.09793C99.2239 2.33189 99.4572 2.50736 99.6904 2.74133ZM97.5911 0.752663C96.658 4.78848 95.6666 8.7658 94.442 12.7431C91.9927 20.9317 88.9603 28.8864 85.1114 36.5486C82.4289 41.9297 79.3382 47.1938 75.8392 52.107C75.7226 52.2824 79.7464 45.9655 81.6708 42.5146C84.1784 37.8939 86.4527 33.0977 88.3771 28.243C90.8847 22.0431 92.9258 15.5507 94.6753 8.99977C95.4334 6.07526 96.1332 3.09227 96.7746 0.0507812C97.1245 0.284742 97.3578 0.518703 97.5911 0.752663ZM5.97667 59.9446C10.467 61.7578 15.1323 63.1031 19.7976 64.0974C26.6205 65.5597 33.6184 66.32 40.6164 66.2616C41.0829 66.2616 39.6833 66.32 38.517 66.32C34.8431 66.32 31.2275 66.2031 27.6119 65.8521C20.5557 65.1502 13.5577 63.805 6.85141 61.7578C6.50152 61.6408 6.15162 61.5239 5.86004 61.4654C5.86004 60.939 5.91835 60.4125 5.97667 59.9446ZM18.9228 67.6653C27.087 68.7181 37.234 68.9521 45.8648 67.9578C48.3141 67.6653 50.7633 67.3144 53.1543 66.8465C53.4459 66.788 47.2644 67.4898 43.882 67.7238C37.7589 68.0748 28.7782 68.2502 17.4066 66.554L18.9228 67.6653ZM22.0136 70.0049C27.0871 70.3559 36.3593 70.4144 44.6985 69.303C46.8562 69.0106 51.8713 68.0748 52.2212 67.9578C52.5128 67.8993 46.5063 68.7766 43.1239 69.0106C32.2189 69.8295 24.0546 69.303 20.7306 69.0106L22.0136 70.0049ZM24.6961 71.9936C28.7199 72.0521 37.0591 71.7011 44.1736 70.5313C46.6229 70.1219 49.0139 69.654 51.4048 69.0691C51.6964 69.0106 45.6898 70.0634 42.3075 70.3559C38.2837 70.7653 29.8279 71.2332 24.9877 71.1747C24.5211 71.1747 23.9963 71.1747 23.5298 71.1162L24.6961 71.9936ZM27.0287 73.7483C29.5363 73.6313 37.1174 73.0464 43.4155 71.8181C45.8065 71.3502 48.1974 70.7653 50.5884 70.1219C50.88 70.0634 44.8734 71.2332 41.5494 71.7011C39.625 71.9351 31.9273 72.8124 25.979 72.9294L27.0287 73.7483ZM29.0698 75.3275C31.1692 75.0936 37.9921 74.2162 42.6574 73.2219C45.0484 72.6955 47.4393 72.0521 49.772 71.3502C50.0635 71.2917 44.1153 72.637 40.7913 73.1634C38.9252 73.4558 30.8193 74.3917 28.0784 74.6256L29.0698 75.3275ZM30.9359 76.7313C32.3355 76.4973 38.7502 75.386 41.9576 74.5671C44.3486 73.9822 46.6812 73.2804 49.0722 72.52C49.3638 72.403 43.4155 73.9238 40.1498 74.5671C38.2837 74.9181 31.9273 75.7954 30.0612 76.0879L30.9359 76.7313ZM32.6271 77.9596C35.6012 77.3747 38.4587 76.7313 41.3161 75.9124C43.7071 75.269 46.0397 74.5087 48.3724 73.6898C48.664 73.5728 42.774 75.269 39.5084 75.9709C37.7006 76.3219 32.9186 77.1407 31.8106 77.3162L32.6271 77.9596ZM34.1433 79.1294C36.3593 78.603 38.5753 78.0181 40.733 77.3162C43.0656 76.6143 45.34 75.7954 47.6143 74.9181C47.9059 74.8011 42.0743 76.6143 38.8086 77.4332C37.0008 77.8426 35.193 78.252 33.3269 78.5445L34.1433 79.1294ZM35.5429 80.1822C37.0008 79.7728 38.4003 79.3048 39.7999 78.8369C42.1909 78.0181 44.5235 77.1407 46.8562 76.2049C47.0311 76.1464 41.3162 78.0766 37.9921 78.9539C36.9425 79.2464 35.8928 79.4803 34.8431 79.7143L35.5429 80.1822ZM36.8258 81.118C37.7589 80.8256 38.6336 80.4746 39.5667 80.1822C41.8993 79.3633 44.1736 78.4275 46.3896 77.4332C46.6812 77.3162 40.9079 79.4218 37.7006 80.3577C37.234 80.4746 36.7675 80.6501 36.301 80.7671L36.8258 81.118ZM37.9921 81.9954C38.342 81.8784 38.6919 81.7614 39.0418 81.586C41.3161 80.7086 43.5905 79.7143 45.8065 78.6614C46.0981 78.5445 40.6747 80.7086 37.6422 81.7029L37.9921 81.9954ZM5.45183 63.805C7.14299 64.8578 9.59226 66.437 9.88384 66.6125C13.791 69.0691 17.5815 71.5842 21.3721 74.1577C25.1626 76.7898 28.9532 79.4218 32.6854 82.1124C28.6033 79.4218 24.4628 76.7313 20.3224 74.1577C17.6399 72.52 6.4432 65.9106 5.27688 65.2672C5.27688 64.7993 5.39351 64.2729 5.45183 63.805ZM39.1001 82.8142L39.7999 82.5218C41.666 81.7029 43.4738 80.8256 45.2816 79.9482C45.5149 79.8313 41.7244 81.469 39.5084 82.3463L38.8669 82.5803L39.1001 82.8142ZM40.0915 83.5746L40.6747 83.2822C42.0159 82.6388 43.3572 81.9369 44.6985 81.1765C44.9317 81.0595 42.1909 82.3463 40.4997 83.1067L39.8582 83.3992L40.0915 83.5746ZM5.04361 66.4955C6.61815 67.4314 8.89247 68.7766 9.24236 69.0106C13.0912 71.2917 16.9401 73.6898 20.6723 76.0879C24.5795 78.603 28.37 81.1765 32.1605 83.7501C28.0201 81.118 23.8214 78.603 19.6226 76.1464C16.9401 74.5672 5.86004 68.4257 4.86867 67.8993C4.92698 67.4314 4.9853 66.9634 5.04361 66.4955ZM41.0246 84.2765L41.6077 83.9841C42.4825 83.5161 43.2989 83.0482 44.1736 82.5218C44.4069 82.4048 42.5991 83.2822 41.4328 83.8671L40.8496 84.1595L41.0246 84.2765ZM4.69372 69.0691C5.97667 69.771 7.9011 70.8238 8.19268 70.9993C12.2165 73.2804 16.182 75.62 20.0891 77.9596C24.0546 80.3577 27.9035 82.8143 31.7523 85.3293C27.4953 82.8143 23.2382 80.4162 18.9811 78.0181C16.2403 76.4973 5.3352 70.8238 4.46046 70.4144C4.46046 70.4144 4.46046 70.4144 4.46046 70.3559C4.57709 70.0049 4.6354 69.537 4.69372 69.0691ZM161.797 86.967C160.222 86.6161 158.006 86.1482 157.423 85.9727C153.341 85.0369 149.259 84.0425 145.294 82.9312C140.803 81.7614 136.429 80.4746 131.997 79.1879C136.779 80.3577 141.561 81.5275 146.285 82.5803C148.851 83.1652 159.114 85.3293 161.68 85.8557C161.797 85.8557 161.914 85.9142 161.972 85.9142C161.914 86.2652 161.855 86.6161 161.797 86.967ZM4.28551 71.6426C5.45183 72.2275 7.14299 73.1049 7.43457 73.2804C11.5167 75.4445 15.5405 77.6671 19.506 79.9482C23.5298 82.2293 27.4369 84.6274 31.4024 86.967C27.0871 84.5689 22.7717 82.2294 18.4563 80.0067C15.6571 78.603 4.86867 73.3389 4.11056 72.9879V72.9294C4.16888 72.52 4.22719 72.1106 4.28551 71.6426ZM3.93561 74.2162C4.81035 74.6256 6.20993 75.3275 6.4432 75.4445C10.7003 77.5501 14.899 79.7143 18.9811 81.9369C23.0632 84.1595 27.0287 86.3821 31.0525 88.6633C26.6788 86.3821 22.3051 84.1595 17.9314 82.0539C15.1323 80.7086 4.40214 75.7954 3.70235 75.503V75.4445C3.76066 75.0351 3.81898 74.6256 3.93561 74.2162ZM161.389 89.3651C160.514 89.1312 159.231 88.8387 159.056 88.7802C154.391 87.6104 149.842 86.3237 145.294 84.9784C140.862 83.6916 136.488 82.2878 132.114 80.8841C136.838 82.1709 141.561 83.4576 146.285 84.6274C148.792 85.2708 160.514 87.8444 161.622 88.0784C161.505 88.5463 161.447 88.9557 161.389 89.3651ZM3.5274 76.6728C4.51877 77.1407 5.97667 77.7841 6.32657 77.9596C10.467 79.8313 14.5491 81.8784 18.5146 83.8671C22.655 85.9727 26.6788 88.0784 30.761 90.301C26.3289 88.1368 21.8969 86.0312 17.4649 84.0425C14.6074 82.7558 3.93561 78.1935 3.29414 77.9596V77.9011C3.41077 77.4917 3.46908 77.0822 3.5274 76.6728ZM160.922 91.7632C160.106 91.5293 158.881 91.1783 158.59 91.1198C154.041 89.8331 149.551 88.4878 145.119 87.0255C140.745 85.6218 136.371 84.1595 132.056 82.5803C136.779 84.0425 141.445 85.3878 146.168 86.6746C149.142 87.4935 160.281 90.301 161.155 90.4764C161.097 90.9444 161.039 91.3538 160.922 91.7632ZM3.11919 79.1294C3.99393 79.4803 5.39351 80.0652 5.74341 80.2407C9.94216 82.0539 14.0243 83.9256 18.1064 85.8557C22.3051 87.8444 26.3873 89.8915 30.4694 91.9387C25.979 89.8915 21.4887 87.9029 17.0567 86.0312C14.1409 84.8029 3.46908 80.5916 2.94424 80.3577V80.2992C3.00256 79.9482 3.06087 79.5388 3.11919 79.1294ZM2.71098 81.586C3.64403 81.9369 5.04361 82.5218 5.51014 82.6973C9.65058 84.335 13.7327 86.0897 17.7565 87.9029C22.0136 89.7746 26.154 91.7048 30.2944 93.6934C25.7458 91.7632 21.2555 89.8915 16.7068 88.1368C13.791 86.967 3.06087 83.0482 2.53603 82.8727V82.8142C2.59434 82.4048 2.65266 81.9954 2.71098 81.586ZM160.514 94.1613C159.698 93.9274 158.531 93.5764 158.24 93.4594C153.749 92.0557 149.317 90.5934 144.944 89.0727C140.57 87.5519 136.255 85.9727 131.997 84.335C136.663 85.9142 141.328 87.3765 145.993 88.8387C148.967 89.7746 159.989 92.8161 160.689 92.9915C160.631 93.3425 160.572 93.7519 160.514 94.1613ZM2.30276 84.0425C3.00256 84.2765 4.16888 84.7444 4.51877 84.8614C8.89247 86.4406 13.2078 88.1953 17.4649 89.8915C21.722 91.6462 25.979 93.4594 30.1778 95.3311C25.6292 93.5179 21.0222 91.7632 16.4735 90.1255C13.4994 89.0727 2.71098 85.4463 2.18613 85.2708V85.2123C2.18613 84.8029 2.24445 84.452 2.30276 84.0425ZM160.106 96.5594C159.348 96.3255 158.123 95.8575 157.715 95.7406C153.341 94.2783 149.026 92.6991 144.769 91.0613C140.453 89.4236 136.196 87.7274 131.939 85.9727C136.546 87.6689 141.153 89.2482 145.818 90.8274C148.792 91.8217 159.756 95.1557 160.281 95.3311C160.222 95.7406 160.164 96.15 160.106 96.5594ZM1.89455 86.4406C2.65266 86.6746 3.8773 87.1425 4.28551 87.2595C8.65921 88.7217 12.9746 90.301 17.2317 91.9387C21.547 93.5764 25.8041 95.2726 30.0612 97.0273C25.4542 95.3311 20.8472 93.7519 16.182 92.1727C13.2079 91.1783 2.24445 87.8444 1.71961 87.6689C1.77792 87.2595 1.83624 86.8501 1.89455 86.4406ZM1.48634 88.8387C2.30277 89.0727 3.46908 89.4236 3.76066 89.5406C8.25099 90.9444 12.683 92.4066 17.0567 93.9274C21.4304 95.4481 25.7458 97.0273 30.0029 98.6651C25.3376 97.0858 20.6723 95.6236 16.007 94.1613C13.0329 93.2255 2.01119 90.184 1.31139 90.0085C1.31139 89.6576 1.42803 89.2482 1.48634 88.8387ZM159.698 98.9575C158.998 98.7236 157.831 98.2556 157.482 98.1387C153.108 96.5594 148.792 94.8047 144.535 93.1085C140.278 91.3538 136.021 89.5406 131.823 87.6689C136.371 89.4821 140.978 91.2368 145.527 92.8745C148.501 93.9274 159.289 97.5537 159.814 97.7292V97.7877C159.814 98.1971 159.756 98.5481 159.698 98.9575ZM1.07813 91.2368C1.89455 91.4708 3.11919 91.8217 3.41077 91.8802C7.95941 93.167 12.4497 94.5123 16.8818 95.9745C21.2555 97.3783 25.6292 98.8405 29.9445 100.42C25.2209 98.9575 20.5557 97.6122 15.8321 96.3255C12.858 95.5066 1.7196 92.6991 0.844865 92.5236C0.903181 92.0557 0.961497 91.6463 1.07813 91.2368ZM120.917 98.6651L120.334 98.9575C119.46 99.4254 118.643 99.8934 117.768 100.42C117.535 100.537 119.343 99.6594 120.509 99.0745L121.092 98.782L120.917 98.6651ZM159.289 101.414C158.356 101.063 156.957 100.478 156.49 100.303C152.35 98.6651 148.268 96.9104 144.244 95.0972C139.987 93.2255 135.846 91.2953 131.706 89.3067C136.255 91.2368 140.745 93.1085 145.294 94.8632C148.209 96.033 158.939 99.9518 159.464 100.127V100.186C159.406 100.595 159.348 101.005 159.289 101.414ZM121.909 99.3669L121.326 99.6594C119.984 100.303 118.643 101.005 117.302 101.765C117.069 101.882 119.809 100.595 121.501 99.8349L122.142 99.5424L121.909 99.3669ZM0.611602 93.6349C1.48634 93.8689 2.76929 94.1613 2.94424 94.2198C7.60952 95.3896 12.1582 96.6764 16.7068 98.0217C21.1388 99.3085 25.5125 100.712 29.8862 102.116C25.1626 100.829 20.439 99.5424 15.7154 98.3726C13.2079 97.7292 1.48634 95.1557 0.378338 94.9217C0.49497 94.4538 0.553286 94.0443 0.611602 93.6349ZM122.9 100.127L122.2 100.42C120.334 101.239 118.526 102.116 116.719 102.993C116.485 103.11 120.276 101.473 122.492 100.595L123.133 100.361L122.9 100.127ZM0.20339 96.033C1.77792 96.3839 3.99393 96.8519 4.57709 97.0273C8.65921 97.9632 12.683 98.9575 16.7068 100.069C21.1971 101.239 25.5708 102.525 30.0029 103.812C25.2209 102.642 20.439 101.473 15.7154 100.42C13.1495 99.8349 2.88592 97.6707 0.320022 97.1443C0.20339 97.1443 0.0867583 97.0858 0.0284424 97.0858C0.0867583 96.7349 0.145074 96.3839 0.20339 96.033ZM158.881 103.812C158.006 103.461 156.607 102.876 156.257 102.701C152.058 100.888 147.976 99.016 143.894 97.0858C139.695 95.0972 135.613 93.05 131.531 91.0029C136.021 93.05 140.512 95.0387 144.944 96.9104C147.859 98.1386 158.531 102.35 159.056 102.584V102.642C158.998 103.052 158.939 103.461 158.881 103.812ZM124.008 101.005C123.658 101.122 123.308 101.239 122.959 101.414C120.684 102.291 118.41 103.286 116.194 104.339C115.902 104.456 121.326 102.291 124.358 101.297L124.008 101.005ZM125.175 101.882C124.241 102.174 123.367 102.525 122.434 102.818C120.101 103.637 117.827 104.573 115.611 105.567C115.319 105.684 121.092 103.578 124.3 102.642C124.766 102.525 125.233 102.35 125.699 102.233L125.175 101.882ZM158.473 106.327C157.482 105.859 156.024 105.216 155.674 105.04C151.533 103.169 147.451 101.122 143.486 99.133C139.345 97.0273 135.321 94.9217 131.239 92.6991C135.671 94.8632 140.103 96.9688 144.535 98.9575C147.393 100.244 158.065 104.807 158.706 105.04V105.099C158.59 105.508 158.531 105.918 158.473 106.327ZM126.457 102.818C125 103.227 123.6 103.695 122.2 104.163C119.809 104.982 117.477 105.859 115.144 106.795C114.969 106.854 120.684 104.924 124.008 104.046C125.058 103.754 126.108 103.52 127.157 103.286L126.457 102.818ZM5.74341 62.4597C9.70889 63.571 14.1992 64.6238 15.1323 64.7993L15.8904 65.3257C20.0308 66.0276 26.3289 66.554 30.2361 66.8465C32.5688 67.0219 34.9597 67.0804 37.2923 67.0804C40.4997 67.0804 43.5905 66.9634 46.6812 66.671C49.1305 66.437 51.5798 66.1446 54.029 65.7351C57.0031 65.2672 59.9773 64.6238 62.8931 63.922C68.6663 62.4597 74.3813 60.471 79.863 58.0145C85.5197 55.4994 91.0014 52.4579 96.1915 48.9485C101.498 45.3806 106.513 41.4033 111.237 37.075C115.669 33.0392 119.809 28.7109 123.658 24.1487C123.775 24.2072 123.833 24.3242 123.95 24.3827C121.734 26.9562 119.46 29.4713 117.127 31.9279C113.628 35.5543 109.896 39.0637 105.93 42.3391C101.557 45.9655 96.8913 49.3579 92.051 52.3409C87.4441 55.2069 82.5455 57.7805 77.4137 59.8861C72.8068 61.8163 67.5583 65.0918 64.0594 68.6597C61.96 70.7653 59.6857 72.6955 57.353 74.5671C55.0787 76.3803 52.6878 78.135 50.2385 79.7728C47.7892 81.4105 45.2816 82.9312 42.6574 84.335C42.5408 84.3935 42.3658 84.452 42.3075 84.5105C42.3658 84.452 42.4241 84.452 42.4241 84.452C54.4372 94.0443 66.7419 103.871 68.5497 105.333C68.6663 105.45 68.783 105.508 68.783 105.508C69.2495 105.976 69.4244 107.322 69.4244 107.38C68.608 106.737 42.5991 86.3821 21.0805 72.0521C18.4563 70.2974 7.08467 63.2786 5.68509 62.4012V62.2257L5.74341 62.4597ZM127.857 103.871C125.641 104.397 123.425 104.982 121.267 105.684C118.935 106.386 116.66 107.205 114.386 108.082C114.094 108.199 119.926 106.386 123.192 105.567C125 105.157 126.807 104.748 128.673 104.456L127.857 103.871ZM158.065 108.784C157.19 108.374 155.79 107.673 155.557 107.556C151.3 105.45 147.101 103.286 143.019 101.063C138.937 98.8405 134.972 96.6179 130.948 94.3368C135.321 96.6179 139.695 98.8405 144.069 100.946C146.868 102.291 157.598 107.205 158.298 107.497V107.556C158.24 107.965 158.123 108.374 158.065 108.784ZM129.373 105.04C126.399 105.625 123.542 106.269 120.684 107.088C118.293 107.731 115.961 108.491 113.628 109.31C113.336 109.427 119.226 107.731 122.492 107.029C124.3 106.678 129.082 105.859 130.19 105.684L129.373 105.04ZM131.064 106.269C129.665 106.503 123.25 107.614 120.043 108.433C117.652 109.018 115.319 109.72 112.928 110.48C112.637 110.597 118.585 109.076 121.85 108.433C123.717 108.082 130.073 107.205 131.939 106.912L131.064 106.269ZM157.715 111.357C156.548 110.773 154.857 109.895 154.566 109.72C150.484 107.556 146.46 105.333 142.494 103.052C138.471 100.771 134.563 98.3726 130.598 96.033C134.913 98.4311 139.229 100.771 143.544 102.993C146.343 104.456 157.132 109.72 157.89 110.071V110.129C157.831 110.48 157.773 110.889 157.715 111.357ZM132.931 107.673C130.831 107.906 124.008 108.784 119.343 109.778C116.952 110.305 114.561 110.948 112.228 111.65C111.937 111.708 117.885 110.363 121.209 109.837C123.075 109.544 131.181 108.608 133.922 108.374L132.931 107.673ZM134.972 109.252C132.464 109.369 124.883 109.954 118.585 111.182C116.194 111.65 113.803 112.235 111.412 112.878C111.12 112.937 117.127 111.767 120.451 111.299C122.375 111.065 130.073 110.188 136.021 110.071L134.972 109.252ZM157.307 113.931C156.024 113.229 154.099 112.176 153.808 112.001C149.784 109.72 145.818 107.38 141.911 105.04C137.946 102.642 134.097 100.186 130.248 97.6707C134.505 100.186 138.762 102.584 143.019 104.982C145.76 106.503 156.665 112.176 157.54 112.586C157.54 112.586 157.54 112.586 157.54 112.644C157.423 112.995 157.365 113.463 157.307 113.931ZM137.304 111.006C133.28 110.948 124.941 111.299 117.827 112.469C115.377 112.878 112.986 113.346 110.596 113.931C110.304 113.989 116.31 112.937 119.693 112.644C123.717 112.235 132.172 111.767 137.013 111.825C137.479 111.825 138.004 111.825 138.471 111.884L137.304 111.006ZM139.987 112.995C134.913 112.644 125.641 112.586 117.302 113.697C115.144 113.989 110.129 114.925 109.779 115.042C109.488 115.101 115.494 114.223 118.876 113.989C129.781 113.171 137.946 113.697 141.27 113.989L139.987 112.995ZM143.078 115.335C134.913 114.282 124.766 114.048 116.136 115.042C113.686 115.335 111.237 115.686 108.846 116.154C108.554 116.212 114.736 115.51 118.118 115.276C124.241 114.925 133.222 114.75 144.594 116.446L143.078 115.335ZM156.957 116.505C155.382 115.569 153.108 114.223 152.758 113.989C148.909 111.708 145.06 109.31 141.328 106.912C137.421 104.397 133.63 101.824 129.84 99.25C134.039 101.882 138.179 104.397 142.378 106.854C145.06 108.433 156.14 114.574 157.132 115.101C157.073 115.569 157.015 116.037 156.957 116.505ZM156.549 119.195C154.857 118.142 152.408 116.563 152.116 116.388C148.209 113.931 144.419 111.416 140.628 108.842C136.838 106.21 133.047 103.578 129.315 100.888C133.397 103.578 137.537 106.269 141.678 108.842C144.36 110.48 155.557 117.089 156.723 117.733C156.665 118.201 156.607 118.669 156.549 119.195ZM156.024 123.055C151.533 121.242 146.868 119.897 142.203 118.903C135.38 117.44 128.382 116.68 121.384 116.738C120.917 116.738 122.317 116.68 123.483 116.68C127.157 116.68 130.773 116.797 134.388 117.148C141.445 117.85 148.443 119.195 155.149 121.242C155.499 121.359 155.849 121.476 156.14 121.535C156.14 122.061 156.082 122.529 156.024 123.055ZM156.257 120.482C152.291 119.371 147.801 118.318 146.868 118.142L146.11 117.616C141.97 116.914 135.671 116.388 131.764 116.095C129.373 115.92 127.041 115.861 124.708 115.861C121.501 115.861 118.41 115.978 115.319 116.271C112.87 116.505 110.421 116.797 107.971 117.206C104.997 117.674 102.023 118.318 99.1073 119.02C93.334 120.482 87.619 122.471 82.1373 124.927C76.4807 127.442 70.999 130.484 65.8089 133.993C60.5021 137.561 55.4869 141.538 50.7633 145.867C46.3313 149.902 42.1909 154.231 38.342 158.793C38.2254 158.734 38.1671 158.617 38.0504 158.559C40.2665 155.985 42.5408 153.47 44.8734 151.014C48.3724 147.387 52.1046 143.878 56.0701 140.602C60.4438 136.976 65.1091 133.584 69.9493 130.601C74.5563 127.735 79.4548 125.161 84.5866 123.055C89.1936 121.125 94.442 117.85 97.9409 114.282C100.04 112.176 102.315 110.246 104.647 108.374C106.922 106.561 109.313 104.807 111.762 103.169C114.211 101.531 116.719 100.01 119.343 98.6066C119.46 98.5481 119.634 98.4896 119.693 98.4311C119.634 98.4896 119.576 98.4896 119.576 98.4896C107.563 88.8972 95.2584 79.0709 93.4506 77.6086C93.334 77.4917 93.2174 77.4332 93.2174 77.4332C92.7508 76.9652 92.5759 75.62 92.5759 75.5615C93.3923 76.2049 119.401 96.5594 140.92 110.889C143.544 112.644 154.916 119.663 156.315 120.54V120.599V120.657L156.257 120.482ZM39.7416 159.904C43.9404 154.816 48.489 149.961 53.3876 145.457C57.8196 141.363 62.5432 137.619 67.5583 134.227C67.7333 134.11 61.7267 138.497 58.6943 141.129C54.7288 144.521 50.88 148.206 47.3227 152.067C44.8734 154.699 42.4825 157.448 40.2665 160.314C40.0332 160.197 39.9166 160.021 39.7416 159.904ZM41.3161 161.249C45.5149 155.81 50.0635 150.663 55.0787 145.867C59.3941 141.714 64.0594 137.795 68.9579 134.286C69.1329 134.169 63.243 138.731 60.2688 141.363C56.3617 144.872 52.6878 148.616 49.1888 152.593C46.6229 155.517 44.1736 158.559 41.841 161.659C41.6077 161.542 41.4328 161.366 41.3161 161.249ZM42.8324 162.595C47.0311 156.804 51.6381 151.306 56.6532 146.159C60.852 141.889 65.4006 137.853 70.2409 134.227C70.4741 134.052 64.6425 138.789 61.7267 141.538C57.9362 145.106 54.3206 149.025 50.9383 153.061C48.2557 156.278 45.7482 159.612 43.2989 163.004C43.1823 162.887 43.0073 162.712 42.8324 162.595ZM44.4652 163.94C48.664 157.74 53.2709 151.891 58.4027 146.393C62.4848 142.006 66.9169 137.853 71.6988 134.11C71.8737 133.993 66.2171 138.848 63.3596 141.655C59.6274 145.34 56.1284 149.317 52.8627 153.47C50.0635 156.98 47.4976 160.665 44.9901 164.408C44.7568 164.232 44.5818 164.115 44.4652 163.94ZM46.0397 165.344C50.2385 158.734 54.8455 152.476 60.0356 146.627C64.0011 142.123 68.3748 137.853 72.9817 133.993C73.1567 133.876 67.6166 138.906 64.8758 141.772C61.2602 145.574 57.8779 149.61 54.7288 153.821C51.8713 157.682 49.1305 161.659 46.6229 165.812C46.3896 165.695 46.2147 165.519 46.0397 165.344ZM47.6726 166.806C51.813 159.787 56.42 153.061 61.7267 146.802C65.5756 142.182 69.8327 137.795 74.323 133.818C74.4979 133.642 69.0745 138.848 66.392 141.772C62.8931 145.633 59.569 149.785 56.5366 154.114C53.5625 158.325 50.7633 162.712 48.1974 167.274C48.0225 167.157 47.8475 166.981 47.6726 166.806ZM49.3638 168.268C53.4459 160.782 58.0528 153.646 63.4179 146.919C67.1501 142.182 71.2906 137.736 75.6643 133.642C75.8392 133.467 70.5324 138.789 67.9665 141.831C64.5259 145.808 61.3768 150.019 58.461 154.406C55.3703 159.027 52.5711 163.823 49.9469 168.795C49.7136 168.619 49.5387 168.444 49.3638 168.268ZM51.0549 169.847C51.2299 169.497 51.4048 169.146 51.5798 168.795C55.4869 161.191 59.9189 153.88 65.0507 147.095C68.6663 142.299 72.6318 137.678 76.9472 133.467C77.1222 133.291 71.9903 138.789 69.4244 141.831C66.1004 145.867 63.068 150.195 60.2105 154.64C57.0031 159.67 54.1457 164.934 51.5214 170.315C51.4048 170.14 51.2299 169.964 51.0549 169.847ZM52.8044 171.368C53.1543 170.608 53.5042 169.906 53.8541 169.146C57.528 161.425 61.7851 154.055 66.8002 147.095C70.2992 142.182 74.148 137.502 78.3468 133.174C78.5217 132.999 73.5066 138.614 71.0573 141.772C67.8499 145.925 64.8758 150.312 62.1933 154.816C58.9276 160.314 56.0118 166.046 53.3876 171.953C53.1543 171.719 52.9793 171.544 52.8044 171.368ZM54.5539 173.006C55.0787 171.836 55.5452 170.666 56.0701 169.497C59.569 161.717 63.5928 154.172 68.4331 147.095C71.8154 142.123 75.5476 137.327 79.6297 132.882C79.8047 132.706 74.9645 138.438 72.5735 141.655C69.4828 145.867 66.6253 150.37 64.0594 154.933C60.7937 160.782 57.8779 166.923 55.312 173.181C55.2537 173.298 55.1953 173.415 55.137 173.591C54.9621 173.415 54.7871 173.181 54.5539 173.006ZM56.42 174.702C57.0615 173.064 57.7029 171.368 58.4027 169.731C61.6684 161.834 65.5756 154.231 70.1825 147.036C73.4482 141.948 77.0055 137.093 81.0293 132.531C81.2043 132.355 76.4807 138.204 74.2064 141.48C71.2322 145.808 68.4914 150.312 66.0421 154.991C62.8931 160.899 60.1522 167.157 57.7612 173.474C57.528 174.059 57.2947 174.702 57.0615 175.287C56.8282 175.112 56.5949 174.878 56.42 174.702ZM58.2861 176.457C59.0442 174.293 59.8023 172.129 60.677 169.964C63.7678 162.01 67.4417 154.289 71.8154 146.919C74.9061 141.772 78.4051 136.801 82.254 132.121C82.3706 131.946 77.8803 137.912 75.6643 141.246C72.8068 145.633 70.1826 150.253 67.8499 154.991C64.8758 161.016 62.3099 167.274 60.0939 173.708C59.6857 174.819 59.3358 175.93 58.9859 177.1C58.7526 176.866 58.5194 176.691 58.2861 176.457ZM60.2688 178.329C61.0853 175.58 62.0183 172.889 62.9514 170.14C65.8089 162.127 69.3078 154.289 73.5066 146.861C76.4807 141.597 79.8047 136.567 83.5369 131.829C83.6535 131.653 79.2798 137.736 77.1805 141.129C74.4396 145.574 71.932 150.253 69.716 155.05C66.9169 161.132 64.4676 167.508 62.4265 173.942C61.9017 175.638 61.3768 177.276 60.9103 179.03C60.677 178.738 60.5021 178.504 60.2688 178.329ZM62.2516 180.259C63.1263 176.925 64.1177 173.591 65.2257 170.257C67.9082 162.127 71.1156 154.231 75.1977 146.685C78.0552 141.363 81.2626 136.216 84.8782 131.361C84.9948 131.186 80.7961 137.385 78.755 140.836C76.1308 145.34 73.7398 150.078 71.6404 154.933C68.9579 161.074 66.7419 167.508 64.8175 174C64.176 176.281 63.5345 178.563 62.9514 180.902C62.7764 180.668 62.4848 180.434 62.2516 180.259ZM64.4093 182.247C65.3423 178.212 66.3337 174.234 67.5583 170.257C70.0076 162.068 73.04 154.114 76.8889 146.451C79.5714 141.07 82.6622 135.806 86.1611 130.893C86.2778 130.718 82.254 137.035 80.3295 140.485C77.8219 145.106 75.5476 149.902 73.6232 154.757C71.1156 160.957 69.0745 167.449 67.3251 174C66.567 176.925 65.8672 179.908 65.2257 182.949C64.8758 182.715 64.6425 182.481 64.4093 182.247Z" fill="#9BD6AE"/>
</svg>
