<svg width="19" height="23" viewBox="0 0 19 23" fill="none" xmlns="http://www.w3.org/2000/svg">
<path d="M17.5144 10.167H16.3855V6.88528C16.3855 3.08874 13.2968 0 9.50024 0C5.70369 0 2.61495 3.08874 2.61495 6.88528V10.167H1.48606C0.8282 10.167 0.294922 10.7002 0.294922 11.3581V21.8087C0.294922 22.4666 0.8282 22.9999 1.48606 22.9999H17.5144C18.1723 22.9999 18.7056 22.4666 18.7056 21.8087V11.3582C18.7056 10.7003 18.1723 10.167 17.5144 10.167ZM5.50685 6.88528C5.50685 4.68333 7.29828 2.89189 9.50024 2.89189C11.7022 2.89189 13.4936 4.68333 13.4936 6.88528V10.167H5.50685V6.88528ZM10.7983 16.9797V19.116C10.7983 19.8329 10.2172 20.414 9.50024 20.414C8.7833 20.414 8.20214 19.8329 8.20214 19.116V16.9797C7.71928 16.5966 7.40921 16.0052 7.40921 15.3409C7.40921 14.1861 8.34538 13.2498 9.50024 13.2498C10.6551 13.2498 11.5913 14.1861 11.5913 15.3409C11.5913 16.0052 11.2812 16.5967 10.7983 16.9797Z" fill="black"/>
</svg>
