<svg width="17" height="22" viewBox="0 0 17 22" fill="none" xmlns="http://www.w3.org/2000/svg">
<path d="M12.0503 11.5886C14.526 8.73366 14.361 4.36724 11.3901 1.68022C8.58427 -0.838863 4.12796 -0.502985 1.65223 2.35198C-0.823494 5.37488 -0.493397 9.74129 2.31243 12.2604C5.2833 14.7795 9.57457 14.6115 12.0503 11.5886ZM3.30272 11.2527C1.15709 9.23747 0.826992 5.71076 2.80757 3.35961C4.78816 1.1764 8.25418 0.840527 10.3998 2.85579C12.7105 4.87106 12.8755 8.39778 10.895 10.581C8.91437 12.7642 5.44835 13.1001 3.30272 11.2527Z" fill="#9BD6AE"/>
<path d="M16.6708 18.8091C16.6708 18.8091 14.8553 16.7938 12.2145 12.5953C11.3893 13.435 10.399 14.1068 9.24365 14.4427C11.7194 18.8091 13.2048 21.1602 13.2048 21.1602C13.865 21.9999 15.1854 22.3358 16.0106 21.832C17.0009 21.1602 17.331 19.8167 16.6708 18.8091Z" fill="#9BD6AE"/>
<path d="M6.93572 3.86328C5.28523 3.86328 3.96484 5.37473 3.96484 7.05412C3.96484 8.73351 5.28523 10.077 6.93572 10.077C8.5862 10.077 9.90659 8.73351 9.90659 7.05412C9.90659 5.37473 8.75125 3.86328 6.93572 3.86328ZM7.26581 9.06939V9.74114H6.44057V9.23733C6.11047 9.23733 5.61533 9.06939 5.45028 8.90145L5.61533 8.06175H5.78038C6.27552 8.22969 6.44057 8.39763 6.77067 8.39763C7.10077 8.39763 7.43086 8.22969 7.43086 7.89382C7.43086 7.72588 7.26581 7.55794 6.77067 7.39C6.27552 7.22206 5.45028 6.88618 5.45028 6.21443C5.45028 5.54267 5.78038 5.20679 6.44057 5.03885V4.3671H7.10077V4.87091C7.26581 4.87091 7.76096 5.03885 7.92601 5.20679V6.04649H7.76096C7.59591 6.04649 7.43086 5.87855 6.93572 5.87855C6.60562 5.87855 6.44057 5.87855 6.44057 6.04649C6.44057 6.21443 6.60562 6.38236 7.10077 6.5503C7.92601 6.88618 8.25611 7.22206 8.25611 7.89382C8.42115 8.56557 7.92601 8.90145 7.26581 9.06939Z" fill="#9BD6AE"/>
</svg>
