<svg width="25" height="24" viewBox="0 0 25 24" fill="none" xmlns="http://www.w3.org/2000/svg">
<path d="M3.02504 19.3084L3.14343 19.033L2.95637 18.7988C1.36783 16.8101 0.5 14.3415 0.5 11.7996C0.5 5.56829 5.56829 0.5 11.7996 0.5H11.7997H11.7999H11.8H11.8001H11.8002H11.8003H11.8004H11.8005H11.8006H11.8008H11.8009H11.801H11.8011H11.8012H11.8013H11.8014H11.8015H11.8016H11.8018H11.8019H11.802H11.8021H11.8022H11.8023H11.8024H11.8025H11.8026H11.8027H11.8028H11.803H11.8031H11.8032H11.8033H11.8034H11.8035H11.8036H11.8037H11.8038H11.8039H11.804H11.8041H11.8042H11.8044H11.8045H11.8046H11.8047H11.8048H11.8049H11.805H11.8051H11.8052H11.8053H11.8054H11.8055H11.8056H11.8057H11.8058H11.8059H11.806H11.8061H11.8063H11.8064H11.8065H11.8066H11.8067H11.8068H11.8069H11.807H11.8071H11.8072H11.8073H11.8074H11.8075H11.8076H11.8077H11.8078H11.8079H11.808H11.8081H11.8082H11.8083H11.8084H11.8085H11.8086H11.8087H11.8088H11.8089H11.809H11.8091H11.8092H11.8093H11.8094H11.8095H11.8096H11.8097H11.8098H11.8099H11.81H11.8101H11.8102H11.8103H11.8104H11.8105H11.8106H11.8107H11.8108H11.8109H11.811H11.8111H11.8112H11.8113H11.8114H11.8115H11.8116H11.8117H11.8118H11.8118H11.8119H11.812H11.8121H11.8122H11.8123H11.8124H11.8125H11.8126H11.8127H11.8128H11.8129H11.813H11.8131H11.8132H11.8133H11.8134H11.8135H11.8135H11.8136H11.8137H11.8138H11.8139H11.814H11.8141H11.8142H11.8143H11.8144H11.8145H11.8146H11.8147H11.8147H11.8148H11.8149H11.815H11.8151H11.8152H11.8153H11.8154H11.8155H11.8156H11.8157H11.8157H11.8158H11.8159H11.816H11.8161H11.8162H11.8163H11.8164H11.8165H11.8165H11.8166H11.8167H11.8168H11.8169H11.817H11.8171H11.8172H11.8172H11.8173H11.8174H11.8175H11.8176H11.8177H11.8178H11.8179H11.8179H11.818H11.8181H11.8182H11.8183H11.8184H11.8185H11.8185H11.8186H11.8187H11.8188H11.8189H11.819H11.819H11.8191H11.8192H11.8193H11.8194H11.8195H11.8195H11.8196H11.8197H11.8198H11.8199H11.82H11.82H11.8201H11.8202H11.8203H11.8204H11.8205H11.8205H11.8206H11.8207H11.8208H11.8209H11.8209H11.821H11.8211H11.8212H11.8213H11.8213H11.8214H11.8215H11.8216H11.8217H11.8217H11.8218H11.8219H11.822H11.8221H11.8221H11.8222H11.8223H11.8224H11.8224H11.8225H11.8226H11.8227H11.8228H11.8228H11.8229H11.823H11.8231H11.8231H11.8232H11.8233H11.8234H11.8234H11.8235H11.8236H11.8237H11.8237H11.8238H11.8239H11.824H11.824H11.8241H11.8242H11.8243H11.8243H11.8244H11.8245H11.8246H11.8246H11.8247H11.8248H11.8249H11.8249H11.825H11.8251H11.8252H11.8252H11.8253H11.8254H11.8254H11.8255H11.8256H11.8257H11.8257H11.8258H11.8259H11.8259H11.826H11.8261H11.8262H11.8262H11.8263H11.8264H11.8264H11.8265H11.8266H11.8266H11.8267H11.8268H11.8268H11.8269H11.827H11.8271H11.8271H11.8272H11.8273H11.8273H11.8274H11.8275H11.8275H11.8276H11.8277H11.8277H11.8278H11.8279H11.8279H11.828H11.8281H11.8281H11.8282H11.8283H11.8283H11.8284H11.8285H11.8285H11.8286H11.8287H11.8287H11.8288H11.8289H11.8289H11.829H11.829H11.8291H11.8292H11.8292H11.8293H11.8294H11.8294H11.8295H11.8296H11.8296H11.8297H11.8297H11.8298H11.8299H11.8299H11.83H11.8301H11.8301H11.8302H11.8302H11.8303H11.8304H11.8304H11.8305H11.8305H11.8306H11.8307H11.8307H11.8308H11.8308H11.8309H11.831H11.831H11.8311H11.8311H11.8312H11.8313H11.8313H11.8314H11.8314H11.8315H11.8316H11.8316H11.8317H11.8317H11.8318H11.8318H11.8319H11.832H11.832H11.8321H11.8321H11.8322H11.8322H11.8323H11.8324H11.8324H11.8325H11.8325H11.8326H11.8326H11.8327H11.8327H11.8328H11.8329H11.8329H11.833H11.833H11.8331H11.8331H11.8332H11.8332H11.8333H11.8333H11.8334H11.8334H11.8335H11.8336H11.8336H11.8337H11.8337H11.8338H11.8338H11.8339H11.8339H11.834H11.834H11.8341H11.8341H11.8342H11.8342H11.8343H11.8343H11.8344H11.8344H11.8345H11.8345H11.8346H11.8346H11.8347H11.8347H11.8348H11.8348H11.8349H11.8349H11.835H11.835H11.8351H11.8351H11.8352H11.8352H11.8353H11.8353H11.8354H11.8354H11.8355H11.8355H11.8355H11.8356H11.8356H11.8357H11.8357H11.8358H11.8358H11.8359H11.8359H11.836H11.836H11.8361H11.8361H11.8361H11.8362H11.8362H11.8363H11.8363H11.8364H11.8364H11.8365H11.8365H11.8365H11.8366H11.8366H11.8367H11.8367H11.8368H11.8368H11.8368H11.8369H11.8369H11.837H11.837H11.8371H11.8371H11.8371H11.8372H11.8372H11.8373H11.8373H11.8373H11.8374H11.8374H11.8375H11.8375H11.8376H11.8376H11.8376H11.8377H11.8377H11.8378H11.8378H11.8378H11.8379H11.8379H11.8379H11.838C18.0495 0.506285 23.0794 5.55451 23.0671 11.7665V11.7675C23.0671 17.9988 17.9988 23.0671 11.7675 23.0671L11.7651 23.0671C10.4871 23.0732 9.22086 22.8521 8.01528 22.4154L7.88985 22.3699L7.75847 22.393L1.46869 23.4981C1.43304 23.5031 1.40437 23.4976 1.38625 23.4896L1.38629 23.4895L1.37679 23.4855C1.31375 23.459 1.27564 23.3769 1.30791 23.3021L1.30814 23.3016L3.02504 19.3084Z" stroke="#9BD6AE"/>
<line x1="7.5" y1="10.5" x2="11.5" y2="10.5" stroke="#9BD6AE" stroke-linecap="round"/>
<line x1="7.5" y1="12.5" x2="14.5" y2="12.5" stroke="#9BD6AE" stroke-linecap="round"/>
<circle cx="20.5" cy="19.5" r="4.15" fill="#1B1B1B" stroke="#9BD6AE" stroke-width="0.7"/>
<line x1="18.5" y1="19.5" x2="22.5" y2="19.5" stroke="#9BD6AE" stroke-linecap="round"/>
<line x1="20.5" y1="17.5" x2="20.5" y2="21.5" stroke="#9BD6AE" stroke-linecap="round"/>
</svg>
