<svg width="29" height="30" viewBox="0 0 29 30" fill="none" xmlns="http://www.w3.org/2000/svg">
<path d="M24.685 5.75948C24.4883 5.63459 24.2383 5.6095 24.0179 5.69256C21.6793 6.57989 18.7321 6.36174 15.2679 5.04881C15.0961 4.98373 14.9039 4.98373 14.7321 5.04881C11.265 6.36308 8.31929 6.57922 5.98214 5.69256C5.61643 5.55395 5.20009 5.71933 5.05214 6.06195C5.0175 6.14208 4.99982 6.22773 5 6.31423V14.1202C5 23.0143 14.76 24.9676 14.8571 24.9863C14.9514 25.0046 15.0486 25.0046 15.1429 24.9863C15.2414 24.9676 25 23.0143 25 14.1202V6.31423C25 6.09172 24.8819 5.88386 24.685 5.75948ZM23.5714 14.1202C23.5714 21.445 16.1793 23.3823 15 23.6446C13.8814 23.3856 6.42857 21.3835 6.42857 14.1202V7.24572C8.86286 7.8694 11.7407 7.58567 15 6.39051C18.2593 7.58567 21.1364 7.8694 23.5714 7.24572V14.1202Z" fill="#9BD6AE" stroke="#9BD6AE"/>
<path d="M18.4286 12.6287H18.0206V12.1828C17.9471 10.3498 16.5975 8.92905 15 9.00274C13.4027 8.92978 12.0536 10.3501 11.9794 12.1828V12.6287H11.5714C11.2559 12.6287 11 12.9223 11 13.2845V19.3442C11 19.7064 11.2559 20 11.5714 20H18.4286C18.7441 20 19 19.7064 19 19.3442V13.2845C19 12.9223 18.7441 12.6287 18.4286 12.6287ZM13.1223 12.1828C13.1987 11.076 14.0346 10.2443 15 10.3144C15.9661 10.2421 16.8031 11.075 16.8777 12.1828V12.6287H13.1223V12.1828ZM17.8571 18.6884H12.1429V13.9403H17.8571V18.6884Z" fill="#9BD6AE"/>
<path d="M15.9685 15.4328C15.6098 14.9685 14.9119 14.8609 14.4096 15.1924C13.9073 15.5239 13.7909 16.169 14.1496 16.6333C14.2213 16.7262 14.3092 16.8074 14.4096 16.8737H14.4044C14.4044 16.8779 14.4044 16.8821 14.4044 16.8869V17.7307C14.4044 18.0635 14.6964 18.3333 15.0564 18.3333C15.4165 18.3333 15.7085 18.0635 15.7085 17.7307V16.8869C15.7085 16.8821 15.7085 16.8779 15.7085 16.8737C16.2108 16.5421 16.3272 15.8971 15.9685 15.4328ZM15.0747 16.223C14.9668 16.2277 14.8752 16.1506 14.8702 16.0509C14.87 16.0482 14.87 16.0454 14.87 16.0427C14.8678 15.9453 14.9511 15.8645 15.0564 15.8619C15.1644 15.8572 15.256 15.9343 15.2609 16.034C15.266 16.1337 15.1826 16.2184 15.0747 16.223Z" fill="#9BD6AE"/>
</svg>
