<svg width="25" height="22" viewBox="0 0 25 22" fill="none" xmlns="http://www.w3.org/2000/svg">
<g clip-path="url(#clip0)">
<path fill-rule="evenodd" clip-rule="evenodd" d="M24.25 3.54053C21.5 3.54053 18.5 3.54053 15.75 3.54053C15.5 3.54053 15.25 3.54053 15.25 3.54053C15.25 3.7934 15.25 4.29915 15.25 4.8049C15.5 4.8049 15.75 4.8049 16 4.8049C16 5.31064 16 6.06926 16 6.57501C13.75 6.57501 11.5 6.57501 9.25 6.57501C9.25 5.81639 9.25 5.31064 9.25 4.8049C9.5 4.8049 9.5 4.8049 10 4.8049C10 4.29915 10 3.7934 10 3.54053C7 3.54053 3.75 3.54053 0.75 3.54053C0.25 3.54053 0 3.7934 0 4.29915C0 6.32214 0.25 8.09225 0.25 9.86237C0.25 13.6555 0 17.4486 0 21.2417C0 22.0003 0.25 22.0003 1 22.0003C8.75 22.0003 16.5 22.0003 24.25 22.0003C24.75 22.0003 25 22.0003 25 21.2417C25 15.4256 25 10.1152 25 4.29915C25 3.54053 25 3.54053 24.25 3.54053ZM3.25 8.85087C9.5 8.85087 15.75 8.85087 22.25 8.85087C22.25 9.35662 22.25 9.86237 22.25 10.3681C15.75 10.3681 9.5 10.3681 3.25 10.3681C3.25 9.86237 3.25 9.35662 3.25 8.85087ZM22 13.9083C15.5 13.9083 9.25 13.9083 3 13.9083C3 13.4026 3 13.1497 3 12.3911C9.25 12.3911 15.5 12.3911 22 12.3911C22 12.8968 22 13.4026 22 13.9083ZM3.25 14.9198C9.5 14.9198 15.75 14.9198 22 14.9198C22 15.4256 22 15.9313 22 16.4371C15.75 16.4371 9.5 16.4371 3.25 16.4371C3.25 15.9313 3.25 15.4256 3.25 14.9198ZM21.75 19.9773C15.5 19.9773 9.25 19.9773 3 19.9773C3 19.2187 3 18.9658 3 18.4601C9.25 18.4601 15.5 18.4601 21.75 18.4601C21.75 18.9658 21.75 19.2187 21.75 19.9773Z" fill="#9BD6AE"/>
<path fill-rule="evenodd" clip-rule="evenodd" d="M14.5044 0C13.2544 0 12.2544 0 10.7544 0C10.7544 2.02299 10.7544 3.7931 10.7544 6.06897C12.2544 6.06897 13.2544 6.06897 14.5044 6.06897C14.5044 3.7931 14.5044 2.02299 14.5044 0Z" fill="#9BD6AE"/>
</g>
<defs>
<clipPath id="clip0">
<rect width="25" height="22" fill="white"/>
</clipPath>
</defs>
</svg>
