<svg width="28" height="29" viewBox="0 0 28 29" fill="none" xmlns="http://www.w3.org/2000/svg">
<g clip-path="url(#clip0)">
<path d="M28 15.0018L25.4831 13.0929C24.5393 8.32079 20.764 4.18495 15.7303 3.23053L14 0.5L12.2697 3.23053C7.23595 4.18495 3.14607 8.32079 2.51685 13.0929L0 15C0 15 0 14.6836 0 15.0018L2.51685 16.5925C2.83146 22.0009 7.23595 26.1367 12.2697 26.773L13.8427 29L15.4157 26.773C20.764 26.1367 24.8539 22.0009 25.4831 16.5925L28 15.0018ZM13.8427 24.2279C8.80899 24.2279 4.7191 20.092 4.7191 15.0018C4.7191 10.2296 8.80899 5.77566 13.8427 5.77566C18.5618 5.77566 22.9663 9.9115 22.9663 15.0018C22.9663 20.092 18.8764 24.2279 13.8427 24.2279Z" fill="#9BD6AE"/>
<path d="M14 7C9.57837 7 6 10.578 6 15C6 19.4216 9.57803 23 14 23C18.4216 23 22 19.422 22 15C22 10.5784 18.422 7 14 7ZM10.9046 8.64853C10.6625 9.30787 10.4592 9.97812 10.2952 10.6577C9.81581 10.5121 9.34422 10.3374 8.88138 10.1339C9.46744 9.51822 10.1504 9.01688 10.9046 8.64853ZM8.26056 10.8825C8.85966 11.1599 9.47278 11.3919 10.0981 11.5779C9.91669 12.5464 9.81294 13.5322 9.78831 14.5312H6.95319C7.03953 13.205 7.4915 11.9497 8.26056 10.8825ZM8.26056 19.1175C7.4915 18.0503 7.03953 16.795 6.95319 15.4688H9.78831C9.81294 16.4678 9.91669 17.4536 10.0981 18.4221C9.47278 18.6081 8.85969 18.8401 8.26056 19.1175ZM8.88138 19.8661C9.34422 19.6626 9.81578 19.4879 10.2952 19.3423C10.4593 20.0219 10.6625 20.6922 10.9046 21.3515C10.1508 20.9833 9.46775 20.4821 8.88138 19.8661ZM13.5312 22.0468C13.0389 22.0148 12.5563 21.9326 12.0895 21.8023C11.7188 20.9235 11.4228 20.0225 11.2021 19.1034C11.962 18.9335 12.7396 18.8342 13.5312 18.8061V22.0468ZM13.5312 17.868C12.6735 17.8964 11.8311 18.0026 11.0078 18.186C10.8442 17.2945 10.75 16.3876 10.7261 15.4688H13.5312V17.868ZM13.5312 14.5312H10.7261C10.75 13.6124 10.8442 12.7055 11.0078 11.814C11.8311 11.9974 12.6735 12.1036 13.5312 12.132V14.5312ZM13.5312 11.1939C12.7396 11.1658 11.962 11.0665 11.2021 10.8966C11.4228 9.97747 11.7188 9.07647 12.0895 8.19772C12.5563 8.06741 13.0389 7.98522 13.5312 7.95319V11.1939ZM19.7394 10.8825C20.5085 11.9497 20.9605 13.205 21.0468 14.5312H18.2117C18.1871 13.5322 18.0833 12.5464 17.9019 11.5779C18.5272 11.3919 19.1403 11.1599 19.7394 10.8825ZM19.1186 10.1339C18.6558 10.3374 18.1842 10.5121 17.7048 10.6577C17.5407 9.97809 17.3375 9.30784 17.0954 8.6485C17.8492 9.01666 18.5322 9.51791 19.1186 10.1339ZM14.4688 7.95319C14.9611 7.98522 15.4437 8.06741 15.9105 8.19772C16.2812 9.07647 16.5772 9.97747 16.7979 10.8966C16.038 11.0665 15.2604 11.1658 14.4688 11.1939V7.95319ZM14.4688 12.132C15.3265 12.1036 16.1689 11.9974 16.9922 11.814C17.1558 12.7055 17.25 13.6124 17.2739 14.5312H14.4688V12.132ZM15.9104 21.8022C15.4437 21.9326 14.9611 22.0148 14.4688 22.0468V18.8061C15.2604 18.8342 16.038 18.9335 16.7979 19.1034C16.5772 20.0225 16.2812 20.9235 15.9104 21.8022ZM14.4688 17.868V15.4688H17.2739C17.25 16.3876 17.1558 17.2945 16.9922 18.186C16.1689 18.0026 15.3265 17.8964 14.4688 17.868ZM17.0954 21.3515C17.3375 20.6921 17.5408 20.0219 17.7048 19.3422C18.1842 19.4879 18.6558 19.6626 19.1186 19.8661C18.5326 20.4818 17.8496 20.9831 17.0954 21.3515ZM19.7394 19.1175C19.1403 18.8401 18.5272 18.6081 17.9019 18.4221C18.0833 17.4536 18.1871 16.4678 18.2117 15.4688H21.0468C20.9605 16.795 20.5085 18.0503 19.7394 19.1175Z" fill="#9BD6AE"/>
</g>
<defs>
<clipPath id="clip0">
<rect width="28" height="29" fill="white"/>
</clipPath>
</defs>
</svg>
