<svg width="19" height="19" viewBox="0 0 19 19" fill="none" xmlns="http://www.w3.org/2000/svg">
<circle cx="9.5" cy="9.5" r="9" stroke="#9BD6AE"/>
<path d="M9.0127 16V7.36719H10.457V16H9.0127ZM9.73486 5.91455C9.49137 5.91455 9.28109 5.82601 9.104 5.64893C8.92692 5.47184 8.83838 5.26156 8.83838 5.01807C8.83838 4.76904 8.92692 4.55876 9.104 4.38721C9.28109 4.21012 9.49137 4.12158 9.73486 4.12158C9.98389 4.12158 10.1969 4.21012 10.374 4.38721C10.5511 4.55876 10.6396 4.76904 10.6396 5.01807C10.6396 5.26156 10.5511 5.47184 10.374 5.64893C10.1969 5.82601 9.98389 5.91455 9.73486 5.91455Z" fill="#9BD6AE"/>
</svg>
