<svg width="22" height="23" viewBox="0 0 22 23" fill="none" xmlns="http://www.w3.org/2000/svg">
<g clip-path="url(#clip0)">
<path d="M16.4469 18.9949L15.7445 16.5093C10.4876 21.157 6.1152 16.8783 5.31812 15.6497L5.72336 15.3994C5.90249 15.2884 6.00733 15.0886 5.99629 14.8781C5.98532 14.6677 5.86037 14.4797 5.67064 14.3882L2.0352 12.6357C1.95569 12.5972 1.87035 12.5781 1.78495 12.5781C1.67944 12.5781 1.5743 12.6074 1.48154 12.6646C1.31374 12.7679 1.21044 12.9496 1.2075 13.1467L1.14558 17.1823C1.14227 17.393 1.2544 17.5887 1.43751 17.6931C1.52623 17.7433 1.62444 17.7682 1.72259 17.7682C1.8278 17.7682 1.93294 17.7396 2.026 17.6821L2.21986 17.5623C5.55299 22.9696 13.203 23.4994 17.3437 19.9692C16.9092 19.7999 16.5747 19.4485 16.4469 18.9949Z" fill="#9BD6AE"/>
<path d="M4.17191 12.6527C3.74422 10.3357 5.28234 5.62365 10.3871 5.06866V5.13021C10.3871 5.34085 10.5022 5.53508 10.6869 5.63624C10.7733 5.68388 10.869 5.70729 10.9642 5.70729C11.0724 5.70729 11.1804 5.67688 11.275 5.61644L14.6762 3.44446C14.8426 3.33822 14.943 3.15504 14.943 2.95794C14.943 2.76077 14.8426 2.57759 14.6766 2.47135L11.2749 0.298862C11.1804 0.238415 11.0723 0.208008 10.9641 0.208008C10.8689 0.208008 10.7732 0.231421 10.6868 0.279057C10.5021 0.380219 10.3871 0.574371 10.3871 0.785089V1.42115C5.42878 1.39994 0.155235 6.08757 0.495093 12.4102C0.495093 12.4102 1.26265 11.6657 1.7848 11.6657C2.22384 11.6657 2.30239 11.7517 4.17191 12.6527Z" fill="#9BD6AE"/>
<path d="M21.5074 15.8425C21.4639 15.6362 21.3114 15.4699 21.1095 15.409L20.6934 15.2834C21.9172 11.8575 21.5199 5.94705 15.8158 2.64551C15.8374 2.74733 15.855 2.8507 15.855 2.95768C15.855 3.46879 15.5978 3.93816 15.1669 4.2133L13.2026 5.46752C14.9427 5.96973 18.9196 9.0702 17.1986 14.2288L16.9495 14.1537C16.8945 14.1373 16.8384 14.1288 16.7827 14.1288C16.6336 14.1288 16.4878 14.1871 16.3786 14.2944C16.2281 14.442 16.1701 14.66 16.2273 14.863L17.3242 18.7465C17.3778 18.936 17.5243 19.0851 17.7126 19.1423C17.7672 19.1587 17.8236 19.1668 17.8794 19.1668C18.0153 19.1668 18.149 19.1183 18.2552 19.0275L21.3184 16.3997C21.4785 16.2624 21.551 16.0488 21.5074 15.8425Z" fill="#9BD6AE"/>
</g>
<defs>
<clipPath id="clip0">
<rect width="22" height="22" fill="white" transform="translate(0 0.208008)"/>
</clipPath>
</defs>
</svg>
