<svg width="20" height="18" viewBox="0 0 20 18" fill="none" xmlns="http://www.w3.org/2000/svg">
<path d="M6.68421 9H4C2.34315 9 1 10.3431 1 12V14C1 15.6569 2.34315 17 4 17H16C17.6569 17 19 15.6569 19 14V12C19 10.3431 17.6569 9 16 9H13.3158" stroke="black" stroke-linecap="round" stroke-linejoin="round"/>
<path d="M9.5 13C9.5 13.2761 9.72386 13.5 10 13.5C10.2761 13.5 10.5 13.2761 10.5 13L9.5 13ZM10.3536 0.646446C10.1583 0.451184 9.84171 0.451184 9.64645 0.646446L6.46447 3.82843C6.2692 4.02369 6.2692 4.34027 6.46447 4.53553C6.65973 4.7308 6.97631 4.7308 7.17157 4.53553L10 1.70711L12.8284 4.53553C13.0237 4.7308 13.3403 4.7308 13.5355 4.53553C13.7308 4.34027 13.7308 4.02369 13.5355 3.82843L10.3536 0.646446ZM10.5 13L10.5 1L9.5 1L9.5 13L10.5 13Z" fill="black"/>
</svg>
