<svg width="13" height="18" viewBox="0 0 13 18" fill="none" xmlns="http://www.w3.org/2000/svg">
<path fill-rule="evenodd" clip-rule="evenodd" d="M11.7613 5.99057C11.5964 4.10022 9.97165 3.45225 7.91475 3.25324L7.93845 0.633302L6.34329 0.619116L6.32026 3.17C5.90146 3.16616 5.47284 3.17055 5.04701 3.17519L5.07052 0.607415L3.47664 0.59292L3.45231 3.2121C3.10698 3.21602 2.76785 3.21936 2.43723 3.21659L2.4371 3.20846L0.237576 3.18777L0.222555 4.891C0.222555 4.891 1.40041 4.87923 1.38064 4.90074C2.02659 4.90679 2.23385 5.28359 2.29164 5.60785L2.26473 8.59251C2.3093 8.59316 2.36743 8.59554 2.43319 8.60516L2.26515 8.60374L2.22642 12.7851C2.19623 12.9881 2.0738 13.3111 1.62249 13.3078C1.64273 13.3261 0.463239 13.297 0.463239 13.297L0.129219 15.1991L2.20497 15.2177C2.43937 15.2201 2.67146 15.2247 2.90101 15.2293L2.90155 15.2293C3.05003 15.2323 3.19743 15.2352 3.34371 15.2375L3.32047 17.8877L4.91349 17.9024L4.93763 15.2806C5.37452 15.2937 5.79778 15.301 6.21103 15.3044L6.18668 17.914L7.78142 17.9283L7.80589 15.2833C10.4884 15.1537 12.3714 14.4952 12.6265 11.9802C12.833 9.95463 11.888 9.04128 10.3693 8.66159C11.2979 8.19831 11.8835 7.374 11.7608 5.99067L11.7613 5.99057ZM9.47837 11.6363C9.46231 13.4538 6.60699 13.3878 5.30173 13.3577L5.30171 13.3577C5.18483 13.355 5.08038 13.3526 4.99151 13.3518L5.02374 9.84105C5.13239 9.84206 5.26438 9.84014 5.4139 9.83797C6.75211 9.81851 9.4946 9.77863 9.47879 11.6362L9.47837 11.6363ZM5.30064 8.23957C6.39037 8.26729 8.76571 8.32771 8.78114 6.67641C8.79665 4.98715 6.51055 5.02715 5.39405 5.04669C5.26853 5.04888 5.1578 5.05082 5.06678 5.05001L5.03782 8.23413C5.11295 8.23479 5.20147 8.23705 5.30064 8.23957Z" fill="#F7931A"/>
</svg>
