<svg width="15" height="21" viewBox="0 0 15 21" fill="none" xmlns="http://www.w3.org/2000/svg">
<path d="M2.06948 9.30029C2.06799 11.0294 2.04406 11.5596 2.15817 12.1725C3.09993 17.2328 10.5285 18.5091 12.293 12.8497C12.66 11.6725 12.6877 10.7296 12.6905 9.57457C12.6972 6.87054 13.138 4.0897 11.4233 1.88343C8.72593 -1.58768 2.8545 -0.0181965 2.12961 4.60505C2.04286 5.15812 2.07277 5.41287 2.06948 9.30029ZM11.5614 4.59904C11.9205 6.13186 11.7242 7.12333 11.7265 9.89664C11.7275 11.4069 11.5265 12.8865 10.6124 14.0755C8.40902 16.7437 3.41594 15.3172 3.057 11.4222C4.86439 11.4368 6.56215 11.321 8.40319 11.3521C8.85305 11.3596 9.09967 10.7189 8.84947 10.4081C8.76736 10.3062 8.65743 10.2355 8.52239 10.2333C6.62751 10.2016 4.92691 10.3242 3.03278 10.3009C3.03293 10.0554 3.03322 9.80962 3.03337 9.56405C4.95278 9.55909 6.5961 9.51821 8.42218 9.5639C8.86322 9.57487 9.12285 8.93583 8.86846 8.61992C8.64188 8.33843 8.81342 8.43431 3.03412 8.44528C3.03427 8.23112 3.03442 8.01696 3.03442 7.80279C4.99361 7.71021 6.6966 7.77168 8.47901 7.73125C8.95415 7.72043 9.16667 7.08711 8.92529 6.78728C8.84513 6.68778 8.73147 6.60948 8.59806 6.61249C6.75 6.65442 5.06824 6.58814 3.03442 6.69094C3.03442 6.57116 3.03367 6.15545 3.03352 6.06753C4.51966 6.07294 5.73092 6.01463 8.44073 6.01328C8.9051 6.01328 9.13093 5.37244 8.887 5.0693C8.71083 4.85063 8.70141 4.8867 7.11641 4.90052C5.56282 4.91405 4.11481 4.95658 3.05491 4.94802C3.07405 4.73731 3.11159 4.4764 3.16887 4.26374C3.26339 4.26179 8.37133 4.15643 8.46017 4.15854C8.90196 4.16921 9.16054 3.53017 8.90645 3.21456C8.70948 2.97004 9.00665 3.02745 3.65239 3.13746C5.45349 0.267506 10.4276 0.167413 11.5614 4.59904Z" fill="#C4C4C4"/>
<path d="M13.6097 12.5739C13.3504 14.5211 11.9824 15.9477 10.1597 16.7625C6.72277 18.2234 1.94191 16.5147 1.36537 12.3647C1.32006 12.0384 1.04981 11.8818 0.817849 11.9579C0.543713 12.0478 0.363049 12.3486 0.40298 12.6363C0.830711 15.7146 3.21449 18.1 7.06989 18.377C7.05957 18.8618 7.05927 19.3468 7.07154 19.8316C4.96758 19.8363 4.92511 19.8136 4.72844 20.0072C4.37594 20.3381 4.54763 20.9805 4.9628 20.9728C10.2508 20.8751 9.92058 21.1595 10.2311 20.8536C10.5556 20.5487 10.4567 19.909 9.99671 19.888C9.32969 19.8576 8.69751 19.8425 8.04306 19.8354C8.02571 19.3662 8.02182 19.0219 8.03513 18.3927C10.6536 18.2491 13.7603 16.3437 14.4843 13.0942C14.5562 12.7711 14.6495 12.4313 14.4786 12.1975C14.2163 11.8392 13.6771 12.0673 13.6097 12.5739Z" fill="#C4C4C4"/>
<path d="M0.519963 9.93607C0.765534 10.1029 1.19461 9.87715 1.24396 9.43785C1.25728 7.21805 1.34581 7.15794 1.18519 6.94648C0.934832 6.56098 0.329279 6.87013 0.316417 7.32281C0.25824 9.36075 0.202605 9.80351 0.519963 9.93607Z" fill="#C4C4C4"/>
<path d="M14.617 7.00363C14.3672 6.61934 13.7623 6.92458 13.7482 7.37996C13.7274 8.05162 13.7461 8.70749 13.7149 9.38335C13.6877 9.97309 14.2189 10.0878 14.4909 9.79785C14.7365 9.53589 14.6845 9.47367 14.7034 7.8394C14.7079 7.45225 14.7577 7.18909 14.617 7.00363Z" fill="#C4C4C4"/>
</svg>
