<svg width="15" height="15" viewBox="0 0 15 15" fill="none" xmlns="http://www.w3.org/2000/svg">
<path d="M9.92004 2.82559C9.81896 2.75502 9.68695 2.73425 9.56444 2.77777L9.56284 2.77835C9.07103 2.95686 8.51781 2.75865 8.2507 2.30737C8.25062 2.30722 8.25053 2.30707 8.25044 2.30692L8.03524 2.43416M9.92004 2.82559L7.74839 2.15246L7.74948 2.15194C7.81214 2.12276 7.87945 2.11142 7.94493 2.11648L7.77114 2.19846L7.77028 2.19887L4.12538 3.91837V4.13765M9.92004 2.82559L9.56279 2.06833L9.56272 2.06817C9.41099 1.74598 9.02485 1.60727 8.7021 1.75927L9.92004 2.82559ZM8.03524 2.43416C7.99848 2.3714 7.92048 2.34809 7.85503 2.37857L4.12538 4.13765M8.03524 2.43416C8.36338 2.98914 9.04297 3.23301 9.64814 3.01335L8.03524 2.43416ZM4.12538 4.13765L4.04078 3.95828L3.66056 4.13765H4.12538ZM8.29801 0.902612L8.29804 0.902601C9.09414 0.527389 10.0448 0.867375 10.4203 1.66498L8.29801 0.902612ZM8.29801 0.902612L4.81892 2.54279H1.89655C1.26358 2.54279 0.75 3.05639 0.75 3.68937V12.431C0.75 13.4351 1.56383 14.25 2.56897 14.25H11.9828C12.9869 14.25 13.8017 13.4351 13.8017 12.431V11.3629C14.0692 11.2027 14.25 10.9112 14.25 10.5744V7.94811C14.25 7.61128 14.0692 7.31985 13.8017 7.15966V5.70666C13.8017 5.03019 13.4304 4.44488 12.8852 4.13278C12.7725 3.23795 12.0136 2.54279 11.0862 2.54279H10.8341L10.4203 1.66513L8.29801 0.902612ZM9.42925 3.88765H6.29302L7.76026 3.19616C8.1867 3.61716 8.77963 3.82997 9.37675 3.77655L9.42925 3.88765ZM2.809 3.49108L1.96788 3.88765H1.89655C1.78808 3.88765 1.69828 3.79786 1.69828 3.68937C1.69828 3.58087 1.78808 3.49108 1.89655 3.49108H2.809ZM11.4689 3.88765L11.294 3.51623C11.5108 3.56973 11.6958 3.70504 11.8145 3.88765H11.4689ZM10.8621 11.4968H12.8534V12.431C12.8534 12.9107 12.4624 13.3017 11.9828 13.3017H2.56897C2.08932 13.3017 1.69828 12.9107 1.69828 12.431V4.81792C1.7623 4.82964 1.82852 4.83594 1.89655 4.83594H11.9828C12.4624 4.83594 12.8534 5.22699 12.8534 5.70666V7.02567H10.8621C10.3075 7.02567 9.51167 7.28911 8.86149 7.66808C8.53297 7.85956 8.22642 8.08911 7.99887 8.34501C7.77359 8.59836 7.60503 8.90156 7.60503 9.23483C7.60503 9.5673 7.77288 9.87331 7.99713 10.1309C8.22393 10.3915 8.52977 10.6277 8.85814 10.826C9.50721 11.218 10.3044 11.4968 10.8621 11.4968ZM13.2523 7.97396C13.2796 7.97396 13.3017 7.99602 13.3017 8.02342V10.5C13.3017 10.5259 13.2801 10.5486 13.2523 10.5486H10.8621C10.7145 10.5486 10.4904 10.5059 10.2263 10.4206C9.96631 10.3367 9.684 10.2168 9.42432 10.0753C9.16305 9.9328 8.9347 9.77374 8.77533 9.6149C8.60955 9.44966 8.55331 9.32012 8.55331 9.23483C8.55331 9.15085 8.60825 9.02504 8.77286 8.86545C8.93138 8.71178 9.15898 8.55915 9.42017 8.42305C9.95038 8.14677 10.5485 7.97396 10.8621 7.97396H13.2523Z" fill="#C4C4C4" stroke="#C4C4C4" stroke-width="0.5"/>
</svg>
